<?xml version="1.0" encoding="utf-8"?>
<!-- Generator: Adobe Illustrator 18.0.0, SVG Export Plug-In . SVG Version: 6.00 Build 0)  -->
<!DOCTYPE svg PUBLIC "-//W3C//DTD SVG 1.1//EN" "http://www.w3.org/Graphics/SVG/1.1/DTD/svg11.dtd">
<svg version="1.1" id="Layer_1" xmlns="http://www.w3.org/2000/svg" xmlns:xlink="http://www.w3.org/1999/xlink" x="0px" y="0px"
	 viewBox="0 0 71.2 71.2" enable-background="new 0 0 71.2 71.2" xml:space="preserve">
<g>
	<path id="Behance_2_" fill="#010101" d="M64.3,18.8H46.5v-4.4h17.8V18.8z M34.6,37c1.2,1.8,1.7,3.9,1.7,6.5c0,2.6-0.6,5-2,7.1
		c-0.8,1.4-1.9,2.5-3.1,3.5c-1.4,1.1-3.1,1.8-5,2.2c-1.9,0.4-4,0.6-6.3,0.6H0V12.6h21.4c5.4,0.1,9.2,1.7,11.5,4.7
		c1.4,1.9,2,4.1,2,6.8c0,2.7-0.7,4.9-2,6.5c-0.8,0.9-1.9,1.8-3.4,2.5C31.7,33.9,33.4,35.2,34.6,37z M10.2,30h9.4
		c1.9,0,3.5-0.4,4.7-1.1c1.2-0.7,1.8-2,1.8-3.9c0-2.1-0.8-3.4-2.4-4.1c-1.4-0.5-3.1-0.7-5.2-0.7h-8.2V30z M27,42.9
		c0-2.3-0.9-3.9-2.8-4.7c-1.1-0.5-2.5-0.7-4.4-0.8h-9.5v11.8h9.4c1.9,0,3.4-0.3,4.5-0.8C26,47.4,27,45.6,27,42.9z M70.9,35.7
		c0.2,1.4,0.3,3.6,0.3,6.3H48.1c0.1,3.2,1.2,5.4,3.3,6.7c1.3,0.8,2.8,1.2,4.6,1.2c1.9,0,3.4-0.5,4.6-1.5c0.6-0.5,1.2-1.3,1.7-2.2
		h8.5c-0.2,1.9-1.2,3.8-3.1,5.7c-2.8,3.1-6.8,4.6-11.9,4.6c-4.2,0-7.9-1.3-11.2-3.9c-3.2-2.6-4.8-6.8-4.8-12.7
		c0-5.5,1.5-9.7,4.4-12.7c2.9-2.9,6.7-4.4,11.4-4.4c2.8,0,5.2,0.5,7.5,1.5c2.2,1,4,2.6,5.5,4.7C69.7,31,70.5,33.2,70.9,35.7z
		 M62.6,36.5c-0.2-2.2-0.9-3.9-2.2-5c-1.3-1.1-3-1.7-4.9-1.7c-2.1,0-3.8,0.6-5,1.8c-1.2,1.2-1.9,2.8-2.2,4.9H62.6z"/>
</g>
</svg>
