<?xml version="1.0" encoding="utf-8"?>
<!-- Generator: Adobe Illustrator 18.0.0, SVG Export Plug-In . SVG Version: 6.00 Build 0)  -->
<!DOCTYPE svg PUBLIC "-//W3C//DTD SVG 1.1//EN" "http://www.w3.org/Graphics/SVG/1.1/DTD/svg11.dtd">
<svg version="1.1" id="Layer_1" xmlns="http://www.w3.org/2000/svg" xmlns:xlink="http://www.w3.org/1999/xlink" x="0px" y="0px"
	 viewBox="0 0 216 144" enable-background="new 0 0 216 144" xml:space="preserve">
<g>
	<path id="Behance_2_" fill="#FFFFFF" d="M194.3,22.3h-53.5V9.1h53.5V22.3z M105,77c3.6,5.4,5.1,11.7,5.1,19.5s-1.8,15-6,21.3
		c-2.4,4.2-5.7,7.5-9.3,10.5c-4.2,3.3-9.3,5.4-15,6.6c-5.7,1.2-12,1.8-18.9,1.8H1V3.7h64.3C81.6,4,93,8.8,99.9,17.8
		c4.2,5.7,6,12.3,6,20.4s-2.1,14.7-6,19.5c-2.4,2.7-5.7,5.4-10.2,7.5C96.3,67.7,101.4,71.6,105,77z M31.7,56h28.3
		c5.7,0,10.5-1.2,14.1-3.3s5.4-6,5.4-11.7c0-6.3-2.4-10.2-7.2-12.3c-4.2-1.5-9.3-2.1-15.6-2.1H32V56H31.7z M82.2,94.8
		c0-6.9-2.7-11.7-8.4-14.1c-3.3-1.5-7.5-2.1-13.2-2.4H32v35.5h28.3c5.7,0,10.2-0.9,13.5-2.4C79.1,108.3,82.2,102.9,82.2,94.8z
		 M214.1,73.1c0.6,4.2,0.9,10.8,0.9,18.9h-69.4c0.3,9.6,3.6,16.2,9.9,20.1c3.9,2.4,8.4,3.6,13.8,3.6c5.7,0,10.2-1.5,13.8-4.5
		c1.8-1.5,3.6-3.9,5.1-6.6h25.5c-0.6,5.7-3.6,11.4-9.3,17.1c-8.4,9.3-20.4,13.8-35.8,13.8c-12.6,0-23.7-3.9-33.7-11.7
		c-9.6-7.8-14.4-20.4-14.4-38.2c0-16.5,4.5-29.2,13.2-38.2c8.7-8.7,20.1-13.2,34.3-13.2c8.4,0,15.6,1.5,22.5,4.5
		c6.6,3,12,7.8,16.5,14.1C210.5,59,212.9,65.6,214.1,73.1z M189.2,75.5c-0.6-6.6-2.7-11.7-6.6-15c-3.9-3.3-9-5.1-14.7-5.1
		c-6.3,0-11.4,1.8-15,5.4c-3.6,3.6-5.7,8.4-6.6,14.7H189.2z"/>
</g>
</svg>
