<?xml version="1.0" encoding="utf-8"?>
<!-- Generator: Adobe Illustrator 18.0.0, SVG Export Plug-In . SVG Version: 6.00 Build 0)  -->
<!DOCTYPE svg PUBLIC "-//W3C//DTD SVG 1.1//EN" "http://www.w3.org/Graphics/SVG/1.1/DTD/svg11.dtd">
<svg version="1.1" id="Layer_1" xmlns="http://www.w3.org/2000/svg" xmlns:xlink="http://www.w3.org/1999/xlink" x="0px" y="0px"
	 viewBox="0 0 259.2 162" enable-background="new 0 0 259.2 162" xml:space="preserve">
<g>
	<g>
		<g>
			<path fill="#E09936" stroke="#000000" stroke-width="2.3681" stroke-miterlimit="10" d="M215.9,60.3l2.8,33.4
				c0,0,0.7,3.1,3.4,4.3c0,0,11.2,3.4,12,3c0.8-0.4,3.3-1.6,3.5-2.4c0.2-0.8-0.5-27.6-2.9-34.4c0,0-1.6-1.4-4-2.3
				c0,0-7.5-3.4-8.6-3.2C222.1,58.6,215.9,58.4,215.9,60.3z"/>
			<path fill="none" stroke="#000000" stroke-width="2.3681" stroke-miterlimit="10" d="M222,60.2l2.4,31.3c0,0-0.2,2.7,2.8,3.8
				l6.5,2.2c0,0,4.4,1.2,4.4-0.7l-3.5-32.8C234.7,64.1,223,57.6,222,60.2z"/>
			<path fill="none" stroke="#000000" stroke-width="2.3681" stroke-miterlimit="10" d="M224.2,63.6c0,0,4.6-1.1,7.6,3l2,26.8
				c0,0-4.2-2.7-7.6-1.5L224.2,63.6z"/>
			<path fill="none" stroke="#000000" stroke-width="2.3681" stroke-miterlimit="10" d="M231.5,95.2c0,0-5.3-1.3-5.2-3.4
				c0,0,3.9-1.2,7.6,1.5c0,0,0.8,2.3-0.5,2.3C232.4,95.5,231.5,95.2,231.5,95.2z"/>
		</g>
		<g>
			<path fill="#E09936" stroke="#000000" stroke-width="2.3681" stroke-miterlimit="10" d="M33.6,68.9l-1.1,13.8l3.3,19.7
				c0,0-0.3,3.2-2.8,4.7c0,0-4.1,3.9-4.9,3.7c-0.8-0.3-4.2-0.2-4.5-1c-0.3-0.8-3.6-27.4-2.2-34.5c0,0,1.3-2.1,4-5.2
				c0,0,0.8-1.2,1.8-2C27.2,68.1,33.3,67.1,33.6,68.9z"/>
			<path fill="none" stroke="#000000" stroke-width="1.9858" stroke-miterlimit="10" d="M28.4,68.5l2.4,32.8c0,0,0.4,2-2.4,4
				l-2.2,1.8c0,0-2.7,2.5-3,0.6l-1.7-15.8l-0.2-16.7C21.4,75.2,27,66.1,28.4,68.5z"/>
			<path fill="none" stroke="#000000" stroke-width="1.9858" stroke-miterlimit="10" d="M25.8,73.4c0,0,0.3-0.9-2.1,3.6l2.1,26.3
				c0,0,1.1-0.5,2.1-1.7L25.8,73.4z"/>
		</g>
		<g>
			<path fill="none" stroke="#000000" stroke-width="2.3681" stroke-miterlimit="10" d="M115.2,64.2c-0.8-5.3-17.1-32.9-48.6-25.5
				c-38.8,9.1-40.3,55.7-20.4,76.9c0.8,0.9,21.8,22.1,51.7,5.6S115.8,68.3,115.2,64.2z M104,83c-2.8,24.9-20.2,33-32.4,33
				c-1.4,0-5,0.4-6.2,0.3c-8.6-1.1-29.9-8.1-27.4-40c4.6-25.3,24.7-30.6,35.1-30.6c0.9,0,1.7,0,2.4,0.1C81.7,46.3,106.6,55,104,83z"
				/>
			<path fill="none" stroke="#000000" stroke-width="2.3681" stroke-miterlimit="10" d="M50.6,109.5c0,0-18.8-23.9,0.3-50
				c15.3-21,30.4-11.4,36.8-8.9c0,0-24.6-18.3-44.5,7.9C25.9,81.3,46.7,108.1,50.6,109.5z"/>
			<path fill="none" stroke="#000000" stroke-width="2.3681" stroke-miterlimit="10" d="M114.9,73.7c-4.5-38.3-42.8-35-42.8-35
				c-17.6-1.4-50.6,24.1-36.6,60.4s51.2,24.3,51.2,24.3S119.4,112.1,114.9,73.7z M104,82.7c-2.8,24.9-18,33.6-30.3,33.6
				c-1.4,0-7.1-0.2-8.3-0.3c-8.6-1.1-32.2-8.6-29.7-40.5c4.6-25.3,27-30.1,37.3-30.1c0.9,0,1.7,0,2.4,0.1
				C81.7,46,106.6,54.7,104,82.7z"/>
			<path fill="none" stroke="#000000" stroke-width="2.3681" stroke-miterlimit="10" d="M73.1,45.4c0.9,0,1.7,0,2.4,0.1
				c6.2,0.6,31,9.2,28.5,37.2c-2.8,24.9-20.2,33-32.4,33c-1.4,0-4.8-0.3-7.2-0.8c-8.3-1.6-28.9-7-26.4-38.9
				C42.7,50.7,62.7,45.4,73.1,45.4 M72.1,38.8c-15.3,0-34.2,10-38.9,35.2c-2.2,11.9,0.1,23.3,6.1,31.4c9.7,13.2,26,15.6,27.8,15.8
				c1.4,0.2,2.9,0.3,4.4,0.3c5.1,0,15.1-2.3,23.8-9.2c8.8-7,13.2-16,14.5-30.5c2-28.3-21.5-42.5-33-43.1
				C76.9,38.8,73.5,38.8,72.1,38.8z"/>
		</g>
		<g>
			<path fill="none" stroke="#000000" stroke-width="2.3681" stroke-miterlimit="10" d="M216.6,93.6c1.8-5.2,6.6-32.9-16.8-50.6
				c-32.1-24.2-68.2,8.2-70.5,37.9c-0.1,1.2,4.2,40,38.2,43.9C202.3,128.9,214.4,99.9,216.6,93.6z M192.6,101.9
				c-20.2,15.2-38,7.7-46.3-1.6c-1-1.1-3.7-3.5-4.4-4.5c-5.1-7.2-14.3-28.2,10.9-48.4c21.8-14,39.3-2.6,46.3,5.3
				c0.6,0.7,1.1,1.3,1.5,1.9C204.4,59.6,214.9,84.4,192.6,101.9z"/>
			<path fill="none" stroke="#000000" stroke-width="2.3681" stroke-miterlimit="10" d="M136.8,71.6c0,0,11.8-31.1,40.9-25.3
				c24.9,5,27.8,20,28.9,27c0,0,4.5-28.5-28.1-33.2S136.1,67.4,136.8,71.6z"/>
			<path fill="none" stroke="#000000" stroke-width="2.3681" stroke-miterlimit="10" d="M206.8,103.8c25.2-30-3.2-56.6-3.2-56.6
				c-10.9-14.3-52-21.5-69.3,14.3S151,117,151,117S181.6,133.7,206.8,103.8z M192.8,101.7c-20.2,15.2-38,7.7-46.3-1.6
				c-1-1.1-3.7-3.5-4.4-4.5c-5.1-7.2-14.3-28.2,10.9-48.4c21.8-14,39.3-2.6,46.3,5.3c0.6,0.7,1.1,1.3,1.5,1.9
				C204.6,59.4,215.1,84.2,192.8,101.7z"/>
			<path fill="none" stroke="#000000" stroke-width="2.3681" stroke-miterlimit="10" d="M199.4,52.5c0.6,0.7,1.1,1.3,1.5,1.9
				c3.8,5,14.2,29.8-8.1,47.3c-20.2,15.2-38,7.7-46.3-1.6c-1-1.1-3.7-3.5-4.4-4.5c-5.1-7.2-14.3-28.2,10.9-48.4
				C174.9,33.2,192.3,44.7,199.4,52.5 M203.6,47.2c-10.4-11.6-30.5-18.9-52.3-4.9c-10.3,6.6-17.1,16.2-19,26.4
				c-3.2,16.5,6.1,30.4,7.2,31.9c0.8,1.2,1.8,2.4,2.8,3.5c3.4,3.8,11.9,9.8,22.9,11.6c11.2,1.8,20.7-1.1,32.3-10.2
				c22.1-18.1,16.7-45.7,9.4-54.8C206.8,50.8,204.5,48.3,203.6,47.2z"/>
		</g>
		<g>
			<path fill="#E09936" stroke="#000000" stroke-width="2.3681" stroke-miterlimit="10" d="M112.1,66.2c0,0,11.5-4.2,19.3-0.3
				c0,0-2.2,12,0.8,16.5c0,0-10.9-3.1-19,0.3C113.3,82.7,115.8,70.7,112.1,66.2z"/>
			<path fill="none" stroke="#000000" stroke-width="2.3681" stroke-miterlimit="10" d="M113.2,81.9c0,0,9-3.8,19.1-0.1l0.6,2.3
				c0,0-12.4-4.3-19.4-0.4L113.2,81.9z"/>
			<path fill="#E09936" stroke="#000000" stroke-width="2.3681" stroke-miterlimit="10" d="M109.1,63.9c0,0,3.9,14.8,2,21
				c0,0,2,2.2,3.6-1.7c0,0,2.5-15.4-3.4-20.4C111.3,62.8,108.8,62,109.1,63.9z"/>
			<path fill="none" stroke="#000000" stroke-width="2.3681" stroke-miterlimit="10" d="M134,83.9c0,0-2.2-15.2,0.5-21.1
				c0,0-1.7-2.4-3.8,1.2c0,0-4.3,15,1,20.7C131.6,84.8,134,85.9,134,83.9z"/>
		</g>
	</g>
</g>
</svg>
