<?xml version="1.0" encoding="utf-8"?>
<!-- Generator: Adobe Illustrator 18.1.0, SVG Export Plug-In . SVG Version: 6.00 Build 0)  -->
<!DOCTYPE svg PUBLIC "-//W3C//DTD SVG 1.1//EN" "http://www.w3.org/Graphics/SVG/1.1/DTD/svg11.dtd">
<svg version="1.1" id="Layer_1" xmlns="http://www.w3.org/2000/svg" xmlns:xlink="http://www.w3.org/1999/xlink" x="0px" y="0px"
	 viewBox="256 346 100 100" enable-background="new 256 346 100 100" xml:space="preserve">
<rect x="256" y="346" fill="#D1D3D4" width="99.9" height="100"/>
<g>
	<g>
		<path d="M268.4,391.7h2v0.4h-0.7c0.4,1,0.8,2,1.3,3c0.5,0.9,0.8,2,1.3,3v0.4c0.3-0.7,0.6-1.5,0.8-2.1c0.3-0.7,0.6-1.4,0.9-2
			c-0.1-0.4-0.4-0.7-0.4-1.1c-0.2-0.4-0.4-0.7-0.4-1.1h-1v-0.5h2v0.5h-0.7c0.4,0.9,0.8,2,1.3,3c0.5,0.9,0.8,2,1.3,3l0.1,0.3l0.1-0.3
			c0.4-0.9,0.8-2,1.3-3c0.5-0.9,0.9-2,1.3-3h-0.7v-0.5h2v0.5h-1c-0.6,1.2-1,2.5-1.6,3.7c-0.5,1.2-1,2.4-1.5,3.7l-1.8-4.4l-0.1-0.3
			c-0.3,0.8-0.6,1.5-1,2.3s-0.7,1.6-1,2.4c-0.6-1.2-1-2.5-1.6-3.7c-0.5-1.2-1-2.4-1.5-3.7h-0.9L268.4,391.7L268.4,391.7z"/>
		<path d="M281.1,395.4c0-0.6,0.2-0.9,0.4-1.5c0.2-0.5,0.5-0.8,0.8-1.3c0.4-0.4,0.7-0.6,1.2-0.8c0.6-0.2,0.9-0.3,1.5-0.3
			s1,0.2,1.6,0.3c0.5,0.2,0.8,0.5,1.2,0.8c0.4,0.4,0.6,0.7,0.8,1.3c0.2,0.5,0.4,1,0.4,1.5c0,0.6-0.2,1-0.4,1.5
			c-0.2,0.5-0.5,0.8-0.8,1.2c-0.4,0.4-0.6,0.6-1.2,0.8c-0.5,0.2-1,0.3-1.6,0.3s-1-0.1-1.5-0.3c-0.4-0.2-0.8-0.5-1.2-0.8
			c-0.4-0.4-0.6-0.7-0.8-1.2C281.3,396.5,281.1,396,281.1,395.4z M281.6,395.4c0,0.5,0.2,0.9,0.3,1.3c0.1,0.4,0.4,0.7,0.7,1.1
			c0.4,0.3,0.7,0.6,1,0.7s0.8,0.3,1.3,0.3s0.9-0.1,1.3-0.3c0.4-0.2,0.7-0.5,1-0.7c0.3-0.4,0.6-0.6,0.7-1.1c0.2-0.4,0.3-0.8,0.3-1.3
			s-0.1-0.9-0.3-1.3c-0.2-0.5-0.5-0.7-0.7-1.1c-0.3-0.4-0.7-0.6-1-0.7c-0.4-0.2-0.8-0.3-1.3-0.3s-0.9,0.2-1.3,0.3
			c-0.5,0.2-0.7,0.4-1,0.7c-0.4,0.3-0.6,0.6-0.7,1.1C281.6,394.5,281.6,395,281.6,395.4z"/>
		<path d="M289.5,398.7h0.6v-6.6h-0.7v-0.4h2.2c0.2,0,0.5,0.1,0.7,0.1c0.3,0.1,0.6,0.2,0.7,0.4c0.2,0.2,0.5,0.4,0.6,0.6
			s0.2,0.6,0.2,0.9c0,0.6-0.2,0.9-0.5,1.3s-0.7,0.6-1.2,0.6l1.5,3.1h0.9v0.5h-1.2l-1.7-3.5c-0.1,0-0.2,0-0.2,0c-0.1,0-0.1,0-0.2,0
			h-0.9v3.1h1v0.4h-2.1L289.5,398.7L289.5,398.7z M290.5,395.3h1.1c0.4,0,0.7-0.1,0.9-0.2s0.5-0.2,0.6-0.4c0.2-0.2,0.2-0.3,0.4-0.6
			c0.1-0.2,0.1-0.4,0.1-0.6s0-0.4-0.2-0.6c-0.2-0.1-0.2-0.4-0.4-0.5c-0.2-0.1-0.4-0.2-0.6-0.4c-0.2-0.1-0.5-0.1-0.7-0.1h-1.1
			L290.5,395.3L290.5,395.3z"/>
		<path d="M300.1,398.7h0.6c-0.5-0.6-0.9-1.3-1.5-1.9c-0.5-0.6-1-1.2-1.6-1.9l-0.9,0.8c0,0.5,0,1,0,1.5s0,0.9,0,1.5h0.8v0.4h-2v-0.4
			h0.8v-6.6h-0.8v-0.4h2v0.4h-0.8v2.9c0,0.1,0,0.2,0,0.2c0,0.1,0,0.2,0,0.2l0.2-0.2l3.1-3h-0.6v-0.4h2v0.4h-0.9l-2.6,2.6
			c0.6,0.7,1,1.3,1.6,2c0.6,0.6,1,1.3,1.6,2h0.8v0.4h-2L300.1,398.7L300.1,398.7z"/>
		<path d="M307.8,391.7h2.1v0.4h-0.8v6.6h0.8v0.4h-2.1v-0.4h0.8v-3.1h-4.5v3.1h0.8v0.4h-2.1v-0.4h0.8v-6.6h-0.8v-0.4h2.1v0.4h-0.8
			v3.1h4.5v-3.1h-0.8V391.7z"/>
		<path d="M310.6,395.4c0-0.6,0.2-0.9,0.3-1.5c0.2-0.5,0.5-0.8,0.8-1.3c0.4-0.4,0.7-0.6,1.2-0.8c0.5-0.2,0.9-0.3,1.5-0.3
			s1,0.2,1.6,0.3c0.6,0.2,0.8,0.5,1.2,0.8c0.4,0.4,0.6,0.7,0.8,1.3c0.2,0.5,0.3,1,0.3,1.5c0,0.6-0.2,1-0.3,1.5
			c-0.2,0.5-0.5,0.8-0.8,1.2c-0.4,0.4-0.7,0.6-1.2,0.8c-0.5,0.2-1,0.3-1.6,0.3s-1-0.1-1.5-0.3c-0.5-0.2-0.8-0.5-1.2-0.8
			c-0.5-0.4-0.6-0.7-0.8-1.2C310.7,396.5,310.6,396,310.6,395.4z M311.1,395.4c0,0.5,0.2,0.9,0.3,1.3c0.1,0.4,0.4,0.7,0.7,1.1
			c0.3,0.3,0.6,0.6,1.1,0.7s0.8,0.3,1.3,0.3s0.9-0.1,1.3-0.3s0.7-0.5,1.1-0.7c0.3-0.3,0.6-0.6,0.7-1.1c0.1-0.4,0.3-0.8,0.3-1.3
			s-0.2-0.9-0.3-1.3c-0.2-0.5-0.4-0.7-0.7-1.1c-0.3-0.3-0.6-0.6-1.1-0.7s-0.8-0.3-1.3-0.3s-0.9,0.2-1.3,0.3
			c-0.5,0.2-0.7,0.4-1.1,0.7c-0.3,0.3-0.6,0.6-0.7,1.1C311.2,394.5,311.1,395,311.1,395.4z"/>
		<path d="M319.1,398.7h0.7v-6.6h-0.7v-0.4h2v0.4h-0.8v6.6h3.7v-1.3h0.4v1.6h-5.3L319.1,398.7L319.1,398.7z"/>
		<path d="M325,398.7h0.6v-6.6H325v-0.4h2.2c0.6,0,1,0.1,1.5,0.2c0.5,0.2,0.8,0.5,1.2,0.7c0.4,0.3,0.6,0.7,0.8,1.2
			c0.2,0.5,0.3,1,0.3,1.5s-0.1,0.8-0.2,1.3s-0.4,0.8-0.7,1.3c-0.3,0.4-0.7,0.6-1.2,0.9s-1.2,0.4-1.9,0.4h-1.9
			C325,399.1,325,398.7,325,398.7z M326.1,392.2v6.6h0.9c0.6,0,1.1-0.2,1.6-0.3c0.4-0.2,0.8-0.5,1.1-0.7c0.3-0.3,0.6-0.6,0.6-1
			c0.1-0.4,0.2-0.8,0.2-1.3s-0.1-1-0.3-1.3c-0.1-0.4-0.4-0.7-0.7-1c-0.3-0.3-0.6-0.6-1-0.6c-0.4-0.1-0.8-0.2-1.2-0.2
			C327.1,392.2,326.1,392.2,326.1,392.2z"/>
		<path d="M331.7,398.7h0.7v-6.6h-0.7v-0.4h5.2v1.6h-0.4v-1.2H333v3.1h3.6v0.4H333v3.2h3.7v-1.3h0.4v1.6h-5.4V398.7L331.7,398.7z"/>
		<path d="M337.8,398.7h0.6v-6.6h-0.6v-0.4h2.2c0.2,0,0.5,0.1,0.7,0.1c0.3,0,0.6,0.2,0.7,0.4c0.2,0.2,0.4,0.4,0.6,0.6
			c0.1,0.2,0.2,0.6,0.2,0.9c0,0.6-0.2,0.9-0.4,1.3c-0.3,0.4-0.6,0.6-1.2,0.6l1.5,3.1h0.9v0.5h-1.3l-1.7-3.5c-0.1,0-0.2,0-0.2,0
			c-0.1,0-0.1,0-0.2,0h-0.9v3.1h1v0.4h-2.1L337.8,398.7L337.8,398.7z M338.9,395.3h1.1c0.4,0,0.7-0.1,0.9-0.2s0.5-0.2,0.6-0.4
			c0.1-0.2,0.2-0.3,0.3-0.6c0.1-0.2,0.1-0.4,0.1-0.6s-0.1-0.4-0.1-0.6c-0.2-0.1-0.2-0.4-0.4-0.5s-0.5-0.2-0.6-0.4
			c-0.2-0.1-0.5-0.1-0.7-0.1H339L338.9,395.3L338.9,395.3z"/>
	</g>
</g>
</svg>
