<?xml version="1.0" encoding="utf-8"?>
<!-- Generator: Adobe Illustrator 18.0.0, SVG Export Plug-In . SVG Version: 6.00 Build 0)  -->
<!DOCTYPE svg PUBLIC "-//W3C//DTD SVG 1.1//EN" "http://www.w3.org/Graphics/SVG/1.1/DTD/svg11.dtd">
<svg version="1.1" id="Layer_1" xmlns="http://www.w3.org/2000/svg" xmlns:xlink="http://www.w3.org/1999/xlink" x="0px" y="0px"
	 viewBox="0 0 216 144" enable-background="new 0 0 216 144" xml:space="preserve">
<g id="UMrDu4.tif">
	<g>
		<path fill="#FFFFFF" d="M108,0c18,0,36,0.2,54.2-0.2c10.5-0.2,18,7.7,17.8,17.8c-0.2,36,0,72.2,0,108.2c0,11.3-6.9,18-18.2,18
			c-36,0-72,0-107.8,0c-10.9,0-17.8-6.9-17.8-17.6C36,90,36,53.8,36,17.8c0-9.1,4.2-15,11.9-17.2C50,0,52,0,54,0C72,0,90,0,108,0z
			 M64.7,61.3c-4,0-7.7,0-11.7,0c0,1.2-0.2,2.2-0.2,3.2c0,18.4,0,37,0,55.4c0,5.3,1.8,7.1,7.3,7.1c32,0,63.9,0,95.9,0
			c5.3,0,7.1-2,7.1-7.3c0-18.4,0-37,0-55.4c0-1-0.2-2-0.2-3.2c-4,0-7.7,0-11.7,0c2.4,13.6,0.8,26.1-7.7,37S124,115.3,110,115.9
			c-12.3,0.6-23.3-3-32.6-11.7C65.1,92.6,61.7,78.1,64.7,61.3z M135.5,72.4c0.8-13.3-10.9-27.3-24.3-28.1C94.2,43.1,81.3,54,80.3,71
			C79.5,86.4,92,98.1,105,99.3C123.4,100.9,135.9,85.6,135.5,72.4z M163,30.1L163,30.1c0-2.6,0-5.3,0-7.7c0-3.6-2.2-5.9-5.9-5.9
			c-5.3,0-10.3,0-15.6,0c-3.6,0-6.1,2.2-6.1,5.7c-0.2,5.5-0.2,10.7,0,16.2c0,3.2,2.4,5.7,5.7,5.9c5.5,0.2,10.7,0.2,16.2,0
			c3.2,0,5.5-2.6,5.5-5.9C163.2,35.4,163,32.8,163,30.1z"/>
	</g>
</g>
</svg>
