<?xml version="1.0" encoding="utf-8"?>
<!-- Generator: Adobe Illustrator 18.0.0, SVG Export Plug-In . SVG Version: 6.00 Build 0)  -->
<!DOCTYPE svg PUBLIC "-//W3C//DTD SVG 1.1//EN" "http://www.w3.org/Graphics/SVG/1.1/DTD/svg11.dtd">
<svg version="1.1" id="Layer_1" xmlns="http://www.w3.org/2000/svg" xmlns:xlink="http://www.w3.org/1999/xlink" x="0px" y="0px"
	 viewBox="0 0 71.2 71.2" enable-background="new 0 0 71.2 71.2" xml:space="preserve">
<g id="UMrDu4.tif">
	<g>
		<path d="M35.6,0c8.9,0,17.8,0.1,26.8-0.1c5.2-0.1,8.9,3.8,8.8,8.8c-0.1,17.8,0,35.7,0,53.5c0,5.6-3.4,8.9-9,8.9
			c-17.8,0-35.6,0-53.3,0c-5.4,0-8.8-3.4-8.8-8.7C0,44.5,0,26.6,0,8.8c0-4.5,2.1-7.4,5.9-8.5c1-0.3,2-0.3,3-0.3
			C17.8,0,26.7,0,35.6,0z M14.2,30.3c-2,0-3.8,0-5.8,0c0,0.6-0.1,1.1-0.1,1.6c0,9.1,0,18.3,0,27.4c0,2.6,0.9,3.5,3.6,3.5
			c15.8,0,31.6,0,47.4,0c2.6,0,3.5-1,3.5-3.6c0-9.1,0-18.3,0-27.4c0-0.5-0.1-1-0.1-1.6c-2,0-3.8,0-5.8,0c1.2,6.7,0.4,12.9-3.8,18.3
			c-4.2,5.4-9.6,8.5-16.5,8.8c-6.1,0.3-11.5-1.5-16.1-5.8C14.4,45.8,12.7,38.6,14.2,30.3z M49.2,35.8c0.4-6.6-5.4-13.5-12-13.9
			c-8.4-0.6-14.8,4.8-15.3,13.2c-0.4,7.6,5.8,13.4,12.2,14C43.2,49.9,49.4,42.3,49.2,35.8z M62.8,14.9
			C62.8,14.9,62.8,14.9,62.8,14.9c0-1.3,0-2.6,0-3.8c0-1.8-1.1-2.9-2.9-2.9c-2.6,0-5.1,0-7.7,0c-1.8,0-3,1.1-3,2.8
			c-0.1,2.7-0.1,5.3,0,8c0,1.6,1.2,2.8,2.8,2.9c2.7,0.1,5.3,0.1,8,0c1.6,0,2.7-1.3,2.7-2.9C62.9,17.5,62.8,16.2,62.8,14.9z"/>
	</g>
</g>
</svg>
