<?xml version="1.0" encoding="utf-8"?>
<!-- Generator: Adobe Illustrator 18.0.0, SVG Export Plug-In . SVG Version: 6.00 Build 0)  -->
<!DOCTYPE svg PUBLIC "-//W3C//DTD SVG 1.1//EN" "http://www.w3.org/Graphics/SVG/1.1/DTD/svg11.dtd">
<svg version="1.1" id="Layer_1" xmlns="http://www.w3.org/2000/svg" xmlns:xlink="http://www.w3.org/1999/xlink" x="0px" y="0px"
	 viewBox="0 0 216 144" enable-background="new 0 0 216 144" xml:space="preserve">
<g>
	<path id="LinkedIn_1_" fill="#FFFFFF" d="M179.8,85.6v53h-30.7V89.2c0-12.3-4.4-20.8-15.6-20.8c-8.5,0-13.6,5.7-15.8,11.3
		c-0.8,2-1,4.7-1,7.5v51.6H86c0,0,0.4-83.7,0-92.4h30.7v13.1l-0.2,0.2h0.2v-0.2c4-6.3,11.3-15.4,27.7-15.4
		C164.6,44.1,179.8,57.2,179.8,85.6z M53.8,1.6c-10.5,0-17.4,6.9-17.4,16c0,8.9,6.7,16,17,16h0.2c10.7,0,17.4-7.1,17.4-16
		C70.8,8.5,64.3,1.6,53.8,1.6z M38.2,138.5H69V46.1H38.2V138.5z"/>
</g>
</svg>
