<?xml version="1.0" encoding="utf-8"?>
<!-- Generator: Adobe Illustrator 18.0.0, SVG Export Plug-In . SVG Version: 6.00 Build 0)  -->
<!DOCTYPE svg PUBLIC "-//W3C//DTD SVG 1.1//EN" "http://www.w3.org/Graphics/SVG/1.1/DTD/svg11.dtd">
<svg version="1.1" id="Layer_1" xmlns="http://www.w3.org/2000/svg" xmlns:xlink="http://www.w3.org/1999/xlink" x="0px" y="0px"
	 viewBox="0 0 71.2 71.2" enable-background="new 0 0 71.2 71.2" xml:space="preserve">
<g>
	<path id="LinkedIn_1_" fill="#010101" d="M71.1,42.3v26.2H55.9V44.1c0-6.1-2.2-10.3-7.7-10.3c-4.2,0-6.7,2.8-7.8,5.6
		c-0.4,1-0.5,2.3-0.5,3.7v25.5H24.7c0,0,0.2-41.4,0-45.7h15.2v6.5c0,0-0.1,0.1-0.1,0.1h0.1v-0.1c2-3.1,5.6-7.6,13.7-7.6
		C63.6,21.8,71.1,28.3,71.1,42.3z M8.8,0.8c-5.2,0-8.6,3.4-8.6,7.9c0,4.4,3.3,7.9,8.4,7.9h0.1c5.3,0,8.6-3.5,8.6-7.9
		C17.2,4.2,14,0.8,8.8,0.8z M1.1,68.5h15.2V22.8H1.1V68.5z"/>
</g>
</svg>
