<?xml version="1.0" encoding="utf-8"?>
<!-- Generator: Adobe Illustrator 18.0.0, SVG Export Plug-In . SVG Version: 6.00 Build 0)  -->
<!DOCTYPE svg PUBLIC "-//W3C//DTD SVG 1.1//EN" "http://www.w3.org/Graphics/SVG/1.1/DTD/svg11.dtd">
<svg version="1.1" id="Layer_1" xmlns="http://www.w3.org/2000/svg" xmlns:xlink="http://www.w3.org/1999/xlink" x="0px" y="0px"
	 viewBox="0 0 216 50.8" enable-background="new 0 0 216 50.8" xml:space="preserve">
<g>
	<path d="M10.7,31.9H13V16.1h-2.3v-2.3h7v2.3h-2.3v15.7h2.3v2.3h-7V31.9z"/>
	<path d="M41.6,13.8h3.2v2.3h-2.5v15.7h2.5v2.3h-7v-2.3h2.1V20.5c0-0.2,0-0.3,0-0.5c0-0.2,0-0.3,0-0.5c-0.2,0.2-0.3,0.4-0.5,0.7
		c-0.2,0.2-0.3,0.5-0.5,0.7c-1.2,1.6-2.4,3.3-3.6,4.8c-1.3,1.6-2.5,3.2-3.7,4.8L24,20.4l-0.5-0.8c0,0.2,0,0.3,0,0.5
		c0,0.2,0,0.3,0,0.5v11.3h2.1v2.3h-7v-2.3h2.5V16.1h-2.5v-2.3h3.2c1.7,2.1,3.3,4.3,4.9,6.4c1.6,2.1,3.3,4.3,4.9,6.4
		c1.7-2.1,3.3-4.3,5-6.4C38.3,18.1,40,16,41.6,13.8z"/>
	<path d="M45.7,31.9h2.4c1.3-3.2,2.7-6.3,4-9.5s2.7-6.3,4-9.5c1.3,3.2,2.7,6.3,4,9.5c1.3,3.1,2.7,6.3,4,9.5h2.4v2.3h-6.4v-2.3h1.6
		c-0.4-1-0.8-1.9-1.2-2.9c-0.4-0.9-0.8-1.9-1.2-2.9H53l-2.4,5.7h1.7v2.3h-6.4V31.9z M56.4,19.2l-0.3-1c0,0,0,0.1-0.1,0.2
		c0,0.1,0,0.2-0.1,0.3c0,0.1-0.1,0.3-0.1,0.4c-0.3,0.6-0.5,1.1-0.7,1.7c-0.2,0.5-0.4,1-0.6,1.5c-0.2,0.5-0.4,1-0.6,1.4h4.4
		L56.4,19.2z"/>
	<path d="M67.4,31.9h2.5V16.1h-2.5v-2.3h3.4l14,15.2l0.6,0.8l-0.1-0.9V16.1h-2.1v-2.3h7v2.3h-2.5v18.9L72.8,19.3l-0.6-0.8l0.1,0.9
		v12.4h2.1v2.3h-7V31.9z"/>
	<path d="M114.2,25.5V33c-0.8,0.4-1.6,0.8-2.5,1.1s-1.8,0.4-2.8,0.4c-1.4,0-2.8-0.3-4-0.8s-2.4-1.3-3.3-2.2c-0.9-0.9-1.7-2-2.2-3.3
		c-0.5-1.3-0.8-2.6-0.8-4c0-1.4,0.3-2.8,0.8-4c0.5-1.3,1.3-2.4,2.2-3.3c0.9-0.9,2-1.7,3.3-2.2c1.3-0.6,2.6-0.8,4-0.8
		c1,0,1.9,0.1,2.8,0.4c0.9,0.3,1.7,0.6,2.5,1.1l-1.3,1.9c-0.6-0.3-1.2-0.6-1.9-0.8c-0.7-0.2-1.4-0.3-2.1-0.3c-1.1,0-2.1,0.2-3.1,0.6
		s-1.8,1-2.5,1.8c-0.7,0.7-1.3,1.6-1.7,2.6c-0.4,1-0.6,2-0.6,3.1s0.2,2.1,0.6,3.1c0.4,1,1,1.8,1.7,2.6c0.7,0.7,1.6,1.3,2.5,1.7
		c1,0.4,2,0.6,3.1,0.6c1,0,2-0.2,2.9-0.5v-3.8h-3v-2.3H114.2z"/>
	<path d="M128.4,13.8h7v2.3h-2.3v15.7h2.3v2.3h-7v-2.3h2.3v-6.8h-11v6.8h2.3v2.3h-7v-2.3h2.3V16.1h-2.3v-2.3h7v2.3h-2.3v6.6h11v-6.6
		h-2.3V13.8z"/>
	<path d="M136.3,31.9h2.4c1.3-3.2,2.7-6.3,4-9.5s2.7-6.3,4-9.5c1.3,3.2,2.7,6.3,4,9.5s2.7,6.3,4,9.5h2.4v2.3h-6.4v-2.3h1.6
		c-0.4-1-0.8-1.9-1.2-2.9s-0.8-1.9-1.2-2.9h-6.4l-2.4,5.7h1.7v2.3h-6.4V31.9z M147,19.2l-0.3-1c0,0,0,0.1-0.1,0.2
		c0,0.1,0,0.2-0.1,0.3c0,0.1-0.1,0.3-0.1,0.4c-0.3,0.6-0.5,1.1-0.7,1.7c-0.2,0.5-0.4,1-0.6,1.5c-0.2,0.5-0.4,1-0.6,1.4h4.4L147,19.2
		z"/>
	<path d="M158,31.8h1.4V16.1H158v-2.3h6.1c1.4,0,2.7,0.2,3.9,0.7s2.3,1.2,3.2,2c0.9,0.9,1.7,2,2.2,3.2s0.8,2.7,0.8,4.2
		c0,1.1-0.2,2.3-0.6,3.5c-0.4,1.2-1,2.3-1.9,3.3c-0.9,1-2,1.8-3.5,2.4s-3.2,0.9-5.2,0.9H158V31.8z M161.8,16.1v15.7h2
		c1.1,0,2.2-0.2,3.2-0.6c1-0.4,1.8-0.9,2.6-1.6c0.7-0.7,1.3-1.5,1.7-2.5s0.6-2,0.6-3.2c0-1.2-0.2-2.3-0.6-3.2c-0.4-1-1-1.8-1.7-2.5
		c-0.7-0.7-1.6-1.2-2.6-1.6c-1-0.4-2-0.5-3.2-0.5H161.8z"/>
	<path d="M175.2,31.9h1.6V16.1h-1.6v-2.3h14.1v4.5H187v-2.2h-7.8v6.6h9v2.3h-9v6.8h8.2v-2.2h2.3v4.5h-14.5V31.9z"/>
	<path d="M190.6,31.9h1.3V16.1h-1.3v-2.3h6.1c0.7,0,1.4,0.1,2.2,0.3c0.8,0.2,1.6,0.5,2.2,1s1.3,1,1.7,1.7s0.7,1.5,0.7,2.5
		c0,1.5-0.4,2.7-1.1,3.6c-0.7,1-1.8,1.6-3.2,1.9l3.2,6.9h2.7v2.3H201l-4.3-9h-1.2h-1.2v6.8h3.3v2.3h-7V31.9z M194.3,22.7h2.5
		c0.9,0,1.6-0.1,2.1-0.3c0.6-0.2,1-0.5,1.3-0.8s0.6-0.7,0.7-1.1c0.1-0.4,0.2-0.8,0.2-1.2c0-0.4-0.1-0.8-0.3-1.2s-0.5-0.7-0.9-1
		c-0.4-0.3-0.8-0.5-1.4-0.7c-0.5-0.2-1.1-0.3-1.7-0.3h-2.6V22.7z"/>
</g>
</svg>
