<?xml version="1.0" encoding="utf-8"?>
<!-- Generator: Adobe Illustrator 18.1.0, SVG Export Plug-In . SVG Version: 6.00 Build 0)  -->
<!DOCTYPE svg PUBLIC "-//W3C//DTD SVG 1.1//EN" "http://www.w3.org/Graphics/SVG/1.1/DTD/svg11.dtd">
<svg version="1.1" id="Layer_1" xmlns="http://www.w3.org/2000/svg" xmlns:xlink="http://www.w3.org/1999/xlink" x="0px" y="0px"
	 viewBox="0 0 360 144" enable-background="new 0 0 360 144" xml:space="preserve">
<g>
	<path fill="#3C3E6D" d="M71.8,75.3c0,0,10.7-5.8,12.6-7.6c1.9-1.9,5.8-3.5,6-1.9c0.2,1.8-4.3,6.2-5.1,8.4c0,0,6.6-9.9,12.5-9.3
		c5.8,0.6-2.5,10.5-2.5,10.5s10.1-13.8,14.8-10.7c4.7,3.1-6.8,20.8-8.6,26.1c-1.8,5.3-1,6.4,2.5,0.8s5.3-7.8,5.3-7.8l-1,6
		c0,0-5.1,9-9.5,8.8c-4.7-0.2-5.3-6.8-0.6-15.6c4.7-8.8,6.4-12.8,6.8-14.4S90.3,82,88.1,98.7c0,0-4.9,1.8-5.3-3.1s9-25.3,10.5-26.9
		s-14.6,12.6-16,30c0,0-3.7,2.5-5.1-2.5C71,91.1,79,75.8,79,75.8l-8,3.5L71.8,75.3z"/>
	<path fill="#3C3E6D" d="M170.2,94.4c-1-5.6-7.6-11.3-19.8-9.1c-13.6,2.3-20.2,9.9-23.2,10.5c-2.9,0.4,5.4-23.4,13-30.6
		c0,0-6.2-2.7-8.2,2.1c0,0-9-6.8-16.9,5.4c-9,14-10.7,23.9-3.3,25.7c7.2,1.8,10.1-7.6,10.1-7.6S118,102.3,127,99
		c9.3-3.5,12.6-9,22.8-10.7c9.9-1.8,14.8,7.6,15,9.1C165.2,99.1,171.2,100,170.2,94.4z M123.1,85.6c-1.8,4.9-7.2,9.5-8.6,10.1
		c0,0-3.7-8.2,8.6-25.5c0,0,3.9-4.7,8.2-1.9C131.3,68.5,124.9,81,123.1,85.6z"/>
	<path fill="#3C3E6D" d="M275.5,92.8l-6,3.1c-2.9,0.4,5.4-23.4,13-30.6c0,0-6.2-2.7-8.2,2.1c0,0-9-6.8-16.9,5.4
		c-9,14-10.7,23.9-3.3,25.7c7.2,1.8,10.1-7.6,10.1-7.6s-3.9,11.5,5.1,8.2C269.5,99.1,275.1,96.5,275.5,92.8z M265.4,85.8
		c-1.8,4.9-7.2,9.5-8.6,10.1c0,0-3.7-8.2,8.6-25.5c0,0,3.9-4.7,8.2-1.9C273.4,68.9,266.9,81.2,265.4,85.8z"/>
	<path fill="#3C3E6D" d="M134.4,72.4c12.8-11.1,16.7-7.8,16.7-7.8l-3.9,7.4c0,0,5.4-4.1,9.5-6s9.5-2.9,5.3,7.2
		c-4.5,10.3-7.4,22.4-7.4,22.4c1.4-0.6,5.8-4.9,5.8-4.9l-0.4,1.9c-1,1.4-7.2,9.1-9.7,5.1c-1.8-2.9,2.5-16.5,5.3-22.8
		c3.3-7.6,1.2-6,1.2-6c-14.2,9.1-16.9,28.8-16.9,28.8c-1.6,0-4.1,0.4-4.1-1.8c-0.2-8.8,9-27.6,9-27.6c-1.9,0.2-12.8,8.4-12.8,8.4
		L134.4,72.4z"/>
	<path fill="#3C3E6D" d="M232.3,32.5c0,0-5.4-12.1-21.8-7.6c-17.1,4.7-32.1,28.8-34.6,50.4c-2.5,20.6,17.3,25.1,34.1,7.2
		c0,0,3.5-9.1,9-12.6c5.6-3.5,9.1,2.1,9.3,3.1c0.2,0.8-2.1-0.2-2.9,0.2c-1,0.4-4.3,5.6-8,13.8c-3.9,8.6-6.6,13-7.6,15.4
		c-0.8,1.8-9.1,25.1-27.4,25.1c-18.7,0-16.2-13.6-16.2-13.6s2.1-13.6,22.2-12.5c19.7,1.2,56.4,6.4,61.5,2.5c5.1-3.9,4.3-1.4,3.7-1.2
		c-0.4,0.2-4.5,8.4-13,9.7c-12.8,2.1-51-9.1-63.6-4.3c-6.4,2.3-10.3,12.6-1.6,15.2c12.5,3.7,24.7-10.3,29.2-23.4
		c0,0,3.3-9.1,3.9-12.1c0,0-15.4,12.8-27.4,8.4C169,91.7,164.9,78.7,167.3,69c2.3-9.7,12.6-38.9,36.6-48.1c0,0,27.6-11.1,32.3,12.6
		c0,0,2.9,10.9-8.6,19.3c-11.3,8.6-26.1-2.3-18.1-13.8c7.4-10.5,19.3-7.8,27.8-4.7c9.1,3.3,40.3,18.1,52.5,13.8
		c12.3-4.3,9.1-15.8,2.5-16.7c-5.3-0.8-8.2,2.3-9.1,3.5c0,0.2-0.2,0-0.2-0.2c0.4-2.7,5.3-13.6,17.3-8.6c0,0,13.6,7,3.9,21
		c-9.3,13.6-36.6,1.6-39.5,0.8c-3.1-1-31.3-13.4-39.9-12.8c-7.8,0.6-13.6,11.3-6.8,15.2C224.9,54.7,235.4,43.4,232.3,32.5z"/>
	<path fill="#3C3E6D" d="M61.5,72c0,0-18.9-6.4-13.8-34.2c5.4-30.2,26.1-32.5,31.7-30c5.4,2.3,11.3,9,10.3,26.3
		c-1.2,21.4-18.5,56.6-47.9,68.7c-29.4,12-38.3-12.3-36.6-26.1C7,63.1,18.1,40.9,40.4,35.2S66.5,55,55.6,70.6S23.1,94.8,19.4,82
		s13-29.4,20-26.5s6.8,11.3,1.8,14.6c-5.8,3.7-7.8,1.2-7.8,1.2S42,67.2,41,59.8c-1.2-8.4-19.1,10.3-18.5,20s14.8,8.6,30.4-11.7
		s0.8-41.4-21-24.1s-31,49-11.7,58s52.9-26.7,58.4-54.5S78,9,72.2,10S43.4,39.5,61.5,72z"/>
	<path fill="#3C3E6D" d="M237.6,69.9c0,0,42.4-35.4,22.2-40.1c-14.2-3.3-33.1,56.4-38.7,67.5c-0.6,1.2,1,2.1,5.1,0.4
		c0,0,8.8-24.3,16.5-27.2c7.2-2.7-0.2,9.9-1.8,13.6c-1.4,3.3-5.6,12.5-1,14.6c4.5,2.1,14.8-4.5,14.8-4.5l0.6-4.1
		c0,0-4.9,4.3-9.5,3.7c-4.5-0.6,1.2-11.1,4.7-18.3c1.2-2.1,7.6-16.2-12.1-6.4c0,0,16.2-40.9,22.2-37.2c6.8,4.1-20,33.3-22.8,34.6
		L237.6,69.9z"/>
	<path fill="#3C3E6D" d="M327.9,30c-8.4-2.3-19.5,17.7-28.2,36.6c-1.2-0.8-9.5-5.8-16.9,5.6c-9.1,14-10.7,24.3-3.3,25.9
		c7.4,1.8,10.3-7.6,10.3-7.6s-3.3,10.1,5.6,6.8c0,0,5.1-1.6,5.4-4.9l-6,3.1c-2.5,0.4,3.3-17.3,9.9-26.9
		C306.8,67,347.3,35.4,327.9,30z M328.2,32.1c5.8,3.7-14,24.9-21.8,31.9C311.7,53.5,323.8,29.2,328.2,32.1z M290.3,85.6
		c-1.8,4.9-7.4,9.7-8.6,10.3c0,0-3.7-8.2,8.6-25.7c0,0,4.1-4.7,8.2-1.9C298.5,68.3,292,80.8,290.3,85.6z"/>
	<path fill="#3C3E6D" d="M308.2,81c0,0,8.2,1.2,10.9-7.6c2.7-8.8-2.5-5.6-2.5-5.6s-9.5,12.8-10.7,21c-1,8.4,5.3,7.8,9.7,4.3
		c4.5-3.5,14.6-17.7,16-22.8c0,0-1.4-5.1,3.5-6c4.7-1,0.2,6.4,0.2,6.4s11.9-3.1,11.9,0.2c-0.2,3.1-15.6,27-8,27.4
		c7.6,0.2,12.1-10.1,11.9-17.1c0,0,2.3-1.2,1.9,6.8c-0.2,8-8.6,11.7-13.2,11.9c-4.7,0.2-14.4-2.5,1.2-25.9c0,0,3.1-2.5-7.4-0.8
		c0,0-7.8,18.1-19.7,23.4c-11.9,5.3-15.4-0.4-14.8-6.4s6.4-23.7,18.5-25.9c12.1-2.1,7.8,10.5,6.8,11.9c-1,1.6-6.8,9.5-17.1,7
		L308.2,81z"/>
</g>
<g enable-background="new    ">
	<path fill="#E3A24A" d="M68.9,121.1v13.1h-3v-13.1H68.9z"/>
	<path fill="#E3A24A" d="M73.4,127.8c0-1.2,0-2.2-0.1-3h2.5l0.1,1.3H76c0.4-0.6,1.2-1.5,2.9-1.5c1.2,0,2.2,0.6,2.6,1.6h0
		c0.4-0.5,0.8-0.9,1.2-1.1c0.5-0.3,1.1-0.5,1.8-0.5c1.8,0,3.2,1.3,3.2,4.1v5.6h-2.9v-5.2c0-1.4-0.4-2.2-1.4-2.2
		c-0.7,0-1.2,0.5-1.4,1c-0.1,0.2-0.1,0.5-0.1,0.8v5.6h-2.9v-5.3c0-1.2-0.4-2-1.4-2c-0.8,0-1.2,0.6-1.4,1.1c-0.1,0.2-0.1,0.5-0.1,0.7
		v5.5h-2.9V127.8z"/>
	<path fill="#E3A24A" d="M97.5,134.2l-0.2-1h-0.1c-0.6,0.8-1.6,1.2-2.7,1.2c-1.9,0-3.1-1.4-3.1-2.9c0-2.5,2.2-3.7,5.6-3.6v-0.1
		c0-0.5-0.3-1.2-1.7-1.2c-1,0-2,0.3-2.6,0.7l-0.5-1.9c0.7-0.4,2-0.8,3.7-0.8c3.2,0,4.2,1.9,4.2,4.1v3.3c0,0.9,0,1.8,0.1,2.3H97.5z
		 M97.1,129.7c-1.6,0-2.8,0.4-2.8,1.5c0,0.8,0.5,1.1,1.2,1.1c0.7,0,1.3-0.5,1.5-1.1c0-0.2,0.1-0.3,0.1-0.5V129.7z"/>
	<path fill="#E3A24A" d="M104.3,127.8c0-1.2,0-2.2-0.1-3h2.6l0.1,1.3h0.1c0.4-0.6,1.4-1.5,2.9-1.5c1.9,0,3.4,1.3,3.4,4.1v5.6h-3V129
		c0-1.2-0.4-2.1-1.5-2.1c-0.8,0-1.3,0.6-1.5,1.1c-0.1,0.2-0.1,0.5-0.1,0.7v5.5h-3V127.8z"/>
	<path fill="#E3A24A" d="M126.7,124.7c0,0.6-0.1,1.4-0.1,2.8v5.3c0,1.8-0.4,3.3-1.4,4.3c-1.1,0.9-2.5,1.2-3.9,1.2
		c-1.2,0-2.6-0.3-3.4-0.7l0.6-2.2c0.6,0.3,1.7,0.7,2.8,0.7c1.4,0,2.5-0.8,2.5-2.5v-0.6h0c-0.6,0.8-1.5,1.2-2.6,1.2
		c-2.4,0-4-1.9-4-4.6c0-3.1,2-5,4.3-5c1.3,0,2.1,0.6,2.6,1.3h0l0.1-1.1H126.7z M123.7,128.6c0-0.2,0-0.4-0.1-0.5
		c-0.2-0.8-0.8-1.3-1.6-1.3c-1.1,0-1.9,1-1.9,2.7c0,1.4,0.7,2.5,1.9,2.5c0.8,0,1.4-0.5,1.6-1.2c0.1-0.2,0.1-0.5,0.1-0.8V128.6z"/>
	<path fill="#E3A24A" d="M131,120.4h3v5.4h0c0.3-0.4,0.7-0.7,1.2-1c0.4-0.2,1-0.4,1.5-0.4c1.9,0,3.3,1.3,3.3,4.2v5.6h-3V129
		c0-1.2-0.4-2.1-1.5-2.1c-0.8,0-1.3,0.5-1.5,1c-0.1,0.2-0.1,0.4-0.1,0.7v5.6h-3V120.4z"/>
	<path fill="#E3A24A" d="M149.7,134.2l-0.2-1h-0.1c-0.6,0.8-1.6,1.2-2.7,1.2c-1.9,0-3.1-1.4-3.1-2.9c0-2.5,2.2-3.7,5.6-3.6v-0.1
		c0-0.5-0.3-1.2-1.7-1.2c-1,0-2,0.3-2.6,0.7l-0.5-1.9c0.7-0.4,2-0.8,3.7-0.8c3.2,0,4.2,1.9,4.2,4.1v3.3c0,0.9,0,1.8,0.1,2.3H149.7z
		 M149.4,129.7c-1.6,0-2.8,0.4-2.8,1.5c0,0.8,0.5,1.1,1.2,1.1c0.7,0,1.3-0.5,1.5-1.1c0-0.2,0.1-0.3,0.1-0.5V129.7z"/>
	<path fill="#E3A24A" d="M165.8,120.4v11c0,1.1,0,2.2,0.1,2.8h-2.6l-0.1-1.4h0c-0.6,1.1-1.8,1.6-3,1.6c-2.3,0-4.1-1.9-4.1-4.9
		c0-3.2,2-5.1,4.3-5.1c1.2,0,2.1,0.4,2.5,1.1h0v-5.2H165.8z M162.8,128.8c0-0.2,0-0.4,0-0.5c-0.2-0.8-0.8-1.5-1.7-1.5
		c-1.3,0-2,1.2-2,2.7c0,1.6,0.8,2.6,2,2.6c0.9,0,1.5-0.6,1.7-1.4c0.1-0.2,0.1-0.4,0.1-0.7V128.8z"/>
	<path fill="#E3A24A" d="M179.5,135.6c-1.2,0.5-2.2,0.7-3.6,0.7c-3.2,0-6.1-2.3-6.1-6.1c0-4,2.9-7.4,7.3-7.4c3.4,0,5.9,2.4,5.9,5.6
		c0,2.8-1.6,4.6-3.7,4.6c-0.9,0-1.6-0.5-1.7-1.5h0c-0.6,1-1.5,1.5-2.5,1.5c-1.3,0-2.2-0.9-2.2-2.5c0-2.4,1.8-4.5,4.6-4.5
		c0.9,0,1.8,0.2,2.3,0.5l-0.6,3.6c-0.2,1.1-0.1,1.7,0.5,1.7c0.8,0,1.9-1.1,1.9-3.3c0-2.5-1.6-4.5-4.6-4.5c-3,0-5.6,2.3-5.6,6.1
		c0,3.2,2.1,5.1,5,5.1c1,0,2-0.2,2.8-0.6L179.5,135.6z M177.8,127.5c-0.2,0-0.4-0.1-0.6-0.1c-1.3,0-2.3,1.3-2.3,2.8
		c0,0.7,0.3,1.2,1,1.2c0.7,0,1.5-0.9,1.7-2L177.8,127.5z"/>
	<path fill="#E3A24A" d="M196.1,124.7c0,0.6-0.1,1.4-0.1,2.8v5.3c0,1.8-0.4,3.3-1.4,4.3c-1.1,0.9-2.5,1.2-3.9,1.2
		c-1.2,0-2.6-0.3-3.4-0.7l0.6-2.2c0.6,0.3,1.7,0.7,2.8,0.7c1.4,0,2.5-0.8,2.5-2.5v-0.6h0c-0.6,0.8-1.5,1.2-2.6,1.2
		c-2.4,0-4-1.9-4-4.6c0-3.1,2-5,4.3-5c1.3,0,2.1,0.6,2.6,1.3h0l0.1-1.1H196.1z M193.1,128.6c0-0.2,0-0.4-0.1-0.5
		c-0.2-0.8-0.8-1.3-1.6-1.3c-1.1,0-1.9,1-1.9,2.7c0,1.4,0.7,2.5,1.9,2.5c0.8,0,1.4-0.5,1.6-1.2c0.1-0.2,0.1-0.5,0.1-0.8V128.6z"/>
	<path fill="#E3A24A" d="M200.3,127.8c0-1.2,0-2.2-0.1-3h2.5l0.1,1.3h0.1c0.4-0.6,1.2-1.5,2.9-1.5c1.2,0,2.2,0.6,2.6,1.6h0
		c0.3-0.5,0.8-0.9,1.2-1.1c0.5-0.3,1.1-0.5,1.8-0.5c1.8,0,3.2,1.3,3.2,4.1v5.6h-2.9v-5.2c0-1.4-0.4-2.2-1.4-2.2
		c-0.7,0-1.2,0.5-1.4,1c-0.1,0.2-0.1,0.5-0.1,0.8v5.6h-2.9v-5.3c0-1.2-0.4-2-1.4-2c-0.8,0-1.2,0.6-1.4,1.1c-0.1,0.2-0.1,0.5-0.1,0.7
		v5.5h-2.9V127.8z"/>
	<path fill="#E3A24A" d="M224.4,134.2l-0.2-1h-0.1c-0.6,0.8-1.6,1.2-2.7,1.2c-1.9,0-3.1-1.4-3.1-2.9c0-2.5,2.2-3.7,5.6-3.6v-0.1
		c0-0.5-0.3-1.2-1.7-1.2c-1,0-2,0.3-2.6,0.7l-0.5-1.9c0.7-0.4,2-0.8,3.7-0.8c3.2,0,4.2,1.9,4.2,4.1v3.3c0,0.9,0,1.8,0.1,2.3H224.4z
		 M224.1,129.7c-1.6,0-2.8,0.4-2.8,1.5c0,0.8,0.5,1.1,1.2,1.1c0.7,0,1.3-0.5,1.5-1.1c0-0.2,0.1-0.3,0.1-0.5V129.7z"/>
	<path fill="#E3A24A" d="M234.3,122.1c0,0.8-0.6,1.5-1.6,1.5c-0.9,0-1.6-0.7-1.5-1.5c0-0.9,0.6-1.5,1.6-1.5
		C233.7,120.6,234.3,121.2,234.3,122.1z M231.2,134.2v-9.5h3v9.5H231.2z"/>
	<path fill="#E3A24A" d="M238.5,120.4h3v13.8h-3V120.4z"/>
	<path fill="#E3A24A" d="M245.4,132.7c0-1,0.7-1.8,1.8-1.8s1.7,0.7,1.7,1.8c0,1-0.7,1.8-1.8,1.8
		C246.2,134.5,245.4,133.7,245.4,132.7z"/>
	<path fill="#E3A24A" d="M259.8,134c-0.5,0.2-1.5,0.4-2.6,0.4c-3.1,0-5-1.9-5-4.9c0-2.8,1.9-5.1,5.4-5.1c0.8,0,1.6,0.1,2.3,0.4
		l-0.5,2.2c-0.3-0.2-0.9-0.3-1.7-0.3c-1.6,0-2.6,1.1-2.5,2.7c0,1.8,1.2,2.7,2.6,2.7c0.7,0,1.2-0.1,1.7-0.3L259.8,134z"/>
	<path fill="#E3A24A" d="M272.6,129.4c0,3.5-2.5,5.1-5,5.1c-2.8,0-4.9-1.8-4.9-4.9c0-3.1,2-5,5.1-5
		C270.6,124.5,272.6,126.5,272.6,129.4z M265.7,129.5c0,1.6,0.7,2.9,1.9,2.9c1.1,0,1.9-1.1,1.9-2.9c0-1.4-0.5-2.9-1.9-2.9
		C266.2,126.6,265.7,128.1,265.7,129.5z"/>
	<path fill="#E3A24A" d="M276.3,127.8c0-1.2,0-2.2-0.1-3h2.5l0.1,1.3h0.1c0.4-0.6,1.2-1.5,2.9-1.5c1.2,0,2.2,0.6,2.6,1.6h0
		c0.3-0.5,0.8-0.9,1.2-1.1c0.5-0.3,1.1-0.5,1.8-0.5c1.8,0,3.2,1.3,3.2,4.1v5.6h-2.9v-5.2c0-1.4-0.4-2.2-1.4-2.2
		c-0.7,0-1.2,0.5-1.4,1c-0.1,0.2-0.1,0.5-0.1,0.8v5.6h-2.9v-5.3c0-1.2-0.4-2-1.4-2c-0.8,0-1.2,0.6-1.4,1.1c-0.1,0.2-0.1,0.5-0.1,0.7
		v5.5h-2.9V127.8z"/>
</g>
<text transform="matrix(1 0 0 1 64.6561 199.9088)" fill="#E3A24A" font-family="'MyriadPro-Bold'" font-size="19.4595">Imanghad@gmail.com</text>
<path fill="#3C3E6D" d="M196.4,122.2c0,0-5.8,5-13.1,5.3l-1.1-3.8c0,0,4.9-0.5,10.5-5.4L196.4,122.2z"/>
</svg>
