<?xml version="1.0" encoding="utf-8"?>
<!-- Generator: Adobe Illustrator 18.0.0, SVG Export Plug-In . SVG Version: 6.00 Build 0)  -->
<!DOCTYPE svg PUBLIC "-//W3C//DTD SVG 1.1//EN" "http://www.w3.org/Graphics/SVG/1.1/DTD/svg11.dtd">
<svg version="1.1" id="Layer_1" xmlns="http://www.w3.org/2000/svg" xmlns:xlink="http://www.w3.org/1999/xlink" x="0px" y="0px"
	 viewBox="19.7 71 178.7 74" enable-background="new 19.7 71 178.7 74" xml:space="preserve">
<g>
	<path fill="#3C3E6D" d="M53.8,110.5c0,0,5.5-3,6.5-3.9c1-1,3-1.8,3.1-1c0.1,0.9-2.2,3.2-2.6,4.3c0,0,3.4-5.1,6.4-4.8
		c3,0.3-1.3,5.4-1.3,5.4s5.2-7.1,7.6-5.5s-3.5,10.7-4.4,13.4s-0.5,3.3,1.3,0.4s2.7-4,2.7-4l-0.5,3.1c0,0-2.6,4.6-4.9,4.5
		c-2.4-0.1-2.7-3.5-0.3-8c2.4-4.5,3.3-6.6,3.5-7.4c0.2-0.8-7.6,6.9-8.7,15.5c0,0-2.5,0.9-2.7-1.6s4.6-13,5.4-13.8
		c0.8-0.8-7.5,6.5-8.2,15.4c0,0-1.9,1.3-2.6-1.3c-0.6-2.6,3.5-10.5,3.5-10.5l-4.1,1.8L53.8,110.5z"/>
	<path fill="#3C3E6D" d="M104.4,120.3c-0.5-2.9-3.9-5.8-10.2-4.7c-7,1.2-10.4,5.1-11.9,5.4c-1.5,0.2,2.8-12,6.7-15.7
		c0,0-3.2-1.4-4.2,1.1c0,0-4.6-3.5-8.7,2.8c-4.6,7.2-5.5,12.3-1.7,13.2c3.7,0.9,5.2-3.9,5.2-3.9s-2,5.9,2.6,4.2
		c4.8-1.8,6.5-4.6,11.7-5.5c5.1-0.9,7.6,3.9,7.7,4.7C101.8,122.7,104.9,123.2,104.4,120.3z M80.2,115.8c-0.9,2.5-3.7,4.9-4.4,5.2
		c0,0-1.9-4.2,4.4-13.1c0,0,2-2.4,4.2-1C84.4,107,81.1,113.4,80.2,115.8z"/>
	<path fill="#3C3E6D" d="M158.5,119.5l-3.1,1.6c-1.5,0.2,2.8-12,6.7-15.7c0,0-3.2-1.4-4.2,1.1c0,0-4.6-3.5-8.7,2.8
		c-4.6,7.2-5.5,12.3-1.7,13.2c3.7,0.9,5.2-3.9,5.2-3.9s-2,5.9,2.6,4.2C155.4,122.7,158.3,121.4,158.5,119.5z M153.3,115.9
		c-0.9,2.5-3.7,4.9-4.4,5.2c0,0-1.9-4.2,4.4-13.1c0,0,2-2.4,4.2-1C157.4,107.2,154.1,113.5,153.3,115.9z"/>
	<path fill="#3C3E6D" d="M86,109c6.6-5.7,8.6-4,8.6-4l-2,3.8c0,0,2.8-2.1,4.9-3.1s4.9-1.5,2.7,3.7c-2.3,5.3-3.8,11.5-3.8,11.5
		c0.7-0.3,3-2.5,3-2.5l-0.2,1c-0.5,0.7-3.7,4.7-5,2.6c-0.9-1.5,1.3-8.5,2.7-11.7c1.7-3.9,0.6-3.1,0.6-3.1
		c-7.3,4.7-8.7,14.8-8.7,14.8c-0.8,0-2.1,0.2-2.1-0.9c-0.1-4.5,4.6-14.2,4.6-14.2c-1,0.1-6.6,4.3-6.6,4.3L86,109z"/>
	<path fill="#3C3E6D" d="M136.3,88.5c0,0-2.8-6.2-11.2-3.9c-8.8,2.4-16.5,14.8-17.8,25.9c-1.3,10.6,8.9,12.9,17.5,3.7
		c0,0,1.8-4.7,4.6-6.5c2.9-1.8,4.7,1.1,4.8,1.6c0.1,0.4-1.1-0.1-1.5,0.1c-0.5,0.2-2.2,2.9-4.1,7.1c-2,4.4-3.4,6.7-3.9,7.9
		c-0.4,0.9-4.7,12.9-14.1,12.9c-9.6,0-8.3-7-8.3-7s1.1-7,11.4-6.4c10.1,0.6,29,3.3,31.6,1.3s2.2-0.7,1.9-0.6c-0.2,0.1-2.3,4.3-6.7,5
		c-6.6,1.1-26.2-4.7-32.7-2.2c-3.3,1.2-5.3,6.5-0.8,7.8c6.4,1.9,12.7-5.3,15-12c0,0,1.7-4.7,2-6.2c0,0-7.9,6.6-14.1,4.3
		c-6.2-2.3-8.3-9-7.1-14c1.2-5,6.5-20,18.8-24.7c0,0,14.2-5.7,16.6,6.5c0,0,1.5,5.6-4.4,9.9c-5.8,4.4-13.4-1.2-9.3-7.1
		c3.8-5.4,9.9-4,14.3-2.4c4.7,1.7,20.7,9.3,27,7.1c6.3-2.2,4.7-8.1,1.3-8.6c-2.7-0.4-4.2,1.2-4.7,1.8c0,0.1-0.1,0-0.1-0.1
		c0.2-1.4,2.7-7,8.9-4.4c0,0,7,3.6,2,10.8c-4.8,7-18.8,0.8-20.3,0.4c-1.6-0.5-16.1-6.9-20.5-6.6c-4,0.3-7,5.8-3.5,7.8
		C132.5,99.9,137.9,94.1,136.3,88.5z"/>
	<path fill="#3C3E6D" d="M48.5,108.8c0,0-9.7-3.3-7.1-17.6c2.8-15.5,13.4-16.7,16.3-15.4c2.8,1.2,5.8,4.6,5.3,13.5
		c-0.6,11-9.5,29.1-24.6,35.3c-15.1,6.2-19.7-6.3-18.8-13.4c0.9-7,6.6-18.4,18.1-21.3s13.4,10.2,7.8,18.2s-16.7,12.4-18.6,5.8
		s6.7-15.1,10.3-13.6s3.5,5.8,0.9,7.5c-3,1.9-4,0.6-4,0.6s4.4-2.1,3.9-5.9c-0.6-4.3-9.8,5.3-9.5,10.3s7.6,4.4,15.6-6
		s0.4-21.3-10.8-12.4s-15.9,25.2-6,29.8s27.2-13.7,30-28S57,76.4,54,76.9S39.2,92.1,48.5,108.8z"/>
	<path fill="#3C3E6D" d="M139,107.7c0,0,21.8-18.2,11.4-20.6c-7.3-1.7-17,29-19.9,34.7c-0.3,0.6,0.5,1.1,2.6,0.2
		c0,0,4.5-12.5,8.5-14c3.7-1.4-0.1,5.1-0.9,7c-0.7,1.7-2.9,6.4-0.5,7.5c2.3,1.1,7.6-2.3,7.6-2.3l0.3-2.1c0,0-2.5,2.2-4.9,1.9
		c-2.3-0.3,0.6-5.7,2.4-9.4c0.6-1.1,3.9-8.3-6.2-3.3c0,0,8.3-21,11.4-19.1c3.5,2.1-10.3,17.1-11.7,17.8L139,107.7z"/>
	<path fill="#3C3E6D" d="M185.4,87.2c-4.3-1.2-10,9.1-14.5,18.8c-0.6-0.4-4.9-3-8.7,2.9c-4.7,7.2-5.5,12.5-1.7,13.3
		c3.8,0.9,5.3-3.9,5.3-3.9s-1.7,5.2,2.9,3.5c0,0,2.6-0.8,2.8-2.5l-3.1,1.6c-1.3,0.2,1.7-8.9,5.1-13.8
		C174.6,106.2,195.4,90,185.4,87.2z M185.6,88.3c3,1.9-7.2,12.8-11.2,16.4C177.1,99.3,183.3,86.8,185.6,88.3z M166.1,115.8
		c-0.9,2.5-3.8,5-4.4,5.3c0,0-1.9-4.2,4.4-13.2c0,0,2.1-2.4,4.2-1C170.3,106.9,167,113.3,166.1,115.8z"/>
	<path fill="#3C3E6D" d="M175.3,113.4c0,0,4.2,0.6,5.6-3.9c1.4-4.5-1.3-2.9-1.3-2.9s-4.9,6.6-5.5,10.8c-0.5,4.3,2.7,4,5,2.2
		c2.3-1.8,7.5-9.1,8.2-11.7c0,0-0.7-2.6,1.8-3.1c2.4-0.5,0.1,3.3,0.1,3.3s6.1-1.6,6.1,0.1c-0.1,1.6-8,13.9-4.1,14.1
		c3.9,0.1,6.2-5.2,6.1-8.8c0,0,1.2-0.6,1,3.5c-0.1,4.1-4.4,6-6.8,6.1s-7.4-1.3,0.6-13.3c0,0,1.6-1.3-3.8-0.4c0,0-4,9.3-10.1,12
		c-6.1,2.7-7.9-0.2-7.6-3.3c0.3-3.1,3.3-12.2,9.5-13.3s4,5.4,3.5,6.1c-0.5,0.8-3.5,4.9-8.8,3.6L175.3,113.4z"/>
</g>
<g>
	<path fill="#E3A24A" d="M46.3,138.5c0,0.9,0.7,1.3,1.5,1.3c0.6,0,1-0.1,1.3-0.2l0.2,0.8c-0.4,0.2-1,0.3-1.7,0.3
		c-1.6,0-2.5-1-2.5-2.5c0-1.3,0.8-2.6,2.4-2.6c1.6,0,2.1,1.3,2.1,2.4c0,0.2,0,0.4,0,0.5H46.3z M48.4,137.6c0-0.5-0.2-1.2-1-1.2
		c-0.8,0-1.1,0.7-1.1,1.2H48.4z"/>
	<path fill="#E3A24A" d="M51.6,137.2c0-0.6,0-1,0-1.4h1.1l0.1,0.7h0c0.2-0.4,0.7-0.8,1.5-0.8c0.6,0,1.1,0.4,1.3,0.9h0
		c0.2-0.3,0.4-0.5,0.6-0.6c0.3-0.2,0.6-0.3,1-0.3c0.8,0,1.6,0.5,1.6,2.1v2.9h-1.2v-2.7c0-0.8-0.3-1.3-0.9-1.3
		c-0.4,0-0.7,0.3-0.9,0.6c0,0.1-0.1,0.3-0.1,0.4v2.9h-1.2v-2.8c0-0.7-0.3-1.2-0.8-1.2c-0.5,0-0.8,0.4-0.9,0.7c0,0.1-0.1,0.3-0.1,0.4
		v2.9h-1.2V137.2z"/>
	<path fill="#E3A24A" d="M63.8,140.6l-0.1-0.5h0c-0.3,0.4-0.8,0.7-1.4,0.7c-1,0-1.5-0.7-1.5-1.4c0-1.2,1.1-1.8,2.9-1.8v-0.1
		c0-0.3-0.1-0.8-1-0.8c-0.5,0-1,0.1-1.3,0.4l-0.2-0.8c0.4-0.2,1-0.4,1.8-0.4c1.6,0,2,1,2,2v1.8c0,0.4,0,0.9,0.1,1.2H63.8z
		 M63.6,138.2c-0.9,0-1.7,0.2-1.7,0.9c0,0.5,0.3,0.7,0.7,0.7c0.5,0,0.8-0.3,1-0.7c0-0.1,0-0.2,0-0.3V138.2z"/>
	<path fill="#E3A24A" d="M67.1,137.2c0-0.6,0-1,0-1.4h1.1l0.1,0.7h0c0.2-0.4,0.7-0.8,1.5-0.8c0.8,0,1.7,0.5,1.7,2.1v2.9h-1.2v-2.7
		c0-0.7-0.3-1.2-0.9-1.2c-0.5,0-0.8,0.3-1,0.7c0,0.1,0,0.3,0,0.4v2.9h-1.2V137.2z"/>
	<path fill="#E3A24A" d="M78.3,135.7c0,0.3,0,0.7,0,1.4v2.8c0,1-0.2,1.7-0.7,2.2c-0.5,0.5-1.2,0.6-1.9,0.6c-0.6,0-1.3-0.1-1.7-0.4
		l0.3-0.9c0.3,0.2,0.8,0.4,1.4,0.4c0.8,0,1.4-0.4,1.4-1.5v-0.4h0c-0.3,0.4-0.8,0.7-1.4,0.7c-1.2,0-2.1-1-2.1-2.4
		c0-1.6,1-2.6,2.2-2.6c0.7,0,1.2,0.4,1.4,0.8h0l0-0.6H78.3z M77,137.7c0-0.1,0-0.2,0-0.3c-0.1-0.5-0.5-0.8-1-0.8
		c-0.7,0-1.2,0.6-1.2,1.6c0,0.8,0.4,1.5,1.2,1.5c0.5,0,0.9-0.3,1-0.7c0-0.1,0-0.3,0-0.4V137.7z"/>
	<path fill="#E3A24A" d="M80.6,133.5h1.2v2.9h0c0.2-0.2,0.3-0.4,0.6-0.6c0.2-0.1,0.5-0.2,0.8-0.2c0.8,0,1.7,0.5,1.7,2.1v2.9h-1.2
		v-2.7c0-0.7-0.3-1.2-0.9-1.2c-0.5,0-0.8,0.3-0.9,0.7c0,0.1,0,0.2,0,0.4v2.9h-1.2V133.5z"/>
	<path fill="#E3A24A" d="M90.1,140.6l-0.1-0.5h0c-0.3,0.4-0.8,0.7-1.4,0.7c-1,0-1.5-0.7-1.5-1.4c0-1.2,1.1-1.8,2.9-1.8v-0.1
		c0-0.3-0.1-0.8-1-0.8c-0.5,0-1,0.1-1.3,0.4l-0.2-0.8c0.4-0.2,1-0.4,1.8-0.4c1.6,0,2,1,2,2v1.8c0,0.4,0,0.9,0.1,1.2H90.1z
		 M89.9,138.2c-0.9,0-1.7,0.2-1.7,0.9c0,0.5,0.3,0.7,0.7,0.7c0.5,0,0.8-0.3,1-0.7c0-0.1,0-0.2,0-0.3V138.2z"/>
	<path fill="#E3A24A" d="M97.9,133.5v5.7c0,0.5,0,1,0,1.4h-1.1l0-0.8h0c-0.3,0.5-0.9,0.9-1.6,0.9c-1.2,0-2.1-1-2.1-2.5
		c0-1.6,1-2.6,2.2-2.6c0.7,0,1.1,0.3,1.4,0.6h0v-2.8H97.9z M96.7,137.8c0-0.1,0-0.2,0-0.3c-0.1-0.5-0.5-0.9-1.1-0.9
		c-0.8,0-1.2,0.7-1.2,1.6c0,0.9,0.4,1.5,1.2,1.5c0.5,0,0.9-0.3,1.1-0.9c0-0.1,0-0.2,0-0.4V137.8z"/>
	<path fill="#E3A24A" d="M101.1,138.5c0,0.9,0.7,1.3,1.5,1.3c0.6,0,1-0.1,1.3-0.2l0.2,0.8c-0.4,0.2-1,0.3-1.7,0.3
		c-1.6,0-2.5-1-2.5-2.5c0-1.3,0.8-2.6,2.4-2.6c1.6,0,2.1,1.3,2.1,2.4c0,0.2,0,0.4,0,0.5H101.1z M103.2,137.6c0-0.5-0.2-1.2-1-1.2
		c-0.8,0-1.1,0.7-1.1,1.2H103.2z"/>
	<path fill="#E3A24A" d="M106.4,137.3c0-0.7,0-1.1,0-1.6h1.1l0,0.9h0c0.2-0.7,0.8-1,1.3-1c0.1,0,0.2,0,0.3,0v1.2c-0.1,0-0.2,0-0.4,0
		c-0.6,0-1,0.4-1.1,0.9c0,0.1,0,0.2,0,0.4v2.5h-1.2V137.3z"/>
	<path fill="#E3A24A" d="M115.6,141.3c-0.6,0.3-1.1,0.4-1.8,0.4c-1.6,0-3.1-1.2-3.1-3.1c0-2,1.5-3.8,3.7-3.8c1.8,0,3,1.2,3,2.9
		c0,1.5-0.8,2.4-1.8,2.4c-0.4,0-0.8-0.2-0.8-0.8h0c-0.3,0.5-0.8,0.8-1.3,0.8c-0.6,0-1.1-0.5-1.1-1.3c0-1.2,0.9-2.3,2.4-2.3
		c0.4,0,0.9,0.1,1.1,0.2l-0.3,1.8c-0.1,0.7,0,1,0.3,1c0.5,0,1-0.6,1-1.7c0-1.4-0.8-2.4-2.4-2.4c-1.6,0-2.9,1.2-2.9,3.2
		c0,1.7,1.1,2.6,2.6,2.6c0.5,0,1.1-0.1,1.5-0.3L115.6,141.3z M114.9,137c-0.1,0-0.2-0.1-0.4-0.1c-0.8,0-1.4,0.7-1.4,1.6
		c0,0.4,0.2,0.7,0.6,0.7c0.5,0,0.9-0.6,1-1.2L114.9,137z"/>
	<path fill="#E3A24A" d="M123.9,135.7c0,0.3,0,0.7,0,1.4v2.8c0,1-0.2,1.7-0.7,2.2c-0.5,0.5-1.2,0.6-1.9,0.6c-0.6,0-1.3-0.1-1.7-0.4
		l0.3-0.9c0.3,0.2,0.8,0.4,1.4,0.4c0.8,0,1.4-0.4,1.4-1.5v-0.4h0c-0.3,0.4-0.8,0.7-1.4,0.7c-1.2,0-2.1-1-2.1-2.4
		c0-1.6,1-2.6,2.2-2.6c0.7,0,1.2,0.4,1.4,0.8h0l0-0.6H123.9z M122.7,137.7c0-0.1,0-0.2,0-0.3c-0.1-0.5-0.5-0.8-1-0.8
		c-0.7,0-1.2,0.6-1.2,1.6c0,0.8,0.4,1.5,1.2,1.5c0.5,0,0.9-0.3,1-0.7c0-0.1,0-0.3,0-0.4V137.7z"/>
	<path fill="#E3A24A" d="M126.2,137.2c0-0.6,0-1,0-1.4h1.1l0.1,0.7h0c0.2-0.4,0.7-0.8,1.5-0.8c0.6,0,1.1,0.4,1.3,0.9h0
		c0.2-0.3,0.4-0.5,0.6-0.6c0.3-0.2,0.6-0.3,1-0.3c0.8,0,1.6,0.5,1.6,2.1v2.9h-1.2v-2.7c0-0.8-0.3-1.3-0.9-1.3
		c-0.4,0-0.7,0.3-0.9,0.6c0,0.1-0.1,0.3-0.1,0.4v2.9h-1.2v-2.8c0-0.7-0.3-1.2-0.8-1.2c-0.5,0-0.8,0.4-0.9,0.7c0,0.1-0.1,0.3-0.1,0.4
		v2.9h-1.2V137.2z"/>
	<path fill="#E3A24A" d="M138.4,140.6l-0.1-0.5h0c-0.3,0.4-0.8,0.7-1.4,0.7c-1,0-1.5-0.7-1.5-1.4c0-1.2,1.1-1.8,2.9-1.8v-0.1
		c0-0.3-0.1-0.8-1-0.8c-0.5,0-1,0.1-1.3,0.4l-0.2-0.8c0.4-0.2,1-0.4,1.8-0.4c1.6,0,2,1,2,2v1.8c0,0.4,0,0.9,0.1,1.2H138.4z
		 M138.2,138.2c-0.9,0-1.7,0.2-1.7,0.9c0,0.5,0.3,0.7,0.7,0.7c0.5,0,0.8-0.3,1-0.7c0-0.1,0-0.2,0-0.3V138.2z"/>
	<path fill="#E3A24A" d="M143,134.4c0,0.4-0.3,0.7-0.7,0.7c-0.4,0-0.7-0.3-0.7-0.7c0-0.4,0.3-0.7,0.7-0.7
		C142.8,133.7,143,134,143,134.4z M141.7,140.6v-4.9h1.2v4.9H141.7z"/>
	<path fill="#E3A24A" d="M145.3,133.5h1.2v7.1h-1.2V133.5z"/>
	<path fill="#E3A24A" d="M148.6,139.9c0-0.5,0.3-0.8,0.8-0.8c0.4,0,0.8,0.3,0.8,0.8c0,0.5-0.3,0.8-0.8,0.8
		C148.9,140.7,148.6,140.4,148.6,139.9z"/>
	<path fill="#E3A24A" d="M155.7,140.4c-0.3,0.1-0.8,0.2-1.4,0.2c-1.5,0-2.5-1-2.5-2.5c0-1.5,1-2.6,2.7-2.6c0.4,0,0.9,0.1,1.2,0.2
		l-0.2,0.9c-0.2-0.1-0.5-0.2-0.9-0.2c-0.9,0-1.5,0.7-1.5,1.6c0,1,0.6,1.6,1.5,1.6c0.4,0,0.7-0.1,1-0.2L155.7,140.4z"/>
	<path fill="#E3A24A" d="M162.1,138.1c0,1.8-1.3,2.6-2.5,2.6c-1.4,0-2.4-1-2.4-2.5c0-1.6,1-2.6,2.5-2.6
		C161.2,135.6,162.1,136.6,162.1,138.1z M158.5,138.2c0,0.9,0.5,1.6,1.2,1.6c0.7,0,1.2-0.7,1.2-1.7c0-0.8-0.3-1.6-1.2-1.6
		C158.8,136.5,158.5,137.4,158.5,138.2z"/>
	<path fill="#E3A24A" d="M164.2,137.2c0-0.6,0-1,0-1.4h1.1l0.1,0.7h0c0.2-0.4,0.7-0.8,1.5-0.8c0.6,0,1.1,0.4,1.3,0.9h0
		c0.2-0.3,0.4-0.5,0.6-0.6c0.3-0.2,0.6-0.3,1-0.3c0.8,0,1.6,0.5,1.6,2.1v2.9h-1.2v-2.7c0-0.8-0.3-1.3-0.9-1.3
		c-0.4,0-0.7,0.3-0.9,0.6c0,0.1-0.1,0.3-0.1,0.4v2.9h-1.2v-2.8c0-0.7-0.3-1.2-0.8-1.2c-0.5,0-0.8,0.4-0.9,0.7c0,0.1-0.1,0.3-0.1,0.4
		v2.9h-1.2V137.2z"/>
</g>
<text transform="matrix(1 0 0 1 50.1029 203.5958)" fill="#E3A24A" font-family="'MyriadPro-Semibold'" font-size="10">emanghader@gmail.com</text>
<path fill="#3C3E6D" d="M117.7,134.8c0,0-3.5,2.7-7.3,2.5v-1.9c0,0,2.5-0.1,5.4-2.6L117.7,134.8z"/>
</svg>
