<?xml version="1.0" encoding="utf-8"?>
<!-- Generator: Adobe Illustrator 18.0.0, SVG Export Plug-In . SVG Version: 6.00 Build 0)  -->
<!DOCTYPE svg PUBLIC "-//W3C//DTD SVG 1.1//EN" "http://www.w3.org/Graphics/SVG/1.1/DTD/svg11.dtd">
<svg version="1.1" id="Layer_1" xmlns="http://www.w3.org/2000/svg" xmlns:xlink="http://www.w3.org/1999/xlink" x="0px" y="0px"
	 viewBox="0 0 216 61.8" enable-background="new 0 0 216 61.8" xml:space="preserve">
<g>
	<path d="M53.9,35.1c0,0,5.5-3,6.5-3.9c1-1,3-1.8,3.1-1c0.1,0.9-2.2,3.2-2.6,4.3c0,0,3.4-5.1,6.4-4.8c3,0.3-1.3,5.4-1.3,5.4
		s5.2-7.1,7.6-5.5c2.4,1.6-3.5,10.7-4.4,13.4s-0.5,3.3,1.3,0.4c1.8-2.9,2.7-4,2.7-4l-0.5,3.1c0,0-2.6,4.6-4.9,4.5
		c-2.4-0.1-2.7-3.5-0.3-8c2.4-4.5,3.3-6.6,3.5-7.4s-7.6,6.9-8.7,15.5c0,0-2.5,0.9-2.7-1.6s4.6-13,5.4-13.8s-7.5,6.5-8.2,15.4
		c0,0-1.9,1.3-2.6-1.3c-0.6-2.6,3.5-10.5,3.5-10.5l-4.1,1.8L53.9,35.1z"/>
	<path d="M104.5,44.9c-0.5-2.9-3.9-5.8-10.2-4.7c-7,1.2-10.4,5.1-11.9,5.4c-1.5,0.2,2.8-12,6.7-15.7c0,0-3.2-1.4-4.2,1.1
		c0,0-4.6-3.5-8.7,2.8c-4.6,7.2-5.5,12.3-1.7,13.2c3.7,0.9,5.2-3.9,5.2-3.9s-2,5.9,2.6,4.2c4.8-1.8,6.5-4.6,11.7-5.5
		c5.1-0.9,7.6,3.9,7.7,4.7C101.9,47.3,105,47.8,104.5,44.9z M80.3,40.4c-0.9,2.5-3.7,4.9-4.4,5.2c0,0-1.9-4.2,4.4-13.1
		c0,0,2-2.4,4.2-1C84.5,31.6,81.2,38,80.3,40.4z"/>
	<path d="M158.6,44.1l-3.1,1.6c-1.5,0.2,2.8-12,6.7-15.7c0,0-3.2-1.4-4.2,1.1c0,0-4.6-3.5-8.7,2.8c-4.6,7.2-5.5,12.3-1.7,13.2
		c3.7,0.9,5.2-3.9,5.2-3.9s-2,5.9,2.6,4.2C155.5,47.3,158.4,46,158.6,44.1z M153.4,40.5c-0.9,2.5-3.7,4.9-4.4,5.2
		c0,0-1.9-4.2,4.4-13.1c0,0,2-2.4,4.2-1C157.5,31.8,154.2,38.1,153.4,40.5z"/>
	<path d="M86.1,33.6c6.6-5.7,8.6-4,8.6-4l-2,3.8c0,0,2.8-2.1,4.9-3.1c2.1-1,4.9-1.5,2.7,3.7c-2.3,5.3-3.8,11.5-3.8,11.5
		c0.7-0.3,3-2.5,3-2.5l-0.2,1c-0.5,0.7-3.7,4.7-5,2.6c-0.9-1.5,1.3-8.5,2.7-11.7c1.7-3.9,0.6-3.1,0.6-3.1
		c-7.3,4.7-8.7,14.8-8.7,14.8c-0.8,0-2.1,0.2-2.1-0.9c-0.1-4.5,4.6-14.2,4.6-14.2c-1,0.1-6.6,4.3-6.6,4.3L86.1,33.6z"/>
	<path d="M136.4,13.1c0,0-2.8-6.2-11.2-3.9c-8.8,2.4-16.5,14.8-17.8,25.9c-1.3,10.6,8.9,12.9,17.5,3.7c0,0,1.8-4.7,4.6-6.5
		c2.9-1.8,4.7,1.1,4.8,1.6c0.1,0.4-1.1-0.1-1.5,0.1c-0.5,0.2-2.2,2.9-4.1,7.1c-2,4.4-3.4,6.7-3.9,7.9c-0.4,0.9-4.7,12.9-14.1,12.9
		c-9.6,0-8.3-7-8.3-7s1.1-7,11.4-6.4c10.1,0.6,29,3.3,31.6,1.3c2.6-2,2.2-0.7,1.9-0.6c-0.2,0.1-2.3,4.3-6.7,5
		c-6.6,1.1-26.2-4.7-32.7-2.2c-3.3,1.2-5.3,6.5-0.8,7.8c6.4,1.9,12.7-5.3,15-12c0,0,1.7-4.7,2-6.2c0,0-7.9,6.6-14.1,4.3
		c-6.2-2.3-8.3-9-7.1-14c1.2-5,6.5-20,18.8-24.7c0,0,14.2-5.7,16.6,6.5c0,0,1.5,5.6-4.4,9.9c-5.8,4.4-13.4-1.2-9.3-7.1
		c3.8-5.4,9.9-4,14.3-2.4c4.7,1.7,20.7,9.3,27,7.1c6.3-2.2,4.7-8.1,1.3-8.6c-2.7-0.4-4.2,1.2-4.7,1.8c0,0.1-0.1,0-0.1-0.1
		c0.2-1.4,2.7-7,8.9-4.4c0,0,7,3.6,2,10.8c-4.8,7-18.8,0.8-20.3,0.4c-1.6-0.5-16.1-6.9-20.5-6.6c-4,0.3-7,5.8-3.5,7.8
		C132.6,24.5,138,18.7,136.4,13.1z"/>
	<path d="M48.6,33.4c0,0-9.7-3.3-7.1-17.6C44.3,0.3,54.9-0.9,57.8,0.4c2.8,1.2,5.8,4.6,5.3,13.5c-0.6,11-9.5,29.1-24.6,35.3
		s-19.7-6.3-18.8-13.4c0.9-7,6.6-18.4,18.1-21.3s13.4,10.2,7.8,18.2S28.9,45.1,27,38.5s6.7-15.1,10.3-13.6c3.6,1.5,3.5,5.8,0.9,7.5
		c-3,1.9-4,0.6-4,0.6s4.4-2.1,3.9-5.9c-0.6-4.3-9.8,5.3-9.5,10.3s7.6,4.4,15.6-6S44.6,10.1,33.4,19s-15.9,25.2-6,29.8
		s27.2-13.7,30-28S57.1,1,54.1,1.5S39.3,16.7,48.6,33.4z"/>
	<path d="M139.1,32.3c0,0,21.8-18.2,11.4-20.6c-7.3-1.7-17,29-19.9,34.7c-0.3,0.6,0.5,1.1,2.6,0.2c0,0,4.5-12.5,8.5-14
		c3.7-1.4-0.1,5.1-0.9,7c-0.7,1.7-2.9,6.4-0.5,7.5c2.3,1.1,7.6-2.3,7.6-2.3l0.3-2.1c0,0-2.5,2.2-4.9,1.9c-2.3-0.3,0.6-5.7,2.4-9.4
		c0.6-1.1,3.9-8.3-6.2-3.3c0,0,8.3-21,11.4-19.1c3.5,2.1-10.3,17.1-11.7,17.8L139.1,32.3z"/>
	<path d="M185.5,11.8c-4.3-1.2-10,9.1-14.5,18.8c-0.6-0.4-4.9-3-8.7,2.9c-4.7,7.2-5.5,12.5-1.7,13.3c3.8,0.9,5.3-3.9,5.3-3.9
		s-1.7,5.2,2.9,3.5c0,0,2.6-0.8,2.8-2.5l-3.1,1.6c-1.3,0.2,1.7-8.9,5.1-13.8C174.7,30.8,195.5,14.6,185.5,11.8z M185.7,12.9
		c3,1.9-7.2,12.8-11.2,16.4C177.2,23.9,183.4,11.4,185.7,12.9z M166.2,40.4c-0.9,2.5-3.8,5-4.4,5.3c0,0-1.9-4.2,4.4-13.2
		c0,0,2.1-2.4,4.2-1C170.4,31.5,167.1,37.9,166.2,40.4z"/>
	<path d="M175.4,38c0,0,4.2,0.6,5.6-3.9c1.4-4.5-1.3-2.9-1.3-2.9s-4.9,6.6-5.5,10.8c-0.5,4.3,2.7,4,5,2.2c2.3-1.8,7.5-9.1,8.2-11.7
		c0,0-0.7-2.6,1.8-3.1c2.4-0.5,0.1,3.3,0.1,3.3s6.1-1.6,6.1,0.1c-0.1,1.6-8,13.9-4.1,14.1c3.9,0.1,6.2-5.2,6.1-8.8
		c0,0,1.2-0.6,1,3.5c-0.1,4.1-4.4,6-6.8,6.1s-7.4-1.3,0.6-13.3c0,0,1.6-1.3-3.8-0.4c0,0-4,9.3-10.1,12c-6.1,2.7-7.9-0.2-7.6-3.3
		c0.3-3.1,3.3-12.2,9.5-13.3s4,5.4,3.5,6.1c-0.5,0.8-3.5,4.9-8.8,3.6L175.4,38z"/>
</g>
</svg>
