<?xml version="1.0" encoding="utf-8"?>
<!-- Generator: Adobe Illustrator 18.0.0, SVG Export Plug-In . SVG Version: 6.00 Build 0)  -->
<!DOCTYPE svg PUBLIC "-//W3C//DTD SVG 1.1//EN" "http://www.w3.org/Graphics/SVG/1.1/DTD/svg11.dtd">
<svg version="1.1" id="Layer_1" xmlns="http://www.w3.org/2000/svg" xmlns:xlink="http://www.w3.org/1999/xlink" x="0px" y="0px"
	 viewBox="0 0 504 360" enable-background="new 0 0 504 360" xml:space="preserve">
<rect fill="#D1D3D4" stroke="#000000" stroke-width="0.9969" stroke-miterlimit="10" width="504" height="359.8"/>
<g opacity="9.000000e-02">
	<path d="M109.9,185.3h2.4v-24.8h-2.4v-1.6h8.4c0.8,0,1.7,0.1,2.7,0.4c1,0.3,1.9,0.7,2.8,1.3c0.9,0.6,1.6,1.3,2.2,2.3
		c0.6,0.9,0.9,2.1,0.9,3.4c0,2.3-0.7,4.1-2.2,5.5c-1.5,1.4-3.6,2-6.3,2h-4.5v11.6h4v1.6h-8V185.3z M113.9,172.2h4.2
		c1.4,0,2.6-0.2,3.5-0.6c0.9-0.4,1.7-0.9,2.2-1.4c0.6-0.6,0.9-1.2,1.1-1.9c0.2-0.7,0.3-1.3,0.3-2c0-0.7-0.2-1.5-0.5-2.2
		c-0.4-0.7-0.9-1.3-1.5-1.8c-0.6-0.5-1.4-1-2.3-1.3c-0.9-0.3-1.8-0.5-2.8-0.5h-4.2V172.2z"/>
	<path d="M129.7,185.3h2.8v-24.8h-2.8v-1.6h7.7v1.6H134v24.8h14v-4.6h1.6v6.2h-19.9V185.3z"/>
	<path d="M152.4,185.3h3.1c2-4.6,3.9-9.3,5.9-13.8c2-4.6,3.9-9.2,5.9-13.8c1.9,4.6,3.9,9.3,5.9,13.8c2,4.6,3.9,9.2,5.9,13.8h3.1v1.6
		h-7.6v-1.6h2.9c-0.8-1.7-1.5-3.5-2.2-5.2c-0.7-1.7-1.5-3.5-2.2-5.2h-11.3c-0.7,1.8-1.5,3.5-2.2,5.2c-0.7,1.7-1.5,3.4-2.2,5.2h2.9
		v1.6h-7.7V185.3z M167.6,162.5l-0.4-1.1c-0.1,0.1-0.1,0.3-0.2,0.6c-0.1,0.2-0.1,0.3-0.2,0.5c-0.3,0.7-0.6,1.5-0.9,2.3
		c-0.4,0.9-0.7,1.8-1.1,2.7c-0.4,0.9-0.8,1.9-1.2,2.9c-0.4,1-0.8,1.9-1.2,2.9h9.9L167.6,162.5z"/>
	<path d="M204.9,165.1v-3.4c-0.9-0.5-1.8-0.8-2.8-1.1s-2-0.4-3-0.4c-1.7,0-3.4,0.3-4.9,1c-1.5,0.7-2.9,1.6-4,2.8
		c-1.2,1.2-2.1,2.5-2.7,4.1c-0.7,1.5-1,3.2-1,5c0,1.7,0.3,3.4,1,4.9c0.7,1.5,1.6,2.9,2.7,4c1.2,1.1,2.5,2.1,4,2.7
		c1.5,0.7,3.1,1,4.9,1c1.2,0,2.3-0.2,3.4-0.5s2.1-0.7,3.1-1.3l0.9,1.4c-1.1,0.6-2.2,1.1-3.4,1.5c-1.2,0.4-2.5,0.5-3.9,0.5
		c-2,0-3.8-0.4-5.6-1.1c-1.7-0.7-3.2-1.8-4.5-3.1c-1.3-1.3-2.3-2.8-3.1-4.5c-0.7-1.7-1.1-3.6-1.1-5.6c0-2,0.4-3.8,1.1-5.6
		c0.7-1.7,1.8-3.3,3.1-4.6c1.3-1.3,2.8-2.3,4.5-3.1c1.7-0.8,3.6-1.1,5.6-1.1c1.4,0,2.6,0.2,3.9,0.5c1.2,0.3,2.4,0.8,3.5,1.5v4.5
		H204.9z"/>
	<path d="M209.3,185.3h2.9v-24.8h-2.9v-1.6h19.5v6.2h-1.6v-4.6h-13.4V172h13.4v1.6h-13.4v11.7h14v-4.6h1.6v6.2h-20V185.3z"/>
	<path d="M250.9,158.9h8v1.6h-3.1v24.8h3.1v1.6h-8v-1.6h3.3v-11.7h-17.3v11.7h3.3v1.6h-8v-1.6h3.1v-24.8h-3.1v-1.6h8v1.6h-3.3V172
		h17.3v-11.5h-3.3V158.9z"/>
	<path d="M261.6,173c0-2,0.4-3.8,1.1-5.6c0.7-1.7,1.8-3.3,3.1-4.6c1.3-1.3,2.8-2.3,4.5-3.1c1.7-0.8,3.6-1.1,5.6-1.1s3.8,0.4,5.6,1.1
		c1.7,0.8,3.3,1.8,4.6,3.1c1.3,1.3,2.3,2.8,3.1,4.6c0.8,1.7,1.1,3.6,1.1,5.6c0,2-0.4,3.8-1.1,5.6c-0.8,1.7-1.8,3.2-3.1,4.5
		c-1.3,1.3-2.8,2.3-4.6,3.1c-1.7,0.7-3.6,1.1-5.6,1.1s-3.8-0.4-5.6-1.1c-1.7-0.7-3.2-1.8-4.5-3.1c-1.3-1.3-2.3-2.8-3.1-4.5
		C262,176.8,261.6,175,261.6,173z M263.2,173c0,1.8,0.3,3.4,1,4.9c0.7,1.5,1.6,2.9,2.7,4c1.2,1.1,2.5,2,4,2.7c1.5,0.7,3.2,1,4.9,1
		c1.7,0,3.4-0.3,5-1c1.6-0.7,2.9-1.6,4.1-2.7c1.2-1.1,2.1-2.5,2.8-4c0.7-1.5,1-3.2,1-4.9c0-1.8-0.3-3.4-1-5
		c-0.7-1.5-1.6-2.9-2.7-4.1s-2.5-2.1-4.1-2.7c-1.6-0.7-3.2-1-5-1c-1.7,0-3.4,0.3-4.9,1c-1.5,0.7-2.9,1.6-4,2.8s-2.1,2.5-2.7,4.1
		C263.6,169.6,263.2,171.3,263.2,173z"/>
	<path d="M293.1,185.3h2.8v-24.8h-2.8v-1.6h7.7v1.6h-3.3v24.8h14v-4.6h1.6v6.2h-19.9V185.3z"/>
	<path d="M315.8,185.3h2.5v-24.8h-2.5v-1.6h8.4c1.9,0,3.7,0.3,5.4,1c1.7,0.7,3.2,1.6,4.5,2.8c1.3,1.2,2.3,2.7,3,4.4
		c0.7,1.7,1.1,3.7,1.1,5.8c0,1.6-0.3,3.2-0.8,4.8c-0.5,1.7-1.4,3.2-2.7,4.5c-1.2,1.4-2.8,2.5-4.8,3.3s-4.4,1.3-7.2,1.3h-7V185.3z
		 M319.9,160.5v24.8h3.5c2.2,0,4.2-0.4,5.8-1.1c1.7-0.7,3-1.6,4.1-2.8c1.1-1.2,1.9-2.5,2.5-4c0.5-1.5,0.8-3,0.8-4.6
		c0-1.9-0.3-3.6-1-5.1c-0.7-1.5-1.6-2.8-2.7-3.9s-2.5-1.9-4-2.5c-1.5-0.6-3.1-0.9-4.8-0.9H319.9z"/>
	<path d="M341.1,185.3h2.9v-24.8h-2.9v-1.6h19.5v6.2H359v-4.6h-13.4V172H359v1.6h-13.4v11.7h14v-4.6h1.6v6.2h-20V185.3z"/>
	<path d="M363.9,185.3h2.4v-24.8h-2.4v-1.6h8.4c0.8,0,1.7,0.1,2.7,0.4c1,0.3,1.9,0.7,2.8,1.3c0.9,0.6,1.6,1.3,2.2,2.3
		c0.6,0.9,0.9,2.1,0.9,3.4c0,1.9-0.5,3.5-1.5,4.8c-1,1.3-2.5,2.1-4.5,2.5l5.6,11.8h3.5v1.6h-4.6l-6.2-13.2c-0.3,0-0.6,0-0.9,0.1
		c-0.3,0-0.6,0-0.9,0H368v11.6h4v1.6h-8V185.3z M368,172.2h4.2c1.4,0,2.6-0.2,3.5-0.6c0.9-0.4,1.7-0.9,2.2-1.4
		c0.6-0.6,0.9-1.2,1.1-1.9c0.2-0.7,0.3-1.3,0.3-2c0-0.7-0.2-1.5-0.5-2.2c-0.4-0.7-0.9-1.3-1.5-1.8c-0.6-0.5-1.4-1-2.3-1.3
		c-0.9-0.3-1.8-0.5-2.8-0.5H368V172.2z"/>
</g>
<line opacity="9.000000e-02" fill="none" stroke="#000000" stroke-width="0.9291" stroke-miterlimit="10" x1="252" y1="212.8" x2="252" y2="307.7"/>
<polygon opacity="9.000000e-02" fill="none" stroke="#000000" stroke-miterlimit="10" points="266.1,307.8 252.6,321.6 238.8,308.1 
	"/>
</svg>
