<?xml version="1.0" encoding="utf-8"?>
<!-- Generator: Adobe Illustrator 18.0.0, SVG Export Plug-In . SVG Version: 6.00 Build 0)  -->
<!DOCTYPE svg PUBLIC "-//W3C//DTD SVG 1.1//EN" "http://www.w3.org/Graphics/SVG/1.1/DTD/svg11.dtd">
<svg version="1.1" id="Layer_1" xmlns="http://www.w3.org/2000/svg" xmlns:xlink="http://www.w3.org/1999/xlink" x="0px" y="0px"
	 viewBox="0 0 216 144" enable-background="new 0 0 216 144" xml:space="preserve">
<g>
	<path id="Twitter_3_" fill="#FFFFFF" d="M179.6,28.7c-5.3,2.4-10.9,3.8-17,4.7c6.1-3.6,10.7-9.5,12.9-16.2
		c-5.7,3.4-11.9,5.9-18.6,7.1c-5.5-5.7-12.9-9.3-21.4-9.3c-16.2,0-29.3,13.1-29.3,29.3c0,2.2,0.2,4.4,0.8,6.7
		C82.5,49.8,60.9,38,46.3,20.2c-2.6,4.2-4,9.3-4,14.8c0,10.1,5.3,19.2,13.1,24.5c-4.9-0.2-9.3-1.4-13.3-3.6c0,0.2,0,0.2,0,0.4
		c0,14.2,10.1,26.1,23.7,28.9c-2.4,0.6-5.1,1-7.7,1c-1.8,0-3.6-0.2-5.5-0.6c3.8,11.7,14.6,20.2,27.5,20.4
		c-10.1,7.9-22.7,12.5-36.6,12.5c-2.4,0-4.7-0.2-7.1-0.4c12.7,8.5,28.3,13.3,44.9,13.3c54,0,83.7-44.9,83.7-83.7c0-1.2,0-2.6,0-3.8
		C170.5,39.8,175.6,34.6,179.6,28.7z"/>
</g>
</svg>
