<?xml version="1.0" encoding="utf-8"?>
<!-- Generator: Adobe Illustrator 18.0.0, SVG Export Plug-In . SVG Version: 6.00 Build 0)  -->
<!DOCTYPE svg PUBLIC "-//W3C//DTD SVG 1.1//EN" "http://www.w3.org/Graphics/SVG/1.1/DTD/svg11.dtd">
<svg version="1.1" id="Layer_1" xmlns="http://www.w3.org/2000/svg" xmlns:xlink="http://www.w3.org/1999/xlink" x="0px" y="0px"
	 viewBox="0 0 71.2 71.2" enable-background="new 0 0 71.2 71.2" xml:space="preserve">
<g>
	<path id="Twitter_3_" fill="#010101" d="M71,14.2c-2.6,1.2-5.4,1.9-8.4,2.3c3-1.8,5.3-4.7,6.4-8c-2.8,1.7-5.9,2.9-9.2,3.5
		c-2.7-2.8-6.4-4.6-10.6-4.6c-8,0-14.5,6.5-14.5,14.5c0,1.1,0.1,2.2,0.4,3.3c-12.1-0.6-22.8-6.4-30-15.2c-1.3,2.1-2,4.6-2,7.3
		c0,5,2.6,9.5,6.5,12.1c-2.4-0.1-4.6-0.7-6.6-1.8c0,0.1,0,0.1,0,0.2c0,7,5,12.9,11.7,14.3c-1.2,0.3-2.5,0.5-3.8,0.5
		c-0.9,0-1.8-0.1-2.7-0.3c1.9,5.8,7.2,10,13.6,10.1c-5,3.9-11.2,6.2-18.1,6.2c-1.2,0-2.3-0.1-3.5-0.2C6.5,62.6,14.2,65,22.4,65
		c26.7,0,41.4-22.2,41.4-41.4c0-0.6,0-1.3,0-1.9C66.5,19.7,69,17.1,71,14.2z"/>
</g>
</svg>
