<?xml version="1.0" encoding="utf-8"?>
<!-- Generator: Adobe Illustrator 18.1.0, SVG Export Plug-In . SVG Version: 6.00 Build 0)  -->
<!DOCTYPE svg PUBLIC "-//W3C//DTD SVG 1.1//EN" "http://www.w3.org/Graphics/SVG/1.1/DTD/svg11.dtd">
<svg version="1.1" id="Layer_1" xmlns="http://www.w3.org/2000/svg" xmlns:xlink="http://www.w3.org/1999/xlink" x="0px" y="0px"
	 viewBox="281 371 50 50" enable-background="new 281 371 50 50" xml:space="preserve">
<path id="Vimeo" fill="#FFFFFF" d="M323.6,374.4c-6.9-0.2-11.6,3.7-14.1,11.7c1.3-0.5,2.5-0.8,3.7-0.8c2.5,0,3.7,1.4,3.3,4.3
	c-0.1,1.7-1.3,4.2-3.3,7.5c-2.1,3.3-3.7,4.9-4.7,4.9c-1.4,0-2.6-2.5-3.7-7.6c-0.4-1.5-1-5.3-2-11.4c-0.9-5.7-3.3-8.3-7.2-8
	c-1.6,0.1-4.1,1.6-7.4,4.5c-2.4,2.1-4.8,4.3-7.3,6.5l2.3,3c2.2-1.6,3.5-2.4,3.9-2.4c1.7,0,3.3,2.7,4.8,8.1c1.3,4.9,2.7,9.9,4,14.8
	c2,5.4,4.5,8.1,7.4,8.1c4.7,0,10.4-4.4,17.2-13.2c6.6-8.4,9.9-15.1,10.2-20C331.2,377.9,328.8,374.6,323.6,374.4z"/>
</svg>
