<?xml version="1.0" encoding="utf-8"?>
<!-- Generator: Adobe Illustrator 18.0.0, SVG Export Plug-In . SVG Version: 6.00 Build 0)  -->
<!DOCTYPE svg PUBLIC "-//W3C//DTD SVG 1.1//EN" "http://www.w3.org/Graphics/SVG/1.1/DTD/svg11.dtd">
<svg version="1.1" id="Layer_1" xmlns="http://www.w3.org/2000/svg" xmlns:xlink="http://www.w3.org/1999/xlink" x="0px" y="0px"
	 viewBox="0 0 288 288" enable-background="new 0 0 288 288" xml:space="preserve">
<rect x="-0.2" y="-0.2" fill="#D1D3D4" width="287.6" height="289.2"/>
<g>
	<g>
		<path d="M36.4,131.8h6.1v1.2h-2.3c1.2,2.9,2.4,5.8,3.7,8.7c1.2,2.9,2.5,5.8,3.7,8.7l0.3,0.9c0.7-2,1.5-4.1,2.4-6.1
			c0.9-2,1.8-4,2.7-6c-0.4-1-0.9-2.1-1.3-3.1c-0.4-1-0.9-2.1-1.3-3.1h-2.6v-1.2h6.1v1.2h-2.3c1.2,2.9,2.5,5.8,3.7,8.7
			c1.2,2.9,2.5,5.8,3.8,8.7l0.3,0.9l0.3-0.9c1.3-2.9,2.5-5.8,3.7-8.7c1.2-2.9,2.5-5.8,3.7-8.7h-2.1v-1.2H71v1.2h-2.8
			c-1.5,3.5-3,7.1-4.5,10.6c-1.5,3.5-3,7-4.5,10.6l-5.4-12.7l-0.3-0.8c-0.8,2.3-1.7,4.5-2.8,6.8c-1,2.3-2,4.5-2.9,6.8
			c-1.5-3.5-3-7.1-4.5-10.6c-1.5-3.5-3-7-4.5-10.6h-2.6V131.8z"/>
		<path d="M73.1,142.5c0-1.5,0.3-2.9,0.9-4.3c0.6-1.3,1.3-2.5,2.3-3.5c1-1,2.1-1.8,3.5-2.4s2.7-0.9,4.2-0.9c1.5,0,2.9,0.3,4.3,0.9
			c1.3,0.6,2.5,1.4,3.5,2.4s1.8,2.1,2.4,3.5c0.6,1.3,0.9,2.8,0.9,4.3s-0.3,2.9-0.9,4.2s-1.4,2.5-2.4,3.5c-1,1-2.1,1.8-3.5,2.3
			c-1.3,0.6-2.8,0.9-4.3,0.9c-1.5,0-2.9-0.3-4.2-0.9s-2.5-1.3-3.5-2.3c-1-1-1.8-2.1-2.3-3.5C73.4,145.4,73.1,144,73.1,142.5z
			 M74.4,142.5c0,1.3,0.3,2.6,0.8,3.8c0.5,1.2,1.2,2.2,2.1,3.1c0.9,0.9,1.9,1.6,3.1,2.1c1.2,0.5,2.4,0.8,3.8,0.8
			c1.3,0,2.6-0.3,3.8-0.8c1.2-0.5,2.2-1.2,3.1-2.1s1.6-1.9,2.1-3.1c0.5-1.2,0.8-2.4,0.8-3.8c0-1.3-0.3-2.6-0.8-3.8
			c-0.5-1.2-1.2-2.2-2.1-3.1s-1.9-1.6-3.1-2.1c-1.2-0.5-2.4-0.8-3.8-0.8c-1.3,0-2.6,0.3-3.8,0.8c-1.2,0.5-2.2,1.2-3.1,2.1
			c-0.9,0.9-1.6,1.9-2.1,3.1C74.6,139.9,74.4,141.2,74.4,142.5z"/>
		<path d="M97.2,151.9H99V133h-1.9v-1.2h6.4c0.6,0,1.3,0.1,2.1,0.3c0.8,0.2,1.5,0.5,2.1,1c0.7,0.4,1.2,1,1.7,1.7
			c0.4,0.7,0.7,1.6,0.7,2.6c0,1.5-0.4,2.7-1.2,3.7s-1.9,1.6-3.4,1.9l4.2,9h2.7v1.2H109l-4.8-10.1c-0.2,0-0.5,0-0.7,0
			c-0.2,0-0.5,0-0.7,0h-2.6v8.8h3v1.2h-6.1V151.9z M100.2,141.9h3.2c1.1,0,2-0.1,2.7-0.4s1.3-0.7,1.7-1.1c0.4-0.5,0.7-0.9,0.9-1.5
			c0.2-0.5,0.2-1,0.2-1.5c0-0.6-0.1-1.1-0.4-1.7c-0.3-0.5-0.7-1-1.2-1.4c-0.5-0.4-1.1-0.7-1.7-1c-0.7-0.2-1.4-0.4-2.1-0.4h-3.2
			V141.9z"/>
		<path d="M127.6,151.9h1.8c-1.4-1.8-2.8-3.6-4.3-5.4c-1.4-1.8-2.9-3.6-4.3-5.4l-2.7,2.5c0,1.4,0,2.8,0,4.1c0,1.4,0,2.8,0,4.1h2.5
			v1.2h-6.1v-1.2h2.4V133h-2.4v-1.2h5.8v1.2h-2.3v8.4c0,0.2,0,0.3,0,0.5c0,0.1,0,0.3,0,0.5l0.6-0.6l9.1-8.6h-1.6v-1.2h5.9v1.2h-2.6
			l-7.7,7.3c1.5,2,3.1,3.9,4.6,5.8c1.5,1.9,3.1,3.9,4.6,5.8h2.5v1.2h-5.9V151.9z"/>
		<path d="M149.9,131.8h6.1v1.2h-2.4v18.9h2.4v1.2h-6.1v-1.2h2.5v-9h-13.2v9h2.5v1.2h-6.1v-1.2h2.4V133h-2.4v-1.2h6.1v1.2h-2.5v8.8
			h13.2V133h-2.5V131.8z"/>
		<path d="M158.1,142.5c0-1.5,0.3-2.9,0.9-4.3c0.6-1.3,1.3-2.5,2.3-3.5s2.1-1.8,3.5-2.4c1.3-0.6,2.7-0.9,4.2-0.9s2.9,0.3,4.3,0.9
			s2.5,1.4,3.5,2.4s1.8,2.1,2.4,3.5c0.6,1.3,0.9,2.8,0.9,4.3s-0.3,2.9-0.9,4.2c-0.6,1.3-1.4,2.5-2.4,3.5c-1,1-2.1,1.8-3.5,2.3
			s-2.8,0.9-4.3,0.9s-2.9-0.3-4.2-0.9c-1.3-0.6-2.5-1.3-3.5-2.3c-1-1-1.8-2.1-2.3-3.5S158.1,144,158.1,142.5z M159.4,142.5
			c0,1.3,0.3,2.6,0.8,3.8c0.5,1.2,1.2,2.2,2.1,3.1c0.9,0.9,1.9,1.6,3.1,2.1c1.2,0.5,2.4,0.8,3.8,0.8c1.3,0,2.6-0.3,3.8-0.8
			c1.2-0.5,2.2-1.2,3.1-2.1c0.9-0.9,1.6-1.9,2.1-3.1c0.5-1.2,0.8-2.4,0.8-3.8c0-1.3-0.3-2.6-0.8-3.8c-0.5-1.2-1.2-2.2-2.1-3.1
			c-0.9-0.9-1.9-1.6-3.1-2.1c-1.2-0.5-2.5-0.8-3.8-0.8c-1.3,0-2.6,0.3-3.8,0.8s-2.2,1.2-3.1,2.1c-0.9,0.9-1.6,1.9-2.1,3.1
			C159.6,139.9,159.4,141.2,159.4,142.5z"/>
		<path d="M182.2,151.9h2.1V133h-2.1v-1.2h5.9v1.2h-2.5v18.9h10.7v-3.5h1.2v4.7h-15.2V151.9z"/>
		<path d="M199.5,151.9h1.9V133h-1.9v-1.2h6.4c1.5,0,2.9,0.2,4.2,0.7c1.3,0.5,2.4,1.2,3.4,2.1c1,0.9,1.8,2.1,2.3,3.4
			c0.6,1.3,0.9,2.8,0.9,4.4c0,1.2-0.2,2.4-0.6,3.7c-0.4,1.3-1.1,2.4-2,3.5c-0.9,1-2.2,1.9-3.7,2.6s-3.3,1-5.5,1h-5.4V151.9z
			 M202.7,133v18.9h2.7c1.7,0,3.2-0.3,4.5-0.8c1.3-0.5,2.3-1.3,3.2-2.1c0.8-0.9,1.5-1.9,1.9-3s0.6-2.3,0.6-3.5
			c0-1.4-0.3-2.8-0.8-3.9c-0.5-1.2-1.2-2.2-2.1-3c-0.9-0.8-1.9-1.5-3-1.9s-2.4-0.7-3.7-0.7H202.7z"/>
		<path d="M218.8,151.9h2.2V133h-2.2v-1.2h14.9v4.7h-1.2V133h-10.2v8.8h10.3v1.2h-10.3v9h10.7v-3.5h1.2v4.7h-15.3V151.9z"/>
		<path d="M236.3,151.9h1.9V133h-1.9v-1.2h6.4c0.6,0,1.3,0.1,2.1,0.3s1.5,0.5,2.1,1c0.7,0.4,1.2,1,1.7,1.7c0.4,0.7,0.7,1.6,0.7,2.6
			c0,1.5-0.4,2.7-1.2,3.7s-1.9,1.6-3.4,1.9l4.2,9h2.7v1.2h-3.5l-4.8-10.1c-0.2,0-0.5,0-0.7,0c-0.2,0-0.5,0-0.7,0h-2.6v8.8h3v1.2
			h-6.1V151.9z M239.4,141.9h3.2c1.1,0,2-0.1,2.7-0.4c0.7-0.3,1.3-0.7,1.7-1.1c0.4-0.5,0.7-0.9,0.9-1.5c0.2-0.5,0.2-1,0.2-1.5
			c0-0.6-0.1-1.1-0.4-1.7c-0.3-0.5-0.7-1-1.2-1.4s-1.1-0.7-1.7-1s-1.4-0.4-2.1-0.4h-3.2V141.9z"/>
	</g>
</g>
</svg>
