<?xml version="1.0" encoding="utf-8"?>
<!-- Generator: Adobe Illustrator 18.0.0, SVG Export Plug-In . SVG Version: 6.00 Build 0)  -->
<!DOCTYPE svg PUBLIC "-//W3C//DTD SVG 1.1//EN" "http://www.w3.org/Graphics/SVG/1.1/DTD/svg11.dtd">
<svg version="1.1" id="Layer_1" xmlns="http://www.w3.org/2000/svg" xmlns:xlink="http://www.w3.org/1999/xlink" x="0px" y="0px"
	 viewBox="-88 0 288 144" enable-background="new -88 0 288 144" xml:space="preserve">
<rect x="55.9" fill="#D1D3D4" width="143.8" height="144"/>
<rect x="-88" fill="#D1D3D4" width="143.8" height="144"/>
<g>
	<g>
		<path d="M-2.7,65.9h3v0.6h-1.1c0.6,1.4,1.2,2.9,1.9,4.3c0.6,1.4,1.2,2.9,1.9,4.3L3,75.6c0.4-1,0.8-2.1,1.2-3.1s0.9-2,1.4-3
			c-0.2-0.5-0.5-1.1-0.6-1.6c-0.2-0.5-0.5-1.1-0.6-1.6H3v-0.6h3v0.6H4.9c0.6,1.4,1.2,2.9,1.9,4.3s1.2,2.9,1.9,4.3l0.1,0.4l0.1-0.4
			c0.6-1.4,1.2-2.9,1.9-4.3s1.3-2.9,1.9-4.3h-1v-0.6h3v0.6h-1.4c-0.8,1.8-1.5,3.6-2.2,5.3s-1.5,3.5-2.2,5.3L6,70.7l-0.1-0.4
			c-0.4,1.2-0.9,2.2-1.4,3.4c-0.5,1.2-1,2.2-1.5,3.4c-0.8-1.8-1.5-3.6-2.2-5.3s-1.5-3.5-2.2-5.3h-1.3v-0.6H-2.7z"/>
		<path d="M15.6,71.2c0-0.8,0.2-1.4,0.5-2.2c0.3-0.7,0.7-1.2,1.2-1.8s1-0.9,1.8-1.2s1.3-0.4,2.1-0.4s1.5,0.2,2.2,0.4
			c0.7,0.3,1.2,0.7,1.8,1.2s0.9,1.1,1.2,1.8c0.3,0.7,0.5,1.4,0.5,2.2s-0.2,1.4-0.5,2.1s-0.7,1.2-1.2,1.8s-1,0.9-1.8,1.2
			c-0.7,0.3-1.4,0.4-2.2,0.4s-1.5-0.2-2.1-0.4s-1.2-0.7-1.8-1.2s-0.9-1.1-1.2-1.8C15.8,72.7,15.6,72,15.6,71.2z M16.3,71.2
			c0,0.7,0.2,1.3,0.4,1.9s0.6,1.1,1,1.6c0.5,0.4,1,0.8,1.5,1.1s1.2,0.4,1.9,0.4c0.7,0,1.3-0.2,1.9-0.4c0.6-0.2,1.1-0.6,1.5-1.1
			s0.8-0.9,1-1.6c0.2-0.6,0.4-1.2,0.4-1.9c0-0.7-0.2-1.3-0.4-1.9s-0.6-1.1-1-1.6s-1-0.8-1.5-1.1s-1.2-0.4-1.9-0.4
			c-0.7,0-1.3,0.2-1.9,0.4c-0.6,0.2-1.1,0.6-1.5,1.1c-0.5,0.4-0.8,0.9-1,1.6C16.4,69.9,16.3,70.6,16.3,71.2z"/>
		<path d="M27.7,75.9h0.9v-9.4h-1v-0.6h3.2c0.3,0,0.7,0.1,1,0.2c0.4,0.1,0.8,0.2,1,0.5c0.3,0.2,0.6,0.5,0.8,0.8
			c0.2,0.3,0.3,0.8,0.3,1.3c0,0.8-0.2,1.3-0.6,1.8s-1,0.8-1.7,0.9l2.1,4.5h1.3v0.6h-1.7l-2.4-5.1c-0.1,0-0.2,0-0.3,0s-0.2,0-0.3,0
			h-1.3v4.4h1.5v0.6h-3L27.7,75.9L27.7,75.9z M29.2,70.9h1.6c0.5,0,1-0.1,1.3-0.2s0.7-0.3,0.8-0.6c0.2-0.2,0.3-0.4,0.5-0.8
			c0.1-0.2,0.1-0.5,0.1-0.8c0-0.3,0-0.6-0.2-0.8c-0.2-0.2-0.3-0.5-0.6-0.7s-0.5-0.3-0.8-0.5c-0.3-0.1-0.7-0.2-1-0.2h-1.6L29.2,70.9
			L29.2,70.9z"/>
		<path d="M42.9,75.9h0.9c-0.7-0.9-1.4-1.8-2.2-2.7c-0.7-0.9-1.5-1.8-2.2-2.7l-1.3,1.2c0,0.7,0,1.4,0,2.1c0,0.7,0,1.4,0,2.1h1.2v0.6
			h-3v-0.6h1.2v-9.4h-1.2v-0.6h2.9v0.6h-1.2v4.2c0,0.1,0,0.2,0,0.2c0,0.1,0,0.2,0,0.2l0.3-0.3l4.5-4.3h-0.8V66h2.9v0.6h-1.3
			l-3.8,3.7c0.8,1,1.5,1.9,2.3,2.9c0.8,0.9,1.5,1.9,2.3,2.9h1.2v0.6h-3L42.9,75.9L42.9,75.9z"/>
		<path d="M54,65.9h3.1v0.6h-1.2v9.4h1.2v0.6H54v-0.6h1.2v-4.5h-6.6v4.5h1.2v0.6h-3.1v-0.6h1.2v-9.4h-1.2v-0.6h3.1v0.6h-1.2v4.4h6.6
			v-4.4H54V65.9z"/>
		<path d="M58.1,71.2c0-0.8,0.2-1.4,0.4-2.2c0.3-0.7,0.7-1.2,1.2-1.8s1.1-0.9,1.8-1.2c0.7-0.3,1.3-0.4,2.1-0.4s1.4,0.2,2.2,0.4
			s1.2,0.7,1.8,1.2s0.9,1.1,1.2,1.8c0.3,0.7,0.4,1.4,0.4,2.2s-0.2,1.4-0.4,2.1c-0.3,0.7-0.7,1.2-1.2,1.8s-1.1,0.9-1.8,1.2
			s-1.4,0.4-2.2,0.4s-1.4-0.2-2.1-0.4c-0.7-0.3-1.2-0.7-1.8-1.2s-0.9-1.1-1.2-1.8S58.1,72,58.1,71.2z M58.8,71.2
			c0,0.7,0.2,1.3,0.4,1.9s0.6,1.1,1.1,1.6c0.4,0.4,0.9,0.8,1.6,1.1c0.6,0.2,1.2,0.4,1.9,0.4c0.7,0,1.3-0.2,1.9-0.4s1.1-0.6,1.6-1.1
			c0.4-0.4,0.8-0.9,1.1-1.6c0.2-0.6,0.4-1.2,0.4-1.9c0-0.7-0.2-1.3-0.4-1.9s-0.6-1.1-1.1-1.6c-0.4-0.4-0.9-0.8-1.6-1.1
			c-0.6-0.2-1.2-0.4-1.9-0.4s-1.3,0.2-1.9,0.4s-1.1,0.6-1.6,1.1c-0.4,0.4-0.8,0.9-1.1,1.6C58.9,69.9,58.8,70.6,58.8,71.2z"/>
		<path d="M70.2,75.9h1.1v-9.4h-1.1v-0.6h2.9v0.6h-1.2v9.4h5.3v-1.8h0.6v2.3h-7.6L70.2,75.9L70.2,75.9z"/>
		<path d="M78.8,75.9h0.9v-9.4h-0.9v-0.6H82c0.8,0,1.4,0.1,2.1,0.3s1.2,0.6,1.7,1.1c0.5,0.4,0.9,1.1,1.2,1.7
			c0.3,0.7,0.4,1.4,0.4,2.2c0,0.6-0.1,1.2-0.3,1.8c-0.2,0.7-0.6,1.2-1,1.8c-0.4,0.5-1.1,0.9-1.8,1.3s-1.7,0.5-2.8,0.5h-2.7
			C78.8,76.6,78.8,75.9,78.8,75.9z M80.4,66.5v9.4h1.3c0.8,0,1.6-0.2,2.2-0.4s1.2-0.7,1.6-1.1c0.4-0.4,0.8-0.9,0.9-1.5
			s0.3-1.2,0.3-1.8c0-0.7-0.2-1.4-0.4-1.9c-0.2-0.6-0.6-1.1-1.1-1.5c-0.4-0.4-0.9-0.8-1.5-0.9s-1.2-0.3-1.8-0.3H80.4z"/>
		<path d="M88.5,75.9h1.1v-9.4h-1.1v-0.6h7.4v2.3h-0.6v-1.8h-5.1v4.4h5.2v0.6h-5.2V76h5.3v-1.8h0.6v2.3h-7.7L88.5,75.9L88.5,75.9z"
			/>
		<path d="M97.2,75.9h0.9v-9.4h-0.9v-0.6h3.2c0.3,0,0.7,0.1,1.1,0.2s0.8,0.2,1.1,0.5c0.3,0.2,0.6,0.5,0.8,0.8
			c0.2,0.3,0.3,0.8,0.3,1.3c0,0.8-0.2,1.3-0.6,1.8s-0.9,0.8-1.7,0.9l2.1,4.5h1.3v0.6h-1.8l-2.4-5.1c-0.1,0-0.2,0-0.3,0s-0.2,0-0.3,0
			h-1.3v4.4h1.5v0.6h-3.1L97.2,75.9L97.2,75.9z M98.8,70.9h1.6c0.6,0,1-0.1,1.3-0.2c0.3-0.2,0.7-0.3,0.8-0.6
			c0.2-0.2,0.3-0.4,0.4-0.8c0.1-0.2,0.1-0.5,0.1-0.8c0-0.3-0.1-0.6-0.2-0.8c-0.2-0.2-0.3-0.5-0.6-0.7s-0.6-0.3-0.8-0.5
			s-0.7-0.2-1.1-0.2h-1.6L98.8,70.9L98.8,70.9z"/>
	</g>
</g>
</svg>
