<?xml version="1.0" encoding="utf-8"?>
<!-- Generator: Adobe Illustrator 18.0.0, SVG Export Plug-In . SVG Version: 6.00 Build 0)  -->
<!DOCTYPE svg PUBLIC "-//W3C//DTD SVG 1.1//EN" "http://www.w3.org/Graphics/SVG/1.1/DTD/svg11.dtd">
<svg version="1.1" id="Layer_1" xmlns="http://www.w3.org/2000/svg" xmlns:xlink="http://www.w3.org/1999/xlink" x="0px" y="0px"
	 viewBox="47 18 107.9 108" enable-background="new 47 18 107.9 108" xml:space="preserve">
<rect x="47" y="18" fill="#D1D3D4" width="107.9" height="108"/>
<g>
	<g>
		<path d="M60.4,67.4h2.2v0.4h-0.8c0.4,1.1,0.9,2.2,1.4,3.2c0.5,1,0.9,2.2,1.4,3.2v0.4c0.3-0.8,0.6-1.6,0.9-2.3
			c0.3-0.8,0.7-1.5,1-2.2c-0.1-0.4-0.4-0.8-0.4-1.2c-0.2-0.4-0.4-0.8-0.4-1.2h-1.1v-0.5h2.2v0.5h-0.8c0.4,1,0.9,2.2,1.4,3.2
			s0.9,2.2,1.4,3.2l0.1,0.3l0.1-0.3c0.4-1,0.9-2.2,1.4-3.2s1-2.2,1.4-3.2h-0.8v-0.5h2.2v0.5h-1.1c-0.6,1.3-1.1,2.7-1.7,4
			c-0.5,1.3-1.1,2.6-1.6,4L66.9,71l-0.1-0.3c-0.3,0.9-0.7,1.6-1.1,2.5s-0.8,1.7-1.1,2.6c-0.6-1.3-1.1-2.7-1.7-4
			c-0.5-1.3-1.1-2.6-1.6-4h-1V67.4C60.4,67.4,60.4,67.4,60.4,67.4z"/>
		<path d="M74.1,71.4c0-0.6,0.2-1,0.4-1.6c0.2-0.5,0.5-0.9,0.9-1.4c0.4-0.4,0.8-0.7,1.3-0.9c0.6-0.2,1-0.3,1.6-0.3s1.1,0.2,1.7,0.3
			c0.5,0.2,0.9,0.5,1.3,0.9s0.7,0.8,0.9,1.4c0.2,0.5,0.4,1.1,0.4,1.6c0,0.6-0.2,1.1-0.4,1.6c-0.2,0.5-0.5,0.9-0.9,1.3
			S80.6,75,80,75.2c-0.5,0.2-1.1,0.3-1.7,0.3s-1.1-0.1-1.6-0.3c-0.4-0.2-0.9-0.5-1.3-0.9c-0.4-0.4-0.7-0.8-0.9-1.3
			C74.3,72.5,74.1,72,74.1,71.4z M74.6,71.4c0,0.5,0.2,1,0.3,1.4c0.1,0.4,0.4,0.8,0.8,1.2c0.4,0.3,0.8,0.6,1.1,0.8s0.9,0.3,1.4,0.3
			c0.5,0,1-0.1,1.4-0.3c0.4-0.2,0.8-0.5,1.1-0.8c0.3-0.4,0.6-0.7,0.8-1.2c0.2-0.4,0.3-0.9,0.3-1.4c0-0.5-0.1-1-0.3-1.4
			c-0.2-0.5-0.5-0.8-0.8-1.2c-0.3-0.4-0.8-0.6-1.1-0.8c-0.4-0.2-0.9-0.3-1.4-0.3s-1,0.2-1.4,0.3c-0.5,0.2-0.8,0.4-1.1,0.8
			c-0.4,0.3-0.6,0.7-0.8,1.2C74.7,70.4,74.6,70.9,74.6,71.4z"/>
		<path d="M83.2,74.9h0.7v-7.1h-0.8v-0.4h2.4c0.2,0,0.5,0.1,0.8,0.1c0.3,0.1,0.6,0.2,0.8,0.4c0.2,0.2,0.5,0.4,0.6,0.6
			c0.1,0.2,0.2,0.6,0.2,1c0,0.6-0.2,1-0.5,1.4c-0.3,0.4-0.8,0.6-1.3,0.7l1.6,3.4h1v0.5h-1.3l-1.8-3.8c-0.1,0-0.2,0-0.2,0
			c-0.1,0-0.1,0-0.2,0h-1v3.3h1.1v0.4H83L83.2,74.9L83.2,74.9z M84.3,71.2h1.2c0.4,0,0.8-0.1,1-0.2c0.2-0.1,0.5-0.2,0.6-0.4
			c0.2-0.2,0.2-0.3,0.4-0.6c0.1-0.2,0.1-0.4,0.1-0.6s0-0.4-0.2-0.6c-0.2-0.1-0.2-0.4-0.4-0.5s-0.4-0.2-0.6-0.4
			c-0.2-0.1-0.5-0.1-0.8-0.1h-1.2L84.3,71.2L84.3,71.2z"/>
		<path d="M94.6,74.9h0.7c-0.5-0.7-1-1.4-1.6-2c-0.5-0.7-1.1-1.3-1.7-2l-1,0.9c0,0.5,0,1.1,0,1.6c0,0.5,0,1,0,1.6h0.9v0.4h-2.2v-0.4
			h0.9v-7.1h-0.9v-0.4h2.2v0.4h-0.9V71c0,0.1,0,0.2,0,0.2c0,0.1,0,0.2,0,0.2l0.2-0.2l3.4-3.2h-0.6v-0.4h2.2v0.4h-1l-2.8,2.8
			c0.6,0.8,1.1,1.4,1.7,2.2c0.6,0.7,1.1,1.4,1.7,2.2h0.9v0.4h-2.2L94.6,74.9L94.6,74.9z"/>
		<path d="M102.9,67.4h2.3v0.4h-0.9v7.1h0.9v0.4h-2.3v-0.4h0.9v-3.4h-4.9v3.4h0.9v0.4h-2.3v-0.4h0.9v-7.1h-0.9v-0.4h2.3v0.4h-0.9
			v3.3h4.9v-3.3h-0.9V67.4z"/>
		<path d="M106,71.4c0-0.6,0.2-1,0.3-1.6c0.2-0.5,0.5-0.9,0.9-1.4c0.4-0.4,0.8-0.7,1.3-0.9c0.5-0.2,1-0.3,1.6-0.3s1.1,0.2,1.7,0.3
			c0.6,0.2,0.9,0.5,1.3,0.9s0.7,0.8,0.9,1.4c0.2,0.5,0.3,1.1,0.3,1.6c0,0.6-0.2,1.1-0.3,1.6c-0.2,0.5-0.5,0.9-0.9,1.3
			s-0.8,0.7-1.3,0.9c-0.5,0.2-1.1,0.3-1.7,0.3s-1.1-0.1-1.6-0.3c-0.5-0.2-0.9-0.5-1.3-0.9c-0.5-0.4-0.7-0.8-0.9-1.3S106,72,106,71.4
			z M106.5,71.4c0,0.5,0.2,1,0.3,1.4s0.4,0.8,0.8,1.2c0.3,0.3,0.7,0.6,1.2,0.8c0.5,0.1,0.9,0.3,1.4,0.3s1-0.1,1.4-0.3
			c0.4-0.2,0.8-0.5,1.2-0.8c0.3-0.3,0.6-0.7,0.8-1.2c0.1-0.4,0.3-0.9,0.3-1.4c0-0.5-0.2-1-0.3-1.4c-0.2-0.5-0.4-0.8-0.8-1.2
			c-0.3-0.3-0.7-0.6-1.2-0.8c-0.5-0.1-0.9-0.3-1.4-0.3c-0.5,0-1,0.2-1.4,0.3c-0.5,0.2-0.8,0.4-1.2,0.8c-0.3,0.3-0.6,0.7-0.8,1.2
			C106.6,70.4,106.5,70.9,106.5,71.4z"/>
		<path d="M115.1,74.9h0.8v-7.1h-0.8v-0.4h2.2v0.4h-0.9v7.1h4v-1.4h0.4v1.7h-5.7V74.9L115.1,74.9z"/>
		<path d="M121.5,74.9h0.7v-7.1h-0.7v-0.4h2.4c0.6,0,1.1,0.1,1.6,0.2c0.5,0.2,0.9,0.5,1.3,0.8c0.4,0.3,0.7,0.8,0.9,1.3
			c0.2,0.5,0.3,1.1,0.3,1.6c0,0.5-0.1,0.9-0.2,1.4c-0.1,0.5-0.4,0.9-0.8,1.4c-0.3,0.4-0.8,0.7-1.3,1s-1.3,0.4-2.1,0.4h-2
			C121.5,75.4,121.5,74.9,121.5,74.9z M122.7,67.9v7.1h1c0.6,0,1.2-0.2,1.7-0.3c0.4-0.2,0.9-0.5,1.2-0.8s0.6-0.7,0.7-1.1
			c0.1-0.4,0.2-0.9,0.2-1.4c0-0.5-0.1-1.1-0.3-1.4c-0.1-0.4-0.4-0.8-0.8-1.1c-0.3-0.3-0.7-0.6-1.1-0.7c-0.4-0.1-0.9-0.2-1.3-0.2
			C123.8,67.9,122.7,67.9,122.7,67.9z"/>
		<path d="M128.8,74.9h0.8v-7.1h-0.8v-0.4h5.6v1.7h-0.4v-1.3h-3.8v3.3h3.9v0.4h-3.9V75h4v-1.4h0.4v1.7h-5.8L128.8,74.9L128.8,74.9z"
			/>
		<path d="M135.3,74.9h0.7v-7.1h-0.7v-0.4h2.4c0.2,0,0.5,0.1,0.8,0.1s0.6,0.2,0.8,0.4c0.2,0.2,0.4,0.4,0.6,0.6
			c0.1,0.2,0.2,0.6,0.2,1c0,0.6-0.2,1-0.4,1.4c-0.3,0.4-0.7,0.6-1.3,0.7l1.6,3.4h1v0.5h-1.4l-1.8-3.8c-0.1,0-0.2,0-0.2,0
			c-0.1,0-0.1,0-0.2,0h-1v3.3h1.1v0.4h-2.3L135.3,74.9L135.3,74.9z M136.5,71.2h1.2c0.4,0,0.8-0.1,1-0.2c0.2-0.1,0.5-0.2,0.6-0.4
			c0.1-0.2,0.2-0.3,0.3-0.6c0.1-0.2,0.1-0.4,0.1-0.6s-0.1-0.4-0.1-0.6c-0.2-0.1-0.2-0.4-0.4-0.5c-0.2-0.1-0.5-0.2-0.6-0.4
			c-0.2-0.1-0.5-0.1-0.8-0.1h-1.2L136.5,71.2L136.5,71.2z"/>
	</g>
</g>
</svg>
