<?xml version="1.0" encoding="utf-8"?>
<!-- Generator: Adobe Illustrator 18.1.0, SVG Export Plug-In . SVG Version: 6.00 Build 0)  -->
<!DOCTYPE svg PUBLIC "-//W3C//DTD SVG 1.1//EN" "http://www.w3.org/Graphics/SVG/1.1/DTD/svg11.dtd">
<svg version="1.1" id="Layer_1" xmlns="http://www.w3.org/2000/svg" xmlns:xlink="http://www.w3.org/1999/xlink" x="0px" y="0px"
	 viewBox="0 53.4 360 157.6" enable-background="new 0 53.4 360 157.6" xml:space="preserve">
<g>
	<g>
		<g>
			<g>
				<g>
					<path d="M53.7,151.1"/>
				</g>
			</g>
		</g>
	</g>
	<path d="M14.3,161.8c-3.7-1.8-6-3.2-6.3-4.9c-0.4-1.6,0.9-44.4,4.7-55.4l0.2-0.5l0.4-0.4c0-0.2,2.8-2.5,6.7-4
		c3.5-1.6,11.9-5.3,14.4-5.3l0,0h0.5c7.5,0,11.2,1.6,11.2,4.7l-4.4,53.1c0,0.2-1.4,5.8-6.7,8.1c-2.8,0.9-16.5,4.9-19.3,4.9
		C15.3,162.1,15,162.1,14.3,161.8z M37.9,148.6L42.1,96c-0.7-0.5-3.2-1.1-7.4-1.1h-0.5c-1.2,0-7.5,2.6-12.8,4.9
		c-2.6,1.2-4.6,2.6-5.4,3.2c-3.7,11-4.7,50.7-4.6,52.8c0.4,0.4,1.1,1.1,4.4,2.6c2.1-0.2,11.6-2.8,17.7-4.6
		C36.9,152.5,37.9,148.6,37.9,148.6L37.9,148.6z"/>
	<g>
		<path d="M8.8,157.1c-1.2-0.5-1.9-1.6-1.9-3.2l5.6-52.8l0.9-0.5c1.4-0.7,13.5-7.4,18.9-7.4c2.5,0,3.3,1.4,3.7,2.1l0.2,0.4
			l-3.9,49.6c0,0.2,0.2,5.6-5.8,7.9l-10.3,3.5c0,0-2.5,0.7-4.6,0.7C10.6,157.4,9.7,157.2,8.8,157.1z M15.2,153l10.2-3.3
			c3.3-1.4,3.3-4,3.3-4.6l3.9-48.4l0,0c-3.7,0-12.3,4.4-16.3,6.5l-5.4,50.3c0.2,0,0.5,0,0.9,0C13.2,153.6,15.2,153,15.2,153
			L15.2,153z"/>
	</g>
	<g>
		<path d="M16.9,105.5V105l0.4-0.4c3.7-5.1,8.6-5.8,11.2-5.8c1.6,0,2.6,0.4,2.8,0.4l1.6,0.4l-3.5,48.7l-2.3-0.9
			c-0.7-0.2-1.4-0.4-2.3-0.4c-4,0-8.1,2.6-8.1,2.6l-3.2,1.9L16.9,105.5z M26,143.4l3-40.7c-2.1,0-5.4,0.5-8.1,3.9L18,145
			c1.8-0.9,4.2-1.6,6.8-1.6C25.1,143.4,25.7,143.4,26,143.4z"/>
	</g>
	<g>
		<path d="M14.1,152.3c-1.2-1.6-0.5-3.9-0.2-4.9l0.2-0.5l0.5-0.4c6.8-4.9,13.3-2.8,13.7-2.6l1.2,0.4v1.4c0.2,4.6-7.4,6.7-9.5,7.2
			c0,0-1.8,0.5-3.5,0.7h-0.2C15.5,153.6,14.6,153.2,14.1,152.3z M17.3,149.5c0,0,0,0.2,0,0.4c0.9-0.2,1.6-0.5,1.8-0.5
			c2.1-0.5,4-1.4,5.3-2.1C22.5,147.2,19.9,147.6,17.3,149.5z"/>
	</g>
	<path d="M332.3,171.3c-4.7-3-5.3-8.8-5.3-8.9v-0.2l5.3-30.9l-1.8-22.3c0.2-2.3,2.5-3.3,6.5-3.3c2.6,0,5.4,0.5,5.6,0.5l0.7,0.4
		c2.1,1.4,3.3,3.5,3.3,3.5l0,0c4.4,4.9,6.5,8.2,6.5,8.4l0.2,0.5c2.3,11.6-3,54-3.5,55.6c-0.5,2.1-3.3,2.3-6.3,2.6
		c-0.9,0-1.6,0-1.9,0.2l-0.7,0.2C340.2,177.6,338.4,177.6,332.3,171.3z M349.8,120.2c-0.7-0.9-2.6-3.9-6.1-7.9c0,0-0.9-1.4-2.1-2.3
		c-0.7-0.2-2.6-0.4-4.6-0.4c-1.8,0-2.5,0.2-2.8,0.4l1.8,21.6l-5.3,30.9c0.2,0.9,0.9,4.2,3.9,6.1c2.3,2.3,5.3,4.7,6.3,5.3
		c0.5-0.2,1.2-0.2,2.1-0.4s2.5-0.4,3.3-0.5C347.2,167.8,351.6,130.9,349.8,120.2z"/>
	<g>
		<path d="M342.8,171.1l-3.2-2.8c-5.3-3.7-4.6-7.7-4.6-7.7l0,0l4-51.7l0.2-0.7c0.5-0.9,1.2-1.4,2.3-1.4c3.5,0,9.1,8.4,11.4,12.1
			l0.2,0.4l-0.4,26.8l-2.6,25.1c-0.4,1.8-1.6,2.5-2.6,2.5C345.6,173.5,343.3,171.6,342.8,171.1z M341.9,110.1l-3.9,50.8
			c0,0.2-0.2,2.3,3.3,4.9l3.5,3c0.7,0.7,1.6,1.2,2.1,1.6l2.6-24.4l0.4-25.9C347,115.2,343.5,111,341.9,110.1z"/>
	</g>
	<g>
		<path d="M343.8,165.5c-0.2,0-2.3-0.9-4-3.2l-0.4-0.5l3.5-45.1v-0.4l0.9-1.2h0.7c1.2,0,1.2,0,4.7,6.7l0.2,0.4l-3.5,44.2
			L343.8,165.5z M345.8,121.8l-3,38.9c0,0.2,0.2,0.2,0.4,0.4l3.2-38.4C346.1,122.4,345.9,122,345.8,121.8z"/>
	</g>
	<g>
		<g>
			<path d="M229.7,193.7c-29.5-16.3-39.1-46.3-28.9-89.4c0.2-1.2,0.5-2.1,0.5-2.6c1.2-7.4,21.9-43.8,62.2-43.8
				c5.6,0,11.2,0.7,17,2.1c25.1,6,42.9,22.4,50.1,46.3c8.2,26.8,1.2,59.3-16.8,78.5c-0.2,0.2-18.4,19.3-47.3,19.3l0,0
				C254.3,204,242,200.7,229.7,193.7z M205.2,102.7c-0.2,0.5-0.4,1.6-0.7,3c-9.6,41.2-0.5,69.9,27.2,85.2
				c11.6,6.3,23.3,9.6,34.9,9.6c27.3,0,44.4-18.1,44.5-18.2c17.2-18.4,23.8-49.3,16.1-74.9c-6.8-22.6-23.7-38-47.5-43.7
				c-5.4-1.2-10.9-1.9-16.1-1.9C225.7,61.9,206.2,95.5,205.2,102.7z M275.8,186c-1.4,0-2.8-0.2-3.7-0.2c-17.5,0-48.4-11.2-53.1-53.8
				c-3.9-42.8,33-59.6,46.8-60.8c1.1-0.2,2.5-0.2,3.9-0.2c22.3,0,50.5,13.1,57.3,50.1c4.6,56.3-36.6,64.2-44.9,65.2
				c-0.4,0-0.7,0-1.2,0C279.5,186.3,277.8,186.2,275.8,186z M266.2,74.8c-8.1,0.9-47.3,13.5-43.5,56.8c2.1,18.8,14.9,50.5,49.4,50.5
				c0.9,0,2.5,0,4,0.2c2.1,0.2,4.4,0.4,5.4,0.2c7.7-0.9,45.9-8.2,41.7-61C315,77,277.1,74.7,269.6,74.7
				C268.5,74.7,267.2,74.7,266.2,74.8z"/>
		</g>
		<g>
			<path d="M303.9,172.7c1.2-1.6,28.4-37.2-0.4-76.8c-10-13.5-20.5-20.2-32.4-20.2c-8.1,0-15.3,3.2-20.3,5.4
				c-1.2,0.5-2.3,1.1-3.3,1.4l-13.1,5.1l11.2-8.2c0.5-0.4,13.8-10.2,31.6-10.2c15.8,0,29.8,7.7,41.4,23
				c13.8,18.2,12.3,37.5,8.4,50.5c-5.1,17.4-16.7,31.4-20.9,33l-6.1,2.1L303.9,172.7z M306.3,93.8c19.1,26.1,14.7,51,8.6,66.3
				c3.2-5.1,6.3-11.4,8.4-18.4c3.7-12.1,5.3-30.2-7.7-47.2c-10.5-13.8-23-21-37-21.6C288.6,75.2,297.9,82.2,306.3,93.8z"/>
		</g>
		<g>
			<path d="M247.8,197.6c-0.5-0.2-53.1-19.3-45.9-80.6c6.3-52.9,52.1-57,65.9-57c2.1,0,3.5,0.2,3.5,0.2c0.7-0.2,1.4-0.2,2.3-0.2
				c14.6,0,36.5,10.7,50.5,31c13.5,19.6,16,43.5,6.8,67.1c-13.5,35.2-40.5,42.6-60.7,42.6l0,0C257.4,200.7,248.1,197.7,247.8,197.6z
				 M271.3,63.8c0,0-1.4-0.2-3.5-0.2c-13,0-56.3,3.9-62.1,53.6c-6.8,58.2,41.4,75.9,43.3,76.6c0.2,0,9.3,3,21.4,3
				c18.9,0,44.4-7,57.1-40.3c11-28.7,2.6-50.5-6.5-63.6c-13.3-19.1-34-29.3-47.5-29.3C272.8,63.6,272.1,63.8,271.3,63.8z
				 M219.2,131.5c-3.9-42.8,33-59.6,46.8-60.8c1.1-0.2,2.5-0.2,3.9-0.2c5.3,0,52.1,1.4,60.8,49.3c4.6,57.9-43.1,65.4-48.6,66.1
				c-1.9,0.4-11.2,0.5-13.3,0.5C248.7,186.3,223.6,172,219.2,131.5z M266.2,74.5c-8.1,0.9-47.3,13.5-43.5,56.8
				c4.2,37.9,27.3,51.4,45.9,51.4c2.3,0,11.2-0.4,13-0.5c5.1-0.7,49.4-7.7,45.2-61.9c-8.2-44.7-52.2-45.9-57.1-45.9
				C268.5,74.3,267.2,74.3,266.2,74.5z"/>
		</g>
		<g>
			<path d="M233.4,179.7c-14.6-11.6-21.6-26.5-23.7-49.6c-1.6-23.7,7.9-39.8,16.3-49.3c12.1-13.7,27.5-20.2,37.7-20.7h7.5
				c26.3,0,56.1,17.5,63.3,57.1c3.5,19.1-0.2,37.9-10,51.2c-15.8,21.6-42.1,25.4-45.2,25.8c-2.3,0.2-4.7,0.4-7.2,0.4
				C264.8,194.6,248.3,191.4,233.4,179.7z M228.7,83.3c-7.7,8.9-16.8,24.2-15.3,46.6c2.1,21.9,8.8,35.9,22.3,46.8
				c14,11,30,14,36.5,14c2.3,0,4.6,0,6.8-0.4c2.8-0.4,27.7-3.9,42.6-24.2c9.3-12.4,12.6-30.2,9.3-48.2
				c-6.8-37.3-34.9-54.2-59.6-54.2h-7.4C255,64.2,240.2,70.5,228.7,83.3z M219,131.3c-3.9-42.8,33-59.6,46.8-60.8
				c1.1-0.2,2.5-0.2,3.9-0.2c22.3,0,50.5,13.1,57.3,50.1c2.8,36.1-11.7,57.5-43.1,63.5c-3.9,0.9-9.3,1.4-11.7,1.4
				C254.6,185.3,223.8,174.1,219,131.3z M266.2,74.3c-8.1,0.9-47.3,13.5-43.5,56.8c2.1,18.8,14.9,50.5,49.4,50.5
				c2.3,0,7.5-0.4,11-1.2c29.3-5.6,42.8-25.6,40.1-59.3c-8.2-44.5-46.1-46.8-53.6-46.8C268.5,74.3,267.2,74.3,266.2,74.3z"/>
		</g>
	</g>
	<g>
		<g>
			<path d="M41.3,149.2c-0.2-0.5-14.9-50.3,27.2-82c12.1-9.1,25.2-13.7,38.7-13.7c40.1,0,73.1,39.6,75.7,75
				c0,0.5-5.4,64.7-62.1,71.3c-3.7,0.5-7.2,0.7-10.5,0.7l0,0C61.3,200.5,44.3,157.8,41.3,149.2z M70.9,70.1
				c-40,30.2-26.1,77.3-25.9,77.8c2.6,8.1,18.9,48.7,65.4,48.7c3.2,0,6.7-0.2,10-0.5c52.6-6.1,58.7-67,58.7-67.5
				c-3-40.8-40.5-71.5-71.9-71.5C94.4,57.1,82.1,61.5,70.9,70.1z M79.8,163.4c-34.2-26.8-21.6-66.3-13.1-77.5
				c0.7-1.1,1.6-2.1,2.5-3.2c4.2-4.6,19.3-19.5,42.1-19.5c11.2,0,22.4,3.7,33.7,10.9c44.4,35.6,22.4,72,17.5,79.1
				c-0.9,1.1-2.5,2.8-4.4,4.6c-1.1,1.1-2.1,1.9-2.6,2.6c-4.6,5.1-17.4,16.8-37.7,16.8C105.1,177.2,92.3,172.5,79.8,163.4z
				 M71.8,85.4c-0.9,1.1-1.6,1.9-2.3,2.8c-4.7,6.5-22.1,45.1,12.4,72.2c11.7,8.8,23.8,13.3,35.8,13.3c13.1,0,26.1-5.8,34.9-15.6
				c0.7-0.7,1.8-1.8,3-2.8c1.4-1.4,3.3-3.2,3.9-4c4.6-6.5,25.1-40.5-16.7-74c-10.5-6.8-21-10.2-31.6-10.2
				C89.8,67.1,75.8,81,71.8,85.4z"/>
		</g>
		<g>
			<path d="M57,116.6c-0.2-0.9-3-19.3,8.6-34.9C73.5,71,86.1,64.5,103,62c3.5-0.5,6.8-0.7,10.2-0.7c22.1,0,35.9,11,43.7,20.3
				c10.7,12.8,14.9,28,14.2,32.4l-1.2,6.7l-2.5-6.3c-0.2-0.5-15.6-40-51.7-40c-3.5,0-7.2,0.4-10.9,1.1c-39.3,7.9-42.8,31.9-44.2,41
				l-1.8,12.3L57,116.6z M163.1,99.2c-2.1-4.7-5.3-10-9.5-15.1c-7.2-8.6-20.2-18.9-40.7-18.9c-3.2,0-6.3,0.2-9.6,0.7
				c-15.8,2.3-27.5,8.4-34.7,18.2c-3.7,5.1-6,10.5-7,15.6C66.9,89.2,78.1,77.3,104,72c3.9-0.9,7.9-1.2,11.6-1.2
				C139.6,70.8,154.9,86.8,163.1,99.2z"/>
		</g>
		<g>
			<path d="M57,165.8c-40.5-48,4.9-91.5,5.1-91.7c8.8-11.6,27.9-19.3,47.7-19.3c28.2,0,51.9,15.3,64.9,42.1
				c27.9,57.5-26.6,89.9-27.2,90.3c-0.5,0.2-14.2,7.5-33,7.5l0,0C92.6,194.8,73.2,185.1,57,165.8z M64.9,76.8
				c-1.8,1.6-43.1,41.4-4.9,86.8c15.4,18.2,33.8,27.5,54.7,27.5c17.7,0,30.9-7.2,31-7.2c0.5-0.4,51.9-31,25.6-85.4
				c-16.8-34.7-45.8-40-61.5-40C91.6,58.5,73.2,65.9,64.9,76.8z M79.7,163.2c-34.2-26.8-21.6-66.3-13.1-77.5
				c0.7-1.1,1.6-2.1,2.5-3.2C73.3,77.9,88.4,63,111.2,63c11.2,0,22.4,3.7,33.7,10.9c44.4,35.6,22.4,72,17.5,79.1
				c-0.7,1.1-2.3,2.5-4.4,4.6c-1.1,1.1-2.1,1.9-2.6,2.6c-9.5,10.5-23.5,16.8-37.7,16.8C104.7,177,91.9,172.3,79.7,163.2z M71.6,85
				c-0.9,1.1-1.6,1.9-2.3,2.8c-4.7,6.5-22.1,45.1,12.4,72.2c11.7,8.8,23.8,13.3,35.8,13.3c13.1,0,26.1-5.8,34.9-15.6
				c0.5-0.7,1.6-1.8,2.8-2.8c1.4-1.4,3.3-3.3,3.9-4c4.6-6.5,25.1-40.5-16.7-74c-10.5-6.8-21-10.2-31.6-10.2
				C89.7,66.8,75.5,80.6,71.6,85z"/>
		</g>
		<g>
			<path d="M72.1,168.8c-20-16.3-24.9-36.1-25.6-50c-0.9-17.2,4.7-32.1,10.5-39.3l5.1-5.6c11.6-13,28.2-20.5,45.8-20.5
				c13.3,0,26.5,4.2,39.3,12.4c16.3,10.5,27.7,26.3,30.9,42.9c5.3,27-9.8,49.4-11.6,51.9c-1.4,1.9-2.8,3.9-4.6,5.8
				c-4.9,5.6-18.4,16-37.2,18.9c-3.5,0.5-6.8,0.9-10,0.9l0,0C100.5,186.3,87.4,180.9,72.1,168.8z M65.1,76.4L60,82
				c-10,12.3-20.3,55.4,14.6,84c14.4,11.4,26.8,16.5,40.1,16.5l0,0c3,0,6.1-0.2,9.3-0.7c17.7-2.8,30.7-12.8,35.1-17.7
				c1.6-1.8,3.2-3.7,4.4-5.4c1.6-2.5,16-23.7,11-49.1c-3-15.6-13.7-30.5-29.3-40.5c-12.1-7.7-24.7-11.7-37.2-11.7
				C91.6,57.3,76,64.3,65.1,76.4z M79.7,163.2c-34.2-26.8-21.6-66.3-13.1-77.5c0.7-1.1,1.6-2.1,2.5-3.2C73.3,77.9,88.4,63,111.2,63
				c11.2,0,22.4,3.7,33.7,10.9c44.4,35.6,22.4,72,17.5,79.1c-0.7,1.1-2.3,2.5-4.4,4.6c-1.1,1.1-2.1,1.9-2.6,2.6
				c-9.5,10.5-23.5,16.8-37.7,16.8C104.7,177,91.9,172.3,79.7,163.2z M71.6,85c-0.9,1.1-1.6,1.9-2.3,2.8
				c-4.7,6.5-22.1,45.1,12.4,72.2c11.7,8.8,23.8,13.3,35.8,13.3c13.1,0,26.1-5.8,34.9-15.6c0.5-0.7,1.6-1.8,2.8-2.8
				c1.4-1.4,3.3-3.3,3.9-4c4.6-6.5,25.1-40.5-16.7-74c-10.5-6.8-21-10.2-31.6-10.2C89.7,66.8,75.5,80.6,71.6,85z"/>
		</g>
	</g>
	<path d="M205.2,133.2c-3.7-1.4-8.2-2.3-13.5-2.3c-8.2,0-15.3,1.9-15.3,1.9l-4.9,1.4l3-4.2c3.7-5.3,1.9-19.6,1.1-24.7l-0.2-1.4
		l1.2-0.7c3.9-1.9,8.4-2.8,13.7-2.8c9.6,0,18.1,3,18.4,3.2l2.5,0.9l-1.6,1.9c-4.2,5.3-2.5,19.5-1.4,24.5l0.7,3.5L205.2,133.2z
		 M190.3,103.9c-4,0-7.7,0.7-10.7,1.9c0.5,3.9,2.1,14.9-0.2,22.3c3.2-0.5,7.5-1.2,12.6-1.2c4.4,0,8.4,0.5,11.9,1.6
		c-0.9-5.3-1.9-15.8,1.2-22.3C202.2,105.3,196.4,104.1,190.3,103.9z"/>
	<g>
		<path d="M174.7,128.5l0.9-0.4c4.9-1.8,10-2.6,15.3-2.6c9.5,0,16,2.6,16.3,2.8l1.2,0.5l-0.7,7l-2.5-1.4c-2.8-1.4-6.5-2.3-11-2.3
			c-8.9,0-18.1,3.2-18.1,3.2l-3.3,1.1L174.7,128.5z"/>
	</g>
	<path d="M202.2,132.5c-0.2-1.1-4-25.4,6-34l0.7-0.4c0,0,1.1-0.4,2.3-0.4c1.6,0,2.5,0.7,3,1.2s0.9,1.4,0.7,3.2
		c-0.2,0.2-6.1,23-3.2,32.1l0.4,1.1l-0.7,0.9c-0.2,0.2-1.6,1.6-3.5,1.6l0,0C205.5,137.8,203.8,136.2,202.2,132.5z M210.3,101.7
		c-6.7,6.1-5.4,23.8-4.6,29.8c0.9,1.8,1.6,2.5,1.9,2.5c-2.3-10.2,2.6-29.5,3.3-32.4C210.8,101.5,210.4,101.7,210.3,101.7z"/>
	<g>
		<path d="M172.4,136c-0.5-0.7-0.9-1.6-0.9-3c0.2-0.2,3.3-23.5-0.5-32.3l-0.4-0.9l0.5-0.9c0-0.2,1.4-2.1,3.7-2.1
			c2.1,0,3.9,1.4,5.6,4.6c0.4,1.1,7,24.9-1.9,34.5l-0.5,0.4c-0.2,0.2-1.4,0.7-2.8,0.7l0,0C174,137.1,173.1,136.4,172.4,136z
			 M177.3,102.9c-1.1-1.8-1.8-2.3-2.1-2.3c3.3,9.8,0.7,29.6,0.4,32.6c0.2,0,0.5-0.2,0.7-0.2C182,126,178.9,108.7,177.3,102.9z"/>
	</g>
</g>
<path fill="#FFFFFF" d="M168.1,123.5c0,28.7-20.6,49-50.1,49s-57.4-27.3-57.4-56s21.3-51.3,50.9-51.3S168.1,94.8,168.1,123.5z"/>
<path fill="#FFFFFF" d="M326.1,129.2c0,30.2-23.6,54.7-52.7,54.7s-50.9-26.3-50.9-56.5s27.5-53.5,47-53.5
	C298.5,73.8,326.1,99,326.1,129.2z"/>
<polygon points="89.5,68.8 86.7,70.9 88.4,95.8 105.1,113.2 73.1,112.9 85.4,114.9 80,125.2 88.3,114.5 107.8,116.5 126.3,141.5 
	123.6,161.6 130.2,140.8 121.3,128.9 122.2,115.2 119,123.5 94.3,96.8 "/>
<polygon points="260,184.3 278.4,177.5 289.1,185.8 281.4,177.2 292.7,167.5 266,179.8 273.7,159.4 269.3,134.9 285.6,117.4 
	266,133.5 270.3,161.6 258.7,182.5 "/>
<g>
	<path d="M106.5,71.5c0,0,1.3,0,3.7,0.2c1.2,0.1,2.6,0.3,4.2,0.6c1.6,0.3,3.4,0.7,5.4,1.2s4.1,1.2,6.2,2c2.2,0.8,4.5,1.8,6.7,3
		c2.3,1.2,4.6,2.5,6.8,4.1c1.1,0.8,2.2,1.6,3.2,2.5c1.1,0.8,2.1,1.8,3.1,2.7s1.9,2,2.8,3c0.9,1.1,1.8,2.1,2.5,3.2
		c0.8,1.1,1.6,2.2,2.2,3.4c0.7,1.1,1.3,2.3,1.9,3.4c0.3,0.6,0.6,1.1,0.8,1.7c0.3,0.6,0.5,1.2,0.7,1.7c0.4,1.2,0.9,2.3,1.2,3.4
		c0.3,1.1,0.7,2.2,0.9,3.3s0.4,2.1,0.6,3.1c0.1,1,0.3,2,0.4,2.9c0.1,0.5,0.1,0.9,0.2,1.3c0,0.4,0,0.9,0.1,1.3
		c0.1,1.6,0.2,3.1,0.1,4.2c-0.1,2.4-0.2,3.7-0.2,3.7s-0.2-1.3-0.4-3.6c-0.1-1.2-0.4-2.5-0.6-4.1c-0.1-0.4-0.1-0.8-0.2-1.2
		c-0.1-0.4-0.2-0.8-0.3-1.3c-0.2-0.9-0.4-1.8-0.6-2.8c-0.6-1.9-1.1-3.9-2-6c-0.4-1.1-0.8-2.1-1.3-3.2c-0.3-0.5-0.5-1.1-0.7-1.6
		c-0.3-0.5-0.6-1.1-0.9-1.6c-1.1-2.2-2.6-4.2-4.1-6.3c-0.7-1-1.6-2-2.4-3c-0.9-0.9-1.7-1.9-2.7-2.8c-0.9-0.9-1.9-1.8-2.9-2.6
		c-1-0.9-2-1.6-3-2.4c-0.5-0.4-1-0.7-1.6-1.1c-0.5-0.4-1-0.7-1.6-1.1c-1.1-0.7-2.1-1.3-3.2-1.9c-2.1-1.2-4.3-2.3-6.3-3.2
		c-2.1-0.9-4-1.7-5.9-2.4c-1.9-0.7-3.6-1.3-5.1-1.7c-1.5-0.5-2.9-0.8-4-1.1c-1.1-0.3-2-0.5-2.6-0.6
		C106.8,71.6,106.5,71.5,106.5,71.5z"/>
</g>
<g>
	<path d="M265.5,77.8c0,0,1.3,0,3.7,0.2c1.2,0.1,2.6,0.3,4.2,0.6s3.4,0.7,5.4,1.2s4.1,1.2,6.2,2c2.2,0.8,4.5,1.8,6.7,3
		c2.3,1.2,4.6,2.5,6.8,4.1c1.1,0.8,2.2,1.6,3.2,2.5c1.1,0.8,2.1,1.8,3.1,2.7s1.9,2,2.8,3c0.9,1.1,1.8,2.1,2.5,3.2
		c0.8,1.1,1.6,2.2,2.2,3.4c0.7,1.1,1.3,2.3,1.9,3.4c0.3,0.6,0.6,1.1,0.8,1.7c0.3,0.6,0.5,1.2,0.7,1.7c0.4,1.2,0.9,2.3,1.2,3.4
		c0.3,1.1,0.7,2.2,0.9,3.3c0.2,1.1,0.4,2.1,0.6,3.1c0.1,1,0.3,2,0.4,2.9c0.1,0.5,0.1,0.9,0.2,1.3c0,0.4,0,0.9,0.1,1.3
		c0.1,1.6,0.2,3.1,0.1,4.2c-0.1,2.4-0.2,3.7-0.2,3.7s-0.2-1.3-0.4-3.6c-0.1-1.2-0.4-2.5-0.6-4.1c-0.1-0.4-0.1-0.8-0.2-1.2
		s-0.2-0.8-0.3-1.3c-0.2-0.9-0.4-1.8-0.6-2.8c-0.6-1.9-1.1-3.9-2-6c-0.4-1.1-0.8-2.1-1.3-3.2c-0.3-0.5-0.5-1.1-0.7-1.6
		c-0.3-0.5-0.6-1.1-0.9-1.6c-1.1-2.2-2.6-4.2-4.1-6.3c-0.7-1-1.6-2-2.4-3c-0.9-0.9-1.7-1.9-2.7-2.8c-0.9-0.9-1.9-1.8-2.9-2.6
		c-1-0.9-2-1.6-3-2.4c-0.5-0.4-1-0.7-1.6-1.1c-0.5-0.4-1-0.7-1.6-1.1c-1.1-0.7-2.1-1.3-3.2-1.9c-2.1-1.2-4.3-2.3-6.3-3.2
		c-2.1-0.9-4-1.7-5.9-2.4s-3.6-1.3-5.1-1.7c-1.5-0.5-2.9-0.8-4-1.1s-2-0.5-2.6-0.6C265.8,77.8,265.5,77.8,265.5,77.8z"/>
</g>
</svg>
