<?xml version="1.0" encoding="utf-8"?>
<!-- Generator: Adobe Illustrator 18.1.0, SVG Export Plug-In . SVG Version: 6.00 Build 0)  -->
<!DOCTYPE svg PUBLIC "-//W3C//DTD SVG 1.1//EN" "http://www.w3.org/Graphics/SVG/1.1/DTD/svg11.dtd">
<svg version="1.1" id="Layer_1" xmlns="http://www.w3.org/2000/svg" xmlns:xlink="http://www.w3.org/1999/xlink" x="0px" y="0px"
	 viewBox="0 0 144 144" enable-background="new 0 0 144 144" xml:space="preserve">
<g>
	<g>
		<path d="M72,6c36.4,0,66,29.6,66,65.9s-29.6,65.9-66,65.9S6,108.3,6,71.9S35.6,6,72,6 M72,0C32.2,0,0,32.2,0,71.9
			s32.2,71.9,72,71.9s72-32.2,72-71.9S111.8,0,72,0L72,0z"/>
	</g>
	
		<line fill="none" stroke="#000000" stroke-width="4" stroke-linecap="round" stroke-miterlimit="10" x1="72" y1="2" x2="72" y2="17"/>
	
		<line fill="none" stroke="#000000" stroke-width="4" stroke-linecap="round" stroke-miterlimit="10" x1="72" y1="127" x2="72" y2="142"/>
	
		<line fill="none" stroke="#000000" stroke-width="4" stroke-linecap="round" stroke-miterlimit="10" x1="17" y1="72" x2="2" y2="72"/>
	
		<line fill="none" stroke="#000000" stroke-width="4" stroke-linecap="round" stroke-miterlimit="10" x1="142" y1="72" x2="127" y2="72"/>
</g>
<g>
	<polygon points="83.1,63.4 95.9,110.2 61,76.6 	"/>
	<path d="M56.1,43.2l20.2,19.5l-12.8,7.6L56.1,43.2 M48.2,29.8L61,76.6l22.1-13.1L48.2,29.8L48.2,29.8z"/>
</g>
</svg>
