<?xml version="1.0" encoding="utf-8"?>
<!-- Generator: Adobe Illustrator 18.0.0, SVG Export Plug-In . SVG Version: 6.00 Build 0)  -->
<!DOCTYPE svg PUBLIC "-//W3C//DTD SVG 1.1//EN" "http://www.w3.org/Graphics/SVG/1.1/DTD/svg11.dtd">
<svg version="1.1" id="Layer_1" xmlns="http://www.w3.org/2000/svg" xmlns:xlink="http://www.w3.org/1999/xlink" x="0px" y="0px"
	 viewBox="0 0 216 144" enable-background="new 0 0 216 144" xml:space="preserve">
<g>
	<g>
		<g>
			<g>
				<path fill="#FFFFFF" d="M180.5,84.6"/>
			</g>
		</g>
	</g>
</g>
<path fill="#FFFFFF" d="M202.2,90.9c-1.6,0-9.4-2.3-11-2.8c-3-1.3-3.8-4.5-3.8-4.6l-2.5-30.3c0-1.8,2.1-2.7,6.4-2.7l0.3,0
	c0,0,0,0,0,0c1.4,0,6.2,2.1,8.2,3c2.2,0.9,3.8,2.2,3.8,2.3l0.2,0.2l0.1,0.3c2.2,6.3,2.9,30.7,2.7,31.6c-0.2,1-1.5,1.8-3.6,2.8
	C202.6,90.9,202.4,90.9,202.2,90.9z M189.5,83.2c0,0,0.6,2.2,2.5,3c3.5,1,8.9,2.5,10.1,2.6c1.9-0.9,2.3-1.3,2.5-1.5
	c0.1-1.2-0.5-23.8-2.6-30.1c-0.5-0.3-1.6-1.1-3.1-1.8c-3-1.3-6.6-2.8-7.3-2.8l-0.3,0c-2.4,0-3.8,0.3-4.2,0.6L189.5,83.2L189.5,83.2z
	"/>
<g>
	<path fill="#FFFFFF" d="M204.5,88.2c-1.2,0-2.6-0.4-2.6-0.4l-5.9-2c-3.4-1.3-3.3-4.4-3.3-4.5l-2.2-28.3l0.1-0.2
		c0.2-0.4,0.7-1.2,2.1-1.2c3.1,0,10,3.8,10.8,4.2l0.5,0.3l3.2,30.1c0,0.9-0.4,1.5-1.1,1.8C205.6,88.1,205.1,88.2,204.5,88.2z
		 M202.5,85.7c0,0,1.1,0.3,2,0.3c0.2,0,0.4,0,0.5,0l-3.1-28.7c-2.3-1.2-7.2-3.7-9.3-3.7c0,0,0,0,0,0l2.2,27.6c0,0.3,0,1.8,1.9,2.6
		L202.5,85.7L202.5,85.7z"/>
</g>
<g>
	<path fill="#FFFFFF" d="M203.4,84.9l-1.8-1.1c0,0-2.3-1.5-4.6-1.5c-0.5,0-0.9,0.1-1.3,0.2l-1.3,0.5l-2-27.8l0.9-0.2
		c0.1,0,0.7-0.2,1.6-0.2c1.5,0,4.3,0.4,6.4,3.3l0.2,0.2l0,0.3L203.4,84.9z M197,80.2c1.5,0,2.9,0.4,3.9,0.9l-1.7-21.9
		c-1.5-1.9-3.4-2.2-4.6-2.2l1.7,23.2C196.5,80.2,196.8,80.2,197,80.2z"/>
</g>
<g>
	<path fill="#FFFFFF" d="M201.8,86l-0.1,0c-1-0.1-2-0.4-2-0.4c-1.2-0.3-5.5-1.5-5.4-4.1l0-0.8l0.7-0.2c0.2-0.1,3.9-1.3,7.8,1.5
		l0.3,0.2l0.1,0.3c0.2,0.6,0.6,1.9-0.1,2.8C202.8,85.8,202.3,86,201.8,86z M197.3,82.4c0.7,0.4,1.8,0.9,3,1.2c0.1,0,0.5,0.2,1,0.3
		c0-0.1,0-0.2,0-0.2C199.8,82.6,198.3,82.4,197.3,82.4z"/>
</g>
<path fill="#FFFFFF" d="M16.7,99.7l-0.4-0.1c-0.2-0.1-0.6-0.1-1.1-0.1c-1.7-0.2-3.3-0.3-3.6-1.5c-0.3-0.9-3.3-25.1-2-31.7L9.7,66
	c0-0.1,1.2-2,3.7-4.8l0,0c0,0,0.7-1.2,1.9-2l0.4-0.2c0.1,0,1.7-0.3,3.2-0.3c2.3,0,3.6,0.6,3.7,1.9l-1,12.7l3,17.6l0,0.1
	c0,0.1-0.3,3.4-3,5.1C18.1,99.7,17.1,99.7,16.7,99.7z M13.6,97.1c0.5,0.1,1.4,0.2,1.9,0.3c0.5,0.1,0.9,0.1,1.2,0.2
	c0.6-0.3,2.3-1.7,3.6-3c1.7-1.1,2.1-3,2.2-3.5l-3-17.6l1-12.3c-0.2-0.1-0.6-0.2-1.6-0.2c-1.1,0-2.2,0.1-2.6,0.2
	c-0.7,0.5-1.2,1.3-1.2,1.3c-2,2.3-3.1,4-3.5,4.5C10.6,73.1,13.1,94.1,13.6,97.1z"/>
<g>
	<path fill="#FFFFFF" d="M12.9,97.4c-0.6,0-1.3-0.4-1.5-1.4L9.9,81.7L9.7,66.4l0.1-0.2c1.3-2.1,4.5-6.9,6.5-6.9c0.6,0,1,0.3,1.3,0.8
		l0.1,0.4L20,90l0,0c0,0,0.4,2.3-2.6,4.4L15.6,96C15.3,96.3,14,97.4,12.9,97.4z M11.5,66.9l0.2,14.8l1.5,13.9
		c0.3-0.2,0.8-0.5,1.2-0.9l2-1.7c2-1.5,1.9-2.7,1.9-2.8l-2.2-29C15.2,61.7,13.2,64.1,11.5,66.9z"/>
</g>
<g>
	<path fill="#FFFFFF" d="M13.8,93.3l-2-25.2l0.1-0.2c2-3.8,2-3.8,2.7-3.8H15l0.5,0.7L15.5,65l2,25.7l-0.2,0.3
		c-1,1.3-2.2,1.8-2.3,1.8L13.8,93.3z M13.6,68.4l1.8,21.9c0.1-0.1,0.2-0.1,0.2-0.2l-1.7-22.2C13.8,68,13.7,68.2,13.6,68.4z"/>
</g>
<g>
	<g>
		<path fill="#FFFFFF" d="M59.1,114.8C59.1,114.8,59.1,114.8,59.1,114.8c-16.5,0-26.9-10.9-27-11C21.8,92.8,17.8,74.3,22.5,59
			c4.1-13.6,14.3-23,28.6-26.4c3.3-0.8,6.5-1.2,9.7-1.2c23,0,34.8,20.8,35.5,25c0,0.3,0.2,0.8,0.3,1.5c5.8,24.6,0.3,41.7-16.5,51
			C73.1,112.9,66.1,114.8,59.1,114.8z M60.8,33.7c-3,0-6.1,0.4-9.2,1.1C38,38,28.4,46.8,24.5,59.7c-4.4,14.6-0.6,32.2,9.2,42.7
			c0.1,0.1,9.8,10.4,25.4,10.4c6.6,0,13.3-1.9,19.9-5.5c15.8-8.7,21-25.1,15.5-48.6c-0.2-0.8-0.3-1.4-0.4-1.7
			C93.5,52.9,82.4,33.7,60.8,33.7z M50.9,104.7c-0.3,0-0.5,0-0.7,0c-4.7-0.6-28.2-5.1-25.6-37.2c3.9-21.1,20-28.6,32.7-28.6
			c0.8,0,1.6,0,2.2,0.1c7.9,0.7,28.9,10.3,26.7,34.7c-2.7,24.3-20.3,30.7-30.3,30.7c-0.5,0-1.3,0.1-2.1,0.1
			C52.7,104.6,51.7,104.7,50.9,104.7z M57.3,41c-4.3,0-25.9,1.3-30.6,26.7c-2.4,30.1,19.4,34.3,23.8,34.8c0.6,0.1,1.9,0,3.1-0.1
			c0.9-0.1,1.8-0.1,2.3-0.1c19.7,0,27-18.1,28.2-28.8c2.2-24.7-20.2-31.9-24.8-32.4C58.7,41,58,41,57.3,41z"/>
	</g>
	<g>
		<path fill="#FFFFFF" d="M40.1,99.8l-3.5-1.2c-2.4-0.9-9-8.9-11.9-18.8c-2.2-7.4-3.1-18.4,4.8-28.8c6.6-8.7,14.6-13.1,23.6-13.1
			c10.1,0,17.7,5.6,18,5.8l6.4,4.7L70,45.5c-0.6-0.2-1.2-0.5-1.9-0.8c-2.9-1.3-7-3.1-11.6-3.1c-6.8,0-12.8,3.8-18.5,11.5
			C21.6,75.7,37.1,96,37.8,96.9L40.1,99.8z M52.2,40c-8,0.3-15.1,4.4-21.1,12.3c-7.4,9.7-6.5,20-4.4,26.9c1.2,4,3,7.6,4.8,10.5
			c-3.5-8.7-6-22.9,4.9-37.8C41.2,45.3,46.5,41.3,52.2,40z"/>
	</g>
	<g>
		<path fill="#FFFFFF" d="M57,112.9L57,112.9c-11.5,0-26.9-4.2-34.6-24.3c-5.2-13.5-3.8-27.1,3.9-38.3c8-11.6,20.5-17.7,28.8-17.7
			c0.5,0,0.9,0,1.3,0.1c0,0,0.8-0.1,2-0.1c7.9,0,34,2.3,37.6,32.5c4.1,35-25.9,45.9-26.2,46C69.6,111.2,64.3,112.9,57,112.9z
			 M55.1,34.7c-7.7,0-19.5,5.8-27.1,16.7c-5.2,7.5-10,19.9-3.7,36.3c7.3,19,21.8,23,32.6,23c6.9,0,12.1-1.7,12.2-1.7
			c1.1-0.4,28.6-10.5,24.7-43.7c-3.3-28.4-28-30.6-35.4-30.6c-1.2,0-2,0.1-2,0.1C55.9,34.8,55.5,34.7,55.1,34.7z M57.8,104.7
			c-1.2,0-6.5-0.1-7.6-0.3c-3.1-0.4-30.3-4.7-27.7-37.7c5-27.3,31.7-28.1,34.7-28.1c0.8,0,1.6,0,2.2,0.1
			c7.9,0.7,28.9,10.3,26.7,34.7C83.6,96.5,69.3,104.7,57.8,104.7z M57.3,40.8c-2.8,0-27.9,0.7-32.6,26.2
			c-2.4,30.9,22.9,34.9,25.8,35.3c1,0.1,6.1,0.3,7.4,0.3c10.6,0,23.8-7.7,26.2-29.3c2.2-24.7-20.2-31.9-24.8-32.4
			C58.7,40.8,58,40.8,57.3,40.8z"/>
	</g>
	<g>
		<path fill="#FFFFFF" d="M55.9,109.4c-1.4,0-2.8-0.1-4.1-0.2C50,109,35,106.8,26,94.5c-5.6-7.6-7.7-18.3-5.7-29.2
			c4.1-22.6,21.1-32.6,36.1-32.6h4.3c5.8,0.3,14.6,4,21.5,11.8c4.8,5.4,10.2,14.6,9.3,28.1c-1.2,13.2-5.2,21.7-13.5,28.3
			C69.5,107.6,60.1,109.4,55.9,109.4z M60.6,34.8l-4.2,0c-14.1,0-30.1,9.6-34,30.9c-1.9,10.3,0,20.4,5.3,27.5
			c8.5,11.6,22.7,13.6,24.3,13.8c1.3,0.2,2.6,0.2,3.9,0.2c3.7,0,12.8-1.7,20.8-8C84.4,93,88.2,85,89.4,72.5
			c0.9-12.8-4.3-21.5-8.7-26.6C74.1,38.6,65.7,35,60.6,34.8z M55.9,104.1c-1.4,0-4.5-0.3-6.7-0.8c-17.9-3.4-26.2-15.6-24.6-36.2
			c3.9-21.1,20-28.6,32.7-28.6c0.8,0,1.6,0,2.2,0.1c7.9,0.7,28.9,10.3,26.7,34.7C83.5,97.7,65.9,104.1,55.9,104.1z M57.3,40.8
			c-4.3,0-25.9,1.3-30.6,26.7c-1.5,19.2,6.2,30.6,22.9,33.8c2,0.5,5,0.7,6.3,0.7c19.7,0,27-18.1,28.2-28.8
			c2.2-24.7-20.2-31.9-24.8-32.4C58.7,40.8,58,40.8,57.3,40.8z"/>
	</g>
</g>
<g>
	<g>
		<path fill="#FFFFFF" d="M148.2,112.8C148.2,112.8,148.2,112.8,148.2,112.8c-1.9,0-3.9-0.1-6-0.4c-32.3-3.8-35.4-40.4-35.4-40.7
			c1.5-20.2,20.3-42.8,43.2-42.8c7.7,0,15.2,2.6,22.1,7.8c24,18.1,15.6,46.5,15.5,46.8C185.9,88.4,176.2,112.8,148.2,112.8z M150,31
			c-17.9,0-39.3,17.5-41,40.8c0,0.3,3.5,35,33.5,38.5c1.9,0.2,3.9,0.3,5.7,0.3c26.5,0,35.8-23.2,37.3-27.8c0.1-0.3,8-27.2-14.8-44.4
			C164.3,33.5,157.3,31,150,31z M144,99.5c-11.6,0-18.9-6.7-21.5-9.6c-0.3-0.4-0.9-0.9-1.5-1.5c-1.1-1-2-2-2.5-2.6
			c-2.8-4-15.3-24.8,10-45.1c6.4-4.1,12.8-6.2,19.2-6.2c13,0,21.6,8.5,24,11.1c0.5,0.6,1,1.2,1.4,1.8c4.8,6.4,12,28.9-7.5,44.2
			C158.5,96.8,151.2,99.5,144,99.5z M147.7,36.7c-6,0-12,1.9-18,5.8c-23.8,19.1-12.1,38.5-9.5,42.2c0.3,0.5,1.4,1.5,2.2,2.3
			c0.7,0.6,1.3,1.2,1.7,1.6c5,5.6,12.4,8.9,19.9,8.9c6.8,0,13.7-2.6,20.4-7.6c19.7-15.5,9.8-37.5,7.1-41.2c-0.4-0.5-0.8-1-1.3-1.6
			C167.9,44.6,159.9,36.7,147.7,36.7z"/>
	</g>
	<g>
		<path fill="#FFFFFF" d="M177.6,71.9l-1-7c-0.8-5.2-2.8-18.9-25.2-23.4c-2.1-0.4-4.2-0.6-6.2-0.6c-20.6,0-29.4,22.5-29.5,22.8
			l-1.4,3.6l-0.7-3.8c-0.4-2.5,2-11.2,8.1-18.5c4.4-5.3,12.3-11.6,24.9-11.6c1.9,0,3.8,0.1,5.8,0.4c9.6,1.4,16.8,5.1,21.3,11.2
			c6.6,8.9,5,19.4,4.9,19.9L177.6,71.9z M145.2,38.8c2.1,0,4.4,0.2,6.6,0.7c14.8,3,21.2,9.8,24.2,15.8c-0.6-2.9-1.9-6-4-8.9
			c-4.1-5.6-10.8-9.1-19.8-10.4c-1.9-0.3-3.7-0.4-5.5-0.4c-11.7,0-19.1,5.9-23.2,10.8c-2.4,2.9-4.2,5.9-5.4,8.6
			C122.8,47.9,131.5,38.8,145.2,38.8z"/>
	</g>
	<g>
		<path fill="#FFFFFF" d="M145.8,109.5L145.8,109.5c-10.7,0-18.5-4.2-18.8-4.3c-0.3-0.2-31.4-18.7-15.5-51.5c7.4-15.3,20.9-24,37-24
			c11.3,0,22.2,4.4,27.2,11c0.1,0.1,26,24.9,2.9,52.3C169.4,104,158.3,109.5,145.8,109.5z M148.5,31.8c-9,0-25.5,3-35.1,22.8
			c-15,31,14.3,48.5,14.6,48.7c0.1,0,7.6,4.1,17.7,4.1c11.9,0,22.4-5.3,31.2-15.7c21.8-25.9-1.8-48.6-2.8-49.5
			C169.4,36,158.9,31.8,148.5,31.8z M144.1,99.4c-8.1,0-16.1-3.6-21.5-9.6c-0.3-0.4-0.9-0.9-1.5-1.5c-1.2-1.2-2.1-2-2.5-2.6
			c-2.8-4-15.3-24.8,10-45.1c6.4-4.1,12.8-6.2,19.2-6.2c13,0,21.6,8.5,24,11.1c0.5,0.6,1,1.2,1.4,1.8c4.8,6.4,12,28.9-7.5,44.2
			C158.7,96.7,151.4,99.4,144.1,99.4z M147.9,36.5c-6,0-12,1.9-18,5.8c-23.8,19.1-12.1,38.5-9.5,42.2c0.3,0.4,1.4,1.5,2.2,2.3
			c0.7,0.6,1.3,1.2,1.6,1.6c5,5.6,12.4,8.9,19.9,8.9c6.8,0,13.7-2.6,20.4-7.6c19.7-15.5,9.8-37.5,7.1-41.2c-0.4-0.5-0.8-1-1.3-1.6
			C168.1,44.4,160,36.5,147.9,36.5z"/>
	</g>
	<g>
		<path fill="#FFFFFF" d="M145.7,104.7L145.7,104.7c-1.8,0-3.7-0.2-5.7-0.5c-10.7-1.7-18.4-7.6-21.2-10.8c-1-1.1-1.8-2.2-2.6-3.3
			c-1-1.4-9.6-14.2-6.6-29.6c1.8-9.5,8.3-18.5,17.6-24.5c7.3-4.7,14.8-7.1,22.4-7.1c10,0,19.5,4.3,26.1,11.7l2.9,3.2
			c3.3,4.1,6.5,12.6,6,22.4c-0.4,7.9-3.2,19.2-14.6,28.5C161.3,101.6,153.8,104.7,145.7,104.7z M149.5,31.1
			c-7.1,0-14.3,2.3-21.2,6.7c-8.9,5.7-15,14.2-16.7,23.1c-2.8,14.5,5.4,26.6,6.3,28c0.7,1,1.6,2.1,2.5,3.1c2.5,2.8,9.9,8.5,20,10.1
			c1.8,0.3,3.6,0.4,5.3,0.4l0,0c7.6,0,14.7-2.9,22.9-9.4c19.9-16.3,14-40.9,8.3-47.9l-2.9-3.2C167.8,35.1,158.9,31.1,149.5,31.1z
			 M144.1,99.4c-8.1,0-16.1-3.6-21.5-9.6c-0.3-0.4-0.9-0.9-1.5-1.5c-1.2-1.2-2.1-2-2.5-2.6c-2.8-4-15.3-24.8,10-45.1
			c6.4-4.1,12.8-6.2,19.2-6.2c13,0,21.6,8.5,24,11.1c0.5,0.6,1,1.2,1.4,1.8c4.8,6.4,12,28.9-7.5,44.2
			C158.7,96.7,151.4,99.4,144.1,99.4z M147.9,36.5c-6,0-12,1.9-18,5.8c-23.8,19.1-12.1,38.5-9.5,42.2c0.3,0.4,1.4,1.5,2.2,2.3
			c0.7,0.6,1.3,1.2,1.6,1.6c5,5.6,12.4,8.9,19.9,8.9c6.8,0,13.7-2.6,20.4-7.6c19.7-15.5,9.8-37.5,7.1-41.2c-0.4-0.5-0.8-1-1.3-1.6
			C168.1,44.4,160,36.5,147.9,36.5z"/>
	</g>
</g>
<path fill="#FFFFFF" d="M92,75.1l0.4-2c0.6-2.9,1.6-11-0.8-14L90.7,58l1.4-0.5c0.2-0.1,5-1.8,10.5-1.8c3,0,5.6,0.5,7.8,1.6l0.7,0.4
	l-0.1,0.8c-0.5,2.9-1.5,11.1,0.6,14.1l1.7,2.4l-2.8-0.8c0,0-4-1.1-8.7-1.1c-3,0-5.6,0.5-7.7,1.3L92,75.1z M94.1,59
	c1.8,3.7,1.2,9.7,0.7,12.7c2-0.6,4.3-0.9,6.8-0.9c2.9,0,5.4,0.4,7.2,0.7c-1.3-4.2-0.4-10.5-0.1-12.7c-1.7-0.7-3.8-1.1-6.1-1.1
	C99.1,57.8,95.8,58.5,94.1,59z"/>
<g>
	<path fill="#FFFFFF" d="M112.6,76.2l-1.9-0.6c0,0-5.2-1.8-10.3-1.8c-2.6,0-4.7,0.5-6.3,1.3l-1.4,0.8l-0.4-4l0.7-0.3
		c0.2-0.1,3.9-1.6,9.3-1.6c3,0,5.9,0.5,8.7,1.5l0.5,0.2L112.6,76.2z"/>
</g>
<path fill="#FFFFFF" d="M92.6,77L92.6,77c-1.1,0-1.9-0.8-2-0.9l-0.4-0.5l0.2-0.6c1.7-5.2-1.7-18.2-1.8-18.3c-0.1-1,0.1-1.5,0.4-1.8
	c0.3-0.3,0.8-0.7,1.7-0.7c0.7,0,1.3,0.2,1.3,0.2l0.4,0.2c5.7,4.9,3.5,18.8,3.4,19.4C94.9,76.1,93.9,77,92.6,77z M90.8,56.3
	c0.4,1.7,3.2,12.7,1.9,18.5c0.2,0,0.6-0.4,1.1-1.4c0.5-3.4,1.2-13.5-2.6-17C91.1,56.4,90.9,56.3,90.8,56.3z"/>
<g>
	<path fill="#FFFFFF" d="M111.2,76.6L111.2,76.6c-0.8,0-1.5-0.3-1.6-0.4l-0.3-0.2c-5.1-5.5-1.3-19.1-1.1-19.7c1-1.8,2-2.6,3.2-2.6
		c1.3,0,2.1,1.1,2.1,1.2l0.3,0.5l-0.2,0.5c-2.2,5-0.4,18.3-0.3,18.4c0,0.8-0.2,1.3-0.5,1.7C112.4,76.2,111.9,76.6,111.2,76.6z
		 M110.6,74.3c0.1,0,0.3,0.1,0.4,0.1c-0.2-1.7-1.7-13,0.2-18.6c-0.2,0-0.6,0.3-1.2,1.3C109.1,60.4,107.3,70.3,110.6,74.3z"/>
</g>
</svg>
