<?xml version="1.0" encoding="utf-8"?>
<!-- Generator: Adobe Illustrator 18.1.0, SVG Export Plug-In . SVG Version: 6.00 Build 0)  -->
<!DOCTYPE svg PUBLIC "-//W3C//DTD SVG 1.1//EN" "http://www.w3.org/Graphics/SVG/1.1/DTD/svg11.dtd">
<svg version="1.1" id="Layer_1" xmlns="http://www.w3.org/2000/svg" xmlns:xlink="http://www.w3.org/1999/xlink" x="0px" y="0px"
	 viewBox="0 0 360 116" enable-background="new 0 0 360 116" xml:space="preserve">
<g>
	<path d="M22.7,106.4h0.8v-8.6h-0.8v-0.9h3.1c0.7,0,1.4,0.1,2,0.4c0.6,0.2,1.2,0.6,1.7,1.1s0.9,1,1.1,1.7c0.3,0.6,0.4,1.4,0.4,2.2
		c0,0.6-0.1,1.2-0.3,1.8s-0.5,1.2-1,1.7s-1.1,0.9-1.8,1.2s-1.6,0.5-2.7,0.5h-2.6V106.4z M24.4,97.8v8.6h1.2c0.7,0,1.3-0.1,1.9-0.3
		s1-0.5,1.4-0.9c0.4-0.4,0.7-0.8,0.9-1.4s0.3-1.1,0.3-1.7c0-0.7-0.1-1.3-0.3-1.8c-0.2-0.5-0.5-1-0.9-1.4s-0.9-0.7-1.4-0.9
		c-0.5-0.2-1.1-0.3-1.7-0.3H24.4z"/>
	<path d="M37.7,103.9l-4.4,1.7c0.2,0.3,0.4,0.5,0.7,0.7c0.3,0.2,0.7,0.3,1,0.3c0.3,0,0.5,0,0.8-0.1c0.2-0.1,0.4-0.2,0.6-0.4
		c0.1,0.1,0.2,0.2,0.3,0.3c0.1,0.1,0.2,0.2,0.3,0.3c-0.3,0.2-0.6,0.4-0.9,0.6c-0.3,0.1-0.7,0.2-1.1,0.2c-0.4,0-0.8-0.1-1.2-0.2
		c-0.4-0.2-0.7-0.4-0.9-0.6c-0.3-0.3-0.5-0.6-0.6-0.9c-0.2-0.4-0.2-0.7-0.2-1.1c0-0.4,0.1-0.8,0.2-1.1c0.2-0.4,0.4-0.7,0.6-0.9
		s0.6-0.5,0.9-0.6c0.4-0.2,0.7-0.2,1.2-0.2c0.3,0,0.6,0.1,0.9,0.2c0.3,0.1,0.5,0.3,0.8,0.5s0.4,0.5,0.6,0.7
		C37.5,103.3,37.6,103.6,37.7,103.9z M35.1,102.5c-0.3,0-0.6,0.1-0.9,0.2s-0.5,0.3-0.7,0.5c-0.2,0.2-0.3,0.4-0.4,0.7
		c-0.1,0.3-0.1,0.5-0.1,0.8c0.6-0.2,1.1-0.4,1.7-0.7c0.6-0.2,1.1-0.4,1.7-0.7c-0.2-0.3-0.4-0.5-0.6-0.6S35.4,102.5,35.1,102.5z"/>
	<path d="M38.8,101.7h3.1v0.9H41c0.3,0.6,0.6,1.1,0.9,1.7c0.3,0.6,0.6,1.1,0.8,1.7c0.2-0.6,0.5-1.1,0.8-1.7c0.3-0.6,0.6-1.1,0.9-1.7
		h-0.9v-0.9h3v0.9h-1.2c-0.5,0.8-0.9,1.7-1.3,2.5c-0.4,0.8-0.9,1.7-1.3,2.5c-0.5-0.8-0.9-1.7-1.3-2.5c-0.4-0.8-0.9-1.7-1.3-2.5h-1.2
		V101.7z"/>
	<path d="M47.6,104.5c0-0.4,0.1-0.8,0.2-1.1c0.2-0.4,0.4-0.7,0.6-0.9s0.6-0.5,0.9-0.6c0.4-0.2,0.7-0.2,1.2-0.2
		c0.4,0,0.8,0.1,1.2,0.2s0.7,0.4,1,0.6s0.5,0.6,0.6,0.9c0.2,0.4,0.2,0.7,0.2,1.1c0,0.4-0.1,0.8-0.2,1.1c-0.2,0.4-0.4,0.7-0.6,0.9
		c-0.3,0.3-0.6,0.5-1,0.6c-0.4,0.2-0.8,0.2-1.2,0.2c-0.4,0-0.8-0.1-1.2-0.2c-0.4-0.2-0.7-0.4-0.9-0.6c-0.3-0.3-0.5-0.6-0.6-0.9
		C47.7,105.3,47.6,104.9,47.6,104.5z M48.5,104.5c0,0.3,0.1,0.5,0.2,0.8s0.2,0.5,0.4,0.6s0.4,0.3,0.6,0.4c0.2,0.1,0.5,0.2,0.8,0.2
		c0.3,0,0.5-0.1,0.8-0.2c0.3-0.1,0.5-0.2,0.7-0.4s0.3-0.4,0.4-0.6s0.2-0.5,0.2-0.8c0-0.3-0.1-0.5-0.2-0.8s-0.3-0.5-0.4-0.6
		c-0.2-0.2-0.4-0.3-0.7-0.4c-0.3-0.1-0.5-0.2-0.8-0.2c-0.3,0-0.5,0.1-0.8,0.2c-0.2,0.1-0.5,0.2-0.6,0.4c-0.2,0.2-0.3,0.4-0.4,0.6
		S48.5,104.3,48.5,104.5z"/>
	<path d="M54.6,101.7h2v3.7c0,0.3,0.1,0.6,0.3,0.8c0.2,0.2,0.5,0.3,0.9,0.4c0.3,0,0.5,0,0.8-0.1c0.3-0.1,0.5-0.2,0.7-0.4
		c0.2-0.2,0.4-0.4,0.5-0.6s0.2-0.5,0.2-0.8v-2h-1.1v-0.9h2v4.8h1v0.8H60l0-0.8l0-0.7c-0.2,0.5-0.5,0.9-1,1.1s-0.9,0.4-1.5,0.4
		c-0.6,0-1-0.2-1.4-0.5c-0.3-0.3-0.5-0.7-0.5-1.2v-3.1h-1.1V101.7z"/>
	<path d="M62.9,106.5h1.2v-3.8h-1v-0.9h1.8l0,0.3c0,0.2,0,0.4,0,0.6c0,0.2,0,0.4,0,0.6c0.1-0.2,0.3-0.5,0.5-0.7
		c0.2-0.2,0.4-0.4,0.6-0.5c0.2-0.1,0.4-0.2,0.6-0.3c0.2-0.1,0.4-0.1,0.6-0.1l-0.1,0.9c-0.3,0-0.6,0.1-0.9,0.2
		c-0.3,0.1-0.5,0.2-0.7,0.4c-0.2,0.2-0.3,0.4-0.5,0.6c-0.1,0.2-0.2,0.5-0.2,0.8v2h1v0.9h-3.1V106.5z"/>
</g>
<g>
	<path d="M119.9,106.1v-1.7h0.9v1.3c0.3,0.2,0.6,0.4,1,0.6c0.4,0.2,0.8,0.2,1.3,0.2c0.3,0,0.6,0,0.9-0.1c0.3-0.1,0.5-0.2,0.7-0.4
		s0.4-0.4,0.5-0.6c0.1-0.3,0.2-0.5,0.2-0.9c0-0.5-0.1-1-0.4-1.3c-0.2-0.3-0.6-0.5-0.9-0.7s-0.8-0.3-1.2-0.4s-0.8-0.3-1.2-0.4
		c-0.4-0.2-0.7-0.4-1-0.8c-0.3-0.3-0.4-0.8-0.4-1.4c0-0.3,0-0.7,0.1-1c0.1-0.3,0.3-0.6,0.5-0.9s0.5-0.5,0.9-0.7
		c0.4-0.2,0.8-0.3,1.3-0.3c0.4,0,0.8,0,1.2,0.1c0.4,0.1,0.9,0.3,1.3,0.7v1.5h-0.9v-1.1c-0.2-0.1-0.4-0.2-0.7-0.3
		c-0.3-0.1-0.6-0.1-0.9-0.1c-0.3,0-0.6,0.1-0.8,0.2c-0.2,0.1-0.4,0.2-0.6,0.4s-0.3,0.4-0.3,0.6c-0.1,0.2-0.1,0.5-0.1,0.7
		c0,0.4,0.1,0.8,0.4,1c0.2,0.2,0.6,0.4,0.9,0.6c0.4,0.1,0.8,0.3,1.2,0.4s0.9,0.3,1.2,0.5c0.4,0.2,0.7,0.5,1,0.9
		c0.3,0.4,0.4,0.9,0.4,1.6c0,0.4-0.1,0.9-0.2,1.2c-0.2,0.4-0.4,0.7-0.7,0.9c-0.3,0.3-0.6,0.5-1,0.6c-0.4,0.1-0.8,0.2-1.2,0.2
		c-0.4,0-0.8,0-1.1-0.1s-0.7-0.2-0.9-0.3c-0.3-0.1-0.5-0.3-0.8-0.4S120,106.2,119.9,106.1z"/>
	<path d="M130.9,106.5h0.4c-0.2-0.3-0.5-0.6-0.7-0.9c-0.2-0.3-0.4-0.6-0.6-0.9l-0.9,0.8v1h1.1v0.9h-3.1v-0.9h1.1V97h-1v-0.9h2v8.3
		l1.8-1.7h-0.7v-0.9h2.9v0.9h-1c-0.3,0.2-0.5,0.5-0.7,0.7c-0.2,0.2-0.5,0.5-0.7,0.7c0.3,0.4,0.6,0.8,0.9,1.2
		c0.3,0.4,0.6,0.8,0.9,1.2h1.4v0.9h-2.9V106.5z"/>
	<path d="M140.5,103.9l-4.4,1.7c0.2,0.3,0.4,0.5,0.7,0.7c0.3,0.2,0.7,0.3,1,0.3c0.3,0,0.5,0,0.8-0.1c0.2-0.1,0.4-0.2,0.6-0.4
		c0.1,0.1,0.2,0.2,0.3,0.3c0.1,0.1,0.2,0.2,0.3,0.3c-0.3,0.2-0.6,0.4-0.9,0.6c-0.3,0.1-0.7,0.2-1.1,0.2c-0.4,0-0.8-0.1-1.2-0.2
		c-0.4-0.2-0.7-0.4-0.9-0.6c-0.3-0.3-0.5-0.6-0.6-0.9c-0.2-0.4-0.2-0.7-0.2-1.1c0-0.4,0.1-0.8,0.2-1.1c0.2-0.4,0.4-0.7,0.6-0.9
		s0.6-0.5,0.9-0.6c0.4-0.2,0.7-0.2,1.2-0.2c0.3,0,0.6,0.1,0.9,0.2c0.3,0.1,0.5,0.3,0.8,0.5s0.4,0.5,0.6,0.7
		C140.2,103.3,140.4,103.6,140.5,103.9z M137.8,102.5c-0.3,0-0.6,0.1-0.9,0.2s-0.5,0.3-0.7,0.5c-0.2,0.2-0.3,0.4-0.4,0.7
		c-0.1,0.3-0.1,0.5-0.1,0.8c0.6-0.2,1.1-0.4,1.7-0.7c0.6-0.2,1.1-0.4,1.7-0.7c-0.2-0.3-0.4-0.5-0.6-0.6S138.1,102.5,137.8,102.5z"/>
	<path d="M142.8,98.1h0.9v3.7h1.6v0.9h-1.6v3.8h1.2v0.9h-2.1v-4.7h-1.3v-0.9h1.3V98.1z"/>
	<path d="M151.3,106.8c-0.3,0.2-0.5,0.4-0.9,0.5c-0.3,0.1-0.7,0.2-1,0.2c-0.4,0-0.8-0.1-1.2-0.2c-0.4-0.2-0.7-0.4-0.9-0.6
		c-0.3-0.3-0.5-0.6-0.6-0.9c-0.2-0.4-0.2-0.7-0.2-1.1c0-0.4,0.1-0.8,0.2-1.1c0.2-0.4,0.4-0.7,0.6-0.9s0.6-0.5,0.9-0.6
		c0.4-0.2,0.7-0.2,1.2-0.2c0.4,0,0.7,0.1,1,0.2c0.3,0.1,0.6,0.3,0.9,0.5v1.6h-0.8v-1.1c-0.3-0.2-0.7-0.3-1-0.3
		c-0.3,0-0.6,0.1-0.8,0.2c-0.2,0.1-0.5,0.2-0.6,0.4s-0.3,0.4-0.4,0.6s-0.2,0.5-0.2,0.8c0,0.3,0.1,0.6,0.2,0.8s0.2,0.5,0.4,0.6
		s0.4,0.3,0.6,0.4c0.2,0.1,0.5,0.2,0.8,0.2c0.3,0,0.5,0,0.7-0.1c0.2-0.1,0.4-0.2,0.6-0.3L151.3,106.8z"/>
	<path d="M156.6,106.5h1.2v-2.8c0-0.3-0.1-0.5-0.3-0.8c-0.2-0.2-0.5-0.3-0.9-0.4c-0.3,0-0.6,0.1-0.8,0.2s-0.5,0.2-0.7,0.4
		c-0.2,0.2-0.4,0.4-0.5,0.6c-0.1,0.2-0.2,0.5-0.2,0.8v2h1v0.9h-3.1v-0.9h1.2V97h-1.1v-0.9h2.1v6.4l0,0.7c0.2-0.5,0.5-0.9,1-1.1
		c0.4-0.3,0.9-0.4,1.5-0.4c0.6,0,1,0.2,1.4,0.5c0.3,0.3,0.5,0.7,0.5,1.2v3.2h1v0.9h-3.1V106.5z"/>
</g>
<g>
	<path d="M221,106.5h0.8v-8.7H221v-0.9h3.2c0.3,0,0.7,0.1,1.1,0.2c0.4,0.1,0.8,0.3,1.1,0.5c0.3,0.2,0.6,0.5,0.9,0.9
		c0.2,0.4,0.3,0.8,0.3,1.3c0,0.9-0.3,1.6-0.8,2.1s-1.3,0.8-2.4,0.8h-1.6v3.9h1.6v0.9H221V106.5z M222.7,101.6h1.4
		c0.5,0,0.9-0.1,1.2-0.2c0.3-0.1,0.6-0.3,0.8-0.5c0.2-0.2,0.3-0.4,0.4-0.6s0.1-0.5,0.1-0.7c0-0.2-0.1-0.5-0.2-0.7s-0.3-0.4-0.5-0.6
		c-0.2-0.2-0.5-0.3-0.8-0.4s-0.6-0.2-1-0.2h-1.4V101.6z"/>
	<path d="M228.6,106.5h1.1V97h-1v-0.9h2v10.4h1.1v0.9h-3.1V106.5z"/>
	<path d="M232.7,104.5c0-0.4,0.1-0.8,0.2-1.1c0.2-0.4,0.4-0.7,0.6-0.9c0.3-0.3,0.6-0.5,0.9-0.6c0.4-0.2,0.8-0.2,1.2-0.2
		c0.3,0,0.5,0,0.8,0.1s0.5,0.2,0.7,0.3c0.2,0.1,0.3,0.2,0.5,0.4s0.2,0.2,0.2,0.3c0-0.2,0-0.3,0-0.5c0-0.2,0-0.3,0-0.5h0.8v4.7h1.1
		v0.9h-2v-0.5v-0.5c0,0.1-0.1,0.2-0.2,0.3c-0.1,0.1-0.3,0.2-0.4,0.3c-0.2,0.1-0.4,0.2-0.6,0.3c-0.2,0.1-0.5,0.1-0.8,0.1
		c-0.4,0-0.8-0.1-1.2-0.2c-0.4-0.2-0.7-0.4-0.9-0.6c-0.3-0.3-0.5-0.6-0.6-0.9C232.8,105.3,232.7,104.9,232.7,104.5z M233.7,104.5
		c0,0.3,0.1,0.6,0.2,0.8s0.2,0.5,0.4,0.6s0.4,0.3,0.6,0.4c0.3,0.1,0.5,0.2,0.8,0.2s0.6-0.1,0.8-0.2c0.3-0.1,0.5-0.2,0.6-0.4
		s0.3-0.4,0.4-0.6s0.2-0.5,0.2-0.8c0-0.3-0.1-0.5-0.2-0.8s-0.2-0.5-0.4-0.6s-0.4-0.3-0.6-0.4c-0.3-0.1-0.5-0.2-0.8-0.2
		s-0.6,0.1-0.8,0.2c-0.3,0.1-0.5,0.2-0.6,0.4s-0.3,0.4-0.4,0.6S233.7,104.2,233.7,104.5z"/>
	<path d="M245.2,106.5h1.2v-2.8c0-0.3-0.1-0.5-0.3-0.8c-0.2-0.2-0.5-0.3-0.9-0.4c-0.3,0-0.6,0.1-0.8,0.2s-0.5,0.2-0.7,0.4
		c-0.2,0.2-0.4,0.4-0.5,0.6c-0.1,0.2-0.2,0.5-0.2,0.8v2h1v0.9h-3.1v-0.9h1.2v-3.8h-1v-0.9h1.8l0,0.3c0,0.2,0,0.4,0,0.6s0,0.4,0,0.6
		c0.2-0.5,0.5-0.9,1-1.1s0.9-0.4,1.5-0.4c0.6,0,1,0.2,1.4,0.5c0.3,0.3,0.5,0.7,0.5,1.2v3.2h1v0.9h-3.1V106.5z"/>
</g>
<g>
	<path d="M321.3,106.4h0.8v-8.6h-0.8v-0.9h3.2c0.7,0,1.4,0.1,2,0.4c0.6,0.2,1.2,0.6,1.7,1.1c0.5,0.5,0.9,1,1.1,1.7
		c0.3,0.6,0.4,1.4,0.4,2.2c0,0.6-0.1,1.2-0.3,1.8s-0.5,1.2-1,1.7s-1.1,0.9-1.8,1.2c-0.7,0.3-1.6,0.5-2.7,0.5h-2.6V106.4z
		 M323.1,97.8v8.6h1.2c0.7,0,1.3-0.1,1.9-0.3c0.6-0.2,1-0.5,1.4-0.9c0.4-0.4,0.7-0.8,0.9-1.4s0.3-1.1,0.3-1.7c0-0.7-0.1-1.3-0.3-1.8
		c-0.2-0.5-0.5-1-0.9-1.4c-0.4-0.4-0.9-0.7-1.4-0.9c-0.5-0.2-1.1-0.3-1.7-0.3H323.1z"/>
	<path d="M330.8,104.5c0-0.4,0.1-0.8,0.2-1.1s0.4-0.7,0.6-0.9c0.3-0.3,0.6-0.5,0.9-0.6c0.4-0.2,0.7-0.2,1.2-0.2
		c0.4,0,0.8,0.1,1.2,0.2s0.7,0.4,1,0.6c0.3,0.3,0.5,0.6,0.6,0.9s0.2,0.7,0.2,1.1c0,0.4-0.1,0.8-0.2,1.1c-0.2,0.4-0.4,0.7-0.6,0.9
		c-0.3,0.3-0.6,0.5-1,0.6c-0.4,0.2-0.8,0.2-1.2,0.2c-0.4,0-0.8-0.1-1.2-0.2c-0.4-0.2-0.7-0.4-0.9-0.6c-0.3-0.3-0.5-0.6-0.6-0.9
		C330.9,105.3,330.8,104.9,330.8,104.5z M331.8,104.5c0,0.3,0.1,0.5,0.2,0.8s0.2,0.5,0.4,0.6s0.4,0.3,0.6,0.4
		c0.2,0.1,0.5,0.2,0.8,0.2s0.5-0.1,0.8-0.2c0.3-0.1,0.5-0.2,0.7-0.4s0.3-0.4,0.4-0.6s0.2-0.5,0.2-0.8c0-0.3-0.1-0.5-0.2-0.8
		s-0.3-0.5-0.4-0.6c-0.2-0.2-0.4-0.3-0.7-0.4c-0.3-0.1-0.5-0.2-0.8-0.2s-0.5,0.1-0.8,0.2c-0.2,0.1-0.5,0.2-0.6,0.4
		c-0.2,0.2-0.3,0.4-0.4,0.6S331.8,104.3,331.8,104.5z"/>
</g>
<g>
	<g>
		<path d="M111.9,22.7c-0.2,16.6-0.1,33.1,0.4,49.7c0.1,2-0.3,4.3,1.9,5.2c1,0.4,2.3,0.4,3.4,0.6c2.3,0.3,4.5,0.6,6.8,0.8
			c8.1,0.9,16.3,1.4,24.5,1.6c2,0,3.9,0.1,5.9,0.1c1.5,0,3.3,0.3,4.8-0.1c2.8-0.7,2.2-3.5,2.2-5.9c0.1-8,0.2-15.9,0.2-23.9
			c0-8.3-0.1-16.6-0.2-24.9c0-2,0.1-4-0.1-6c-0.1-0.7-0.1-1.5-0.7-2.1c-0.5-0.4-1.1-0.4-1.8-0.5c-2.3-0.2-4.6-0.1-6.9-0.1
			c-9.2-0.2-18.5-0.3-27.7-0.5c-2.3,0-4.6-0.1-6.9-0.1c-1.3,0-3.2-0.4-4.5,0.1c-0.8,0.4-1,1-1.2,1.8c-0.4,2-0.1,4.4-0.2,6.5
			c0,0.6,1,0.6,1,0c0-1.6-0.1-3.3,0.1-4.9c0.4-2.9,2.5-2.6,4.8-2.6c3.6,0.1,7.3,0.1,10.9,0.2c6.6,0.1,13.2,0.2,19.8,0.3
			c1.6,0,3.3,0.1,4.9,0.1c1.6,0,3.4-0.2,4.9,0.1c1.3,0.3,1.5-0.7,2.4,1.6c0.3,0.7,0,2.2,0.1,3c0,1.7,0.1,3.3,0.1,5
			c0.1,7,0.2,13.9,0.2,20.9c0,6.6,0,13.3-0.1,19.9c0,1.7,0,3.3-0.1,5c0,2.2,0.6,5-2.1,5.9c-1.3,0.5-3.5,0-4.9,0
			c-1.6,0-3.3,0-4.9-0.1c-6.9-0.1-13.7-0.5-20.6-1.2c-2.9-0.3-5.9-0.6-8.8-1c-2.6-0.3-5.1-0.1-6.2-3c-0.6-1.5-0.1-4.3-0.2-6
			c-0.4-15.2-0.5-30.5-0.3-45.7C112.9,22,111.9,22,111.9,22.7L111.9,22.7z"/>
	</g>
</g>
<g>
	<g>
		<path d="M146.9,21.9c-5.2,1.2-11,3.6-10,10c0.9,6,6,10.7,12.2,9.9c2.4-0.3,5.7-0.7,7.3-2.7c1-1.3,1.2-3,1.5-4.5
			c0.3-1.6,0.9-3.3,1-4.9c0.3-6.3-9.3-7.2-13.8-7c-0.6,0-0.6,1,0,1c2.6-0.1,5.1,0.1,7.5,0.9c1.2,0.4,2.3,0.8,3.4,1.4
			c2,1.3,2,2.9,1.7,5.1c-0.3,2.1-0.6,5.1-1.7,6.9c-1.4,2.3-5.2,2.8-7.7,3c-5.4,0.4-10-4.5-10.4-9.8c-0.4-5.5,5-7.3,9.4-8.3
			C147.8,22.7,147.5,21.7,146.9,21.9L146.9,21.9z"/>
	</g>
</g>
<g>
	<g>
		<path d="M123.9,29.4c-2.6,4.9-5.1,9.7-7.7,14.6c-0.2,0.5,0.1,0.9,0.6,1c2.9,0.3,5.8,0.4,8.8,0.3c1.3,0,3.3,0.3,3.9-1.2
			c0.5-1.3-0.9-3.3-1.4-4.3c-1.3-2.7-2.6-5.4-3.9-8.1c-0.4-0.7-1.5-0.1-1.1,0.6c0.8,1.7,1.7,3.4,2.5,5.1c0.4,0.9,0.8,1.7,1.2,2.6
			c0.3,0.5,1.4,2.5,1.4,2.9c-0.2,1.7-4.3,1.1-5.5,1.1c-2,0-3.9-0.2-5.8-0.3c0.2,0.3,0.4,0.6,0.6,1c2.6-4.9,5.1-9.7,7.7-14.6
			C125.4,29.3,124.3,28.7,123.9,29.4L123.9,29.4z"/>
	</g>
</g>
<g>
	<g>
		<path d="M117.7,56c0.3,3.7,0.5,7.4,0.8,11.1c0.1,1.7-0.3,3.7,1.8,3.9c1.6,0.2,3.5-0.3,5.1-0.4c1.7-0.1,3.4-0.3,5.1-0.4
			c1.6-0.1,4.3,0.2,5.3-1.5c0.5-0.8,0.4-2,0.4-2.9c0.1-1.8,0.1-3.5,0.1-5.3c0-1.7,0.7-5.1-1.4-5.9c-0.8-0.3-1.9-0.1-2.7-0.1
			c-1.7,0.1-3.4,0.2-5.2,0.4c-3.5,0.3-7,0.8-10.4,1.4c-0.6,0.1-0.4,1.1,0.3,1c4.9-0.9,9.9-1.5,14.8-1.7c1.5-0.1,2.8-0.5,3.5,1.6
			c0.4,1,0,2.8,0,3.8c0,1.9,0.5,5.1-0.3,6.8c-0.8,1.7-5.7,1.5-7.3,1.6c-1.9,0.2-4.6,0.9-6.5,0.6c-1,0.4-1.6-0.1-1.6-1.4
			c0-0.6-0.1-1.3-0.1-1.9c-0.1-1-0.1-1.9-0.2-2.9c-0.2-2.6-0.4-5.1-0.5-7.7C118.6,55.4,117.6,55.3,117.7,56L117.7,56z"/>
	</g>
</g>
<g>
	<g>
		<path d="M146.5,47.1c0.2,8.3,0,16.6,0.5,24.8c0.1,1.8,0.3,2.3,2.1,1.7c1.7-0.5,4.2-0.9,5.7-1.8c0.6-0.3,0.7-0.5,1-1.2
			c0.5-1.2,0.4-2.8,0.4-4.1c0-2.1,0-4.2,0.1-6.3c0-4,0.1-8,0-11.9c0-1.4,0.1-3.4-1.5-3.7c-2.6-0.4-6.6,2.1-8.7,3.4
			c-0.5,0.3,0,1.2,0.5,0.8c1.9-1.2,4.8-3.1,7.2-3c1.8,0.1,1.6,1.5,1.6,3c0,1.4,0,2.8,0,4.3c0,2.7,0,5.5,0,8.2c0,2.5,0.3,5.5-0.2,7.9
			c-0.4,2.1-1.8,2.2-3.5,2.7c-0.9,0.3-2.8,1.4-3.6,0.4c-0.5-0.6-0.1-3.2-0.1-4.1c0-1.3,0-2.6-0.1-3.9c-0.1-5.7-0.2-11.4-0.3-17.2
			C147.4,46.5,146.4,46.5,146.5,47.1L146.5,47.1z"/>
	</g>
</g>
<g>
	<g>
		<path d="M202.9,22.7c-0.2,16.6-0.1,33.1,0.4,49.7c0.1,2-0.3,4.3,1.9,5.2c1,0.4,2.3,0.4,3.4,0.6c2.3,0.3,4.5,0.6,6.8,0.8
			c8.1,0.9,16.3,1.4,24.5,1.6c2,0,3.9,0.1,5.9,0.1c1.5,0,3.3,0.3,4.8-0.1c2.8-0.7,2.2-3.5,2.2-5.9c0.1-8,0.2-15.9,0.2-23.9
			c0-8.3-0.1-16.6-0.2-24.9c0-2,0.1-4-0.1-6c-0.1-0.7-0.1-1.5-0.7-2.1c-0.5-0.4-1.1-0.4-1.8-0.5c-2.3-0.2-4.6-0.1-6.9-0.1
			c-9.2-0.2-18.5-0.3-27.7-0.5c-2.3,0-4.6-0.1-6.9-0.1c-1.3,0-3.2-0.4-4.5,0.1c-0.8,0.4-1,1-1.2,1.8c-0.4,2-0.1,4.4-0.2,6.5
			c0,0.6,1,0.6,1,0c0-1.6-0.1-3.3,0.1-4.9c0.4-2.9,2.5-2.6,4.8-2.6c3.6,0.1,7.3,0.1,10.9,0.2c6.6,0.1,13.2,0.2,19.8,0.3
			c1.6,0,3.3,0.1,4.9,0.1c1.6,0,3.4-0.2,4.9,0.1c1.3,0.3,1.5-0.7,2.4,1.6c0.3,0.7,0,2.2,0.1,3c0,1.7,0.1,3.3,0.1,5
			c0.1,7,0.2,13.9,0.2,20.9c0,6.6,0,13.3-0.1,19.9c0,1.7,0,3.3-0.1,5c0,2.2,0.6,5-2.1,5.9c-1.3,0.5-3.5,0-4.9,0
			c-1.6,0-3.3,0-4.9-0.1c-6.9-0.1-13.7-0.5-20.6-1.2c-2.9-0.3-5.9-0.6-8.8-1c-2.6-0.3-5.1-0.1-6.2-3c-0.6-1.5-0.1-4.3-0.2-6
			c-0.4-15.2-0.5-30.5-0.3-45.7C203.9,22,202.9,22,202.9,22.7L202.9,22.7z"/>
	</g>
</g>
<g>
	<g>
		<path d="M237.9,21.9c-5.2,1.2-11,3.6-10,10c0.9,6,6,10.7,12.2,9.9c2.4-0.3,5.7-0.7,7.3-2.7c1-1.3,1.2-3,1.5-4.5
			c0.3-1.6,0.9-3.3,1-4.9c0.3-6.3-9.3-7.2-13.8-7c-0.6,0-0.6,1,0,1c2.6-0.1,5.1,0.1,7.5,0.9c1.2,0.4,2.3,0.8,3.4,1.4
			c2,1.3,2,2.9,1.7,5.1c-0.3,2.1-0.6,5.1-1.7,6.9c-1.4,2.3-5.2,2.8-7.7,3c-5.4,0.4-10-4.5-10.4-9.8c-0.4-5.5,5-7.3,9.4-8.3
			C238.8,22.7,238.5,21.7,237.9,21.9L237.9,21.9z"/>
	</g>
</g>
<g>
	<g>
		<path d="M214.9,29.4c-2.6,4.9-5.1,9.7-7.7,14.6c-0.2,0.5,0.1,0.9,0.6,1c2.9,0.3,5.8,0.4,8.8,0.3c1.3,0,3.3,0.3,3.9-1.2
			c0.5-1.3-0.9-3.3-1.4-4.3c-1.3-2.7-2.6-5.4-3.9-8.1c-0.4-0.7-1.5-0.1-1.1,0.6c0.8,1.7,1.7,3.4,2.5,5.1c0.4,0.9,0.8,1.7,1.2,2.6
			c0.3,0.5,1.4,2.5,1.4,2.9c-0.2,1.7-4.3,1.1-5.5,1.1c-2,0-3.9-0.2-5.8-0.3c0.2,0.3,0.4,0.6,0.6,1c2.6-4.9,5.1-9.7,7.7-14.6
			C216.4,29.3,215.3,28.7,214.9,29.4L214.9,29.4z"/>
	</g>
</g>
<g>
	<g>
		<path d="M208.7,56c0.3,3.7,0.5,7.4,0.8,11.1c0.1,1.7-0.3,3.7,1.8,3.9c1.6,0.2,3.5-0.3,5.1-0.4c1.7-0.1,3.4-0.3,5.1-0.4
			c1.6-0.1,4.3,0.2,5.3-1.5c0.5-0.8,0.4-2,0.4-2.9c0.1-1.8,0.1-3.5,0.1-5.3c0-1.7,0.7-5.1-1.4-5.9c-0.8-0.3-1.9-0.1-2.7-0.1
			c-1.7,0.1-3.4,0.2-5.2,0.4c-3.5,0.3-7,0.8-10.4,1.4c-0.6,0.1-0.4,1.1,0.3,1c4.9-0.9,9.9-1.5,14.8-1.7c1.5-0.1,2.8-0.5,3.5,1.6
			c0.4,1,0,2.8,0,3.8c0,1.9,0.5,5.1-0.3,6.8c-0.8,1.7-5.7,1.5-7.3,1.6c-1.9,0.2-4.6,0.9-6.5,0.6c-1,0.4-1.6-0.1-1.6-1.4
			c0-0.6-0.1-1.3-0.1-1.9c-0.1-1-0.1-1.9-0.2-2.9c-0.2-2.6-0.4-5.1-0.5-7.7C209.6,55.4,208.6,55.3,208.7,56L208.7,56z"/>
	</g>
</g>
<g>
	<g>
		<path d="M237.5,47.1c0.2,8.3,0,16.6,0.5,24.8c0.1,1.8,0.3,2.3,2.1,1.7c1.7-0.5,4.2-0.9,5.7-1.8c0.6-0.3,0.7-0.5,1-1.2
			c0.5-1.2,0.4-2.8,0.4-4.1c0-2.1,0-4.2,0.1-6.3c0-4,0.1-8,0-11.9c0-1.4,0.1-3.4-1.5-3.7c-2.6-0.4-6.6,2.1-8.7,3.4
			c-0.5,0.3,0,1.2,0.5,0.8c1.9-1.2,4.8-3.1,7.2-3c1.8,0.1,1.6,1.5,1.6,3c0,1.4,0,2.8,0,4.3c0,2.7,0,5.5,0,8.2c0,2.5,0.3,5.5-0.2,7.9
			c-0.4,2.1-1.8,2.2-3.5,2.7c-0.9,0.3-2.8,1.4-3.6,0.4c-0.5-0.6-0.1-3.2-0.1-4.1c0-1.3,0-2.6-0.1-3.9c-0.1-5.7-0.2-11.4-0.3-17.2
			C238.4,46.5,237.4,46.5,237.5,47.1L237.5,47.1z"/>
	</g>
</g>
<g>
	<g>
		<path d="M206.5,25.1c0.2,1.1,0.4,2.2,0.6,3.3c0.1,0.6,1.1,0.4,1-0.3c-0.2-1.1-0.4-2.2-0.6-3.3C207.3,24.2,206.4,24.5,206.5,25.1
			L206.5,25.1z"/>
	</g>
</g>
<g>
	<g>
		<path d="M207.3,27.2c3.9,0,7.8,0,11.7,0c0.6,0,0.6-1,0-1c-3.9,0-7.8,0-11.7,0C206.7,26.2,206.7,27.2,207.3,27.2L207.3,27.2z"/>
	</g>
</g>
<g>
	<g>
		<path d="M219.5,25c0,1.2,0,2.4,0,3.7c0,0.6,1,0.6,1,0c0-1.2,0-2.4,0-3.7C220.5,24.4,219.5,24.4,219.5,25L219.5,25z"/>
	</g>
</g>
<g>
	<g>
		<path d="M228.7,33c3,0,5.9,0,8.9,0c0.4,0,0.4-0.7,0-0.7c-3,0-5.9,0-8.9,0C228.2,32.3,228.2,33,228.7,33L228.7,33z"/>
	</g>
</g>
<g>
	<g>
		<path d="M237.1,32.2c0.1,0.3-0.1,0.5-0.3,0.6c0.2,0.1,0.4,0.2,0.6,0.2c-0.1-0.3,0.3-0.5,0.4-0.2c0-0.1,0-0.3,0.1-0.4
			c-0.2,0.4-0.5,0.7-1,0.8c0.1,0.1,0.3,0.2,0.4,0.2c-0.5-0.6,0.3-1.4,0.9-0.8c0.5,0.4,1.2-0.3,0.7-0.7c-0.6-0.6-1.5-0.7-2.2-0.1
			c-0.6,0.5-0.7,1.5-0.3,2.2c0.1,0.1,0.3,0.3,0.4,0.2c0.6-0.1,1.2-0.3,1.6-0.8c0.4-0.5,0.5-1.1-0.1-1.5c-1.1-0.8-2.3,0.5-1.8,1.6
			c0.1,0.2,0.4,0.3,0.6,0.2c0.8-0.2,1.2-1,1-1.8C237.9,31.3,237,31.5,237.1,32.2L237.1,32.2z"/>
	</g>
</g>
<g>
	<g>
		<path d="M233,47.2c0.8,0,1.6,0,2.3,0c0.6,0,0.6-1,0-1c-0.8,0-1.6,0-2.3,0C232.4,46.2,232.4,47.2,233,47.2L233,47.2z"/>
	</g>
</g>
<g>
	<g>
		<path d="M234.2,47c0,8.4,0,16.9,0,25.3c0,0.6,1,0.6,1,0c0-8.4,0-16.9,0-25.3C235.2,46.4,234.2,46.4,234.2,47L234.2,47z"/>
	</g>
</g>
<g>
	<g>
		<path d="M232.7,72.8c0.9,0,1.8,0,2.7,0c0.6,0,0.6-1,0-1c-0.9,0-1.8,0-2.7,0C232,71.8,232,72.8,232.7,72.8L232.7,72.8z"/>
	</g>
</g>
<g>
	<g>
		<path d="M207.2,51c0,0.7,0,1.3,0,2c0,0.6,1,0.6,1,0c0-0.7,0-1.3,0-2C208.2,50.4,207.2,50.4,207.2,51L207.2,51z"/>
	</g>
</g>
<g>
	<g>
		<path d="M207.7,52.8c5.8,0,11.6,0,17.3,0c0.6,0,0.6-1,0-1c-5.8,0-11.6,0-17.3,0C207,51.8,207,52.8,207.7,52.8L207.7,52.8z"/>
	</g>
</g>
<g>
	<g>
		<path d="M225.2,51c0,0.8,0,1.6,0,2.3c0,0.6,1,0.6,1,0c0-0.8,0-1.6,0-2.3C226.2,50.4,225.2,50.4,225.2,51L225.2,51z"/>
	</g>
</g>
<path fill="#FFFFFF" stroke="#000000" stroke-width="1.1742" stroke-miterlimit="10" d="M325.2,61.1c-3,5.7-6,11.4-9.1,17.2
	c4.2,0.4,8.4,0.5,12.6,0.3c0.5,0,0.9-0.1,1.3-0.4c0.6-0.6,0.3-1.6-0.1-2.4c-1.9-4-3.9-8-5.8-12"/>
<path fill="#FFFFFF" stroke="#000000" stroke-width="1.1742" stroke-miterlimit="10" d="M309.1,65.3c9.6-0.2,19.2-0.4,28.8-0.5
	c0.7,0,1.6,0,2-0.2c0.3-0.1,0.3-0.3,0.2-0.4c-0.8-2.5-1.6-5.1-2.4-7.6c-0.1-0.3-0.3-0.7-1.1-1c-1.1-0.4-3-0.4-4.7-0.4
	c-6.8-0.1-13.7-0.1-20.5-0.1c-1.5,0-3.1,0-4,0.4c-0.7,0.2-0.7,0.6-0.7,0.9c0.4,3.3,1.7,6.6,3.9,9.9"/>
<path fill="#FFFFFF" stroke="#000000" stroke-width="1.1742" stroke-miterlimit="10" d="M322.4,38.4c-4.1,0.9-8.8,2.2-10.7,6
	c-1.8,3.5-0.4,7.8,1.8,11c1.4,2.1,3.3,4,5.7,4.9c2.9,1,6,0.4,9-0.3c1.4-0.3,2.9-0.7,3.9-1.6c1.3-1.2,1.8-3.1,2.2-4.8
	c0.3-1.6,0.7-3.2,1-4.8c0.3-1.2,0.5-2.5,0.2-3.7c-0.6-2-2.6-3.3-4.6-4c-3.5-1.4-7.2-2-10.9-1.7"/>
<path fill="#FFFFFF" stroke="#000000" stroke-width="1.1742" stroke-miterlimit="10" d="M309.1,33.5c4.4,2.9,8.9,5.7,13.3,8.6
	c0.3,0.2,0.8,0.5,1.1,0.3c0.3-0.1,0.5-0.4,0.6-0.6c2.7-4.3,5.4-8.7,8.1-13c0.4-0.6,0.7-1.2,0.7-1.9c0-0.9-0.8-1.6-1.5-2.2
	c-2.9-2.4-5.9-4.7-8.9-6.9c-0.7-0.5-1.4-1-2.2-0.7c-0.6,0.2-1,0.7-1.4,1.2c-3.8,5.4-7.2,11.2-10.2,17.1"/>
<g>
	<g>
		<path d="M321.3,44.1c1.7-0.2,3.3-0.4,5-0.6c0.6-0.1,0.6-1.1,0-1c-1.7,0.2-3.3,0.4-5,0.6C320.7,43.2,320.7,44.2,321.3,44.1
			L321.3,44.1z"/>
	</g>
</g>
<g>
	<g>
		<path d="M84.2,46.4c2.5,0.5,4.9,1.2,7.3,2.1c-0.1-0.5-0.2-0.9-0.4-1.4c-1.5,1.5-3,2.9-4.5,4.4c-0.7,0.7,0.4,1.9,1.1,1.1
			c1.5-1.5,3-2.9,4.5-4.4c0.5-0.5,0.2-1.1-0.4-1.4c-2.4-0.9-4.8-1.6-7.3-2.1C83.6,44.6,83.2,46.1,84.2,46.4L84.2,46.4z"/>
	</g>
</g>
<g>
	<g>
		<path d="M178.2,46.4c2.5,0.5,4.9,1.2,7.3,2.1c-0.1-0.5-0.2-0.9-0.4-1.4c-2.1,1.9-5.1,2.4-7.3,4.3c-0.8,0.7,0.4,1.8,1.1,1.1
			c2.1-1.9,5.1-2.4,7.3-4.3c0.5-0.4,0.2-1.2-0.4-1.4c-2.4-0.9-4.8-1.6-7.3-2.1C177.6,44.6,177.2,46.1,178.2,46.4L178.2,46.4z"/>
	</g>
</g>
<g>
	<g>
		<path d="M277.1,45.8c2.3,0.5,4.2,1.7,6.4,2.6c-0.1-0.5-0.2-0.9-0.4-1.4c-0.9,0.8-2.5,0.7-3.6,0.8c-1,0.1-2,0.4-2.8,1.1
			c-0.8,0.7,0.4,1.8,1.1,1.1c0.9-0.8,2.5-0.7,3.6-0.8c1-0.1,2-0.4,2.8-1.1c0.5-0.4,0.2-1.1-0.4-1.4c-2.1-0.9-4.1-2.1-6.4-2.6
			C276.5,44.1,276.1,45.6,277.1,45.8L277.1,45.8z"/>
	</g>
</g>
<g>
	<g>
		<path d="M24.1,28c-0.1,4,0,8,0.2,12c0.1,2.3,0.3,3.4,2.8,3.5c1.9,0.1,4.6,0.9,5.3-1.4c0.6-1.7,0.1-4.4,0-6.1
			c-0.1-2.3-0.2-4.5-0.1-6.7c0.1-1-1.6-1-1.6,0c-0.2,2.8,0.1,5.5,0.2,8.2c0,0.7,0.5,3.9-0.2,4.4c-0.3,0.3-2.8,0-3.2-0.1
			c-0.8-0.2-0.7,0.2-1.2-0.6c-0.4-0.5-0.3-1.1-0.3-1.7c-0.1-1.3-0.1-2.6-0.2-3.9c-0.1-2.5-0.1-5.1,0-7.6C25.8,27,24.2,27,24.1,28
			L24.1,28z"/>
	</g>
</g>
<g>
	<g>
		<path d="M43.8,29.1c0.1,2.2,0.2,4.4,0.4,6.6c0.1,1.5-0.3,3.9,0.3,5.4c0.3,0.8,0.7,1.1,1.5,1.3c1.2,0.3,4.1,0.5,5.2,0
			c1.8-0.9,1.4-4,1.5-5.7c0.2-3.1,0.4-6.4,0.1-9.5c-0.1-1-1.7-1-1.6,0c0.2,1.9,0.1,3.9,0.1,5.8c-0.1,2,0.1,4.4-0.3,6.4
			c-0.4,1.7-1.4,1.5-2.9,1.4c-1.9,0-2-0.6-2.1-2.3c-0.2-3.2-0.3-6.3-0.5-9.5C45.3,28,43.7,28,43.8,29.1L43.8,29.1z"/>
	</g>
</g>
<g>
	<g>
		<path d="M35.6,43.6c0,1.8-0.3,5.8,2.3,6c3.1,0.2,2.5-4.2,2.5-6c0-1-1.6-1-1.6,0c0,0.6,0.3,4.9-0.9,4.3c-0.6-0.3-0.5-1.3-0.6-1.8
			c-0.1-0.8-0.1-1.6-0.1-2.5C37.1,42.6,35.5,42.6,35.6,43.6L35.6,43.6z"/>
	</g>
</g>
<g>
	<g>
		<path d="M36,43c-3.5,0.5-6.2,3.6-5.7,7.2c0.6,4.2,4.7,5.9,8.6,5.8c4.1,0,7.5-2.3,7.8-6.5c0.4-4.9-2.4-6.6-7.1-6.9
			c-1-0.1-1,1.6,0,1.6c3.1,0.2,6,1.5,5.5,5.3c-0.5,3.8-3.6,5.1-7.2,4.8c-2.8-0.2-5.5-1.3-6-4.4c-0.4-2.9,1.7-5,4.4-5.4
			C37.5,44.4,37.1,42.8,36,43L36,43z"/>
	</g>
</g>
<g>
	<g>
		<path d="M28.2,66.8c-0.1-1.8,0.1-3.6,0.2-5.4c0.1-1.2-0.2-2.8,0.1-4c-0.2,0.2-0.4,0.4-0.6,0.6c0.5-0.2,1.4,0,1.9,0
			c1.1,0,2.5-0.2,3.6,0.1c-0.2-0.2-0.4-0.4-0.6-0.6c0.4,1.4,0.1,3.2,0.2,4.7c0,1.5,0.1,3,0.1,4.6c0,1,1.6,1,1.6,0
			c-0.1-2.7-0.1-5.4-0.2-8.2c0-0.8,0.1-1.6-0.7-2.1c-1.2-0.7-3.5-0.1-4.8-0.1c-1.9-0.1-2.2,0.5-2.2,2.4c0,2.7-0.3,5.3-0.2,8
			C26.6,67.8,28.3,67.9,28.2,66.8L28.2,66.8z"/>
	</g>
</g>
<g>
	<g>
		<path d="M48.4,66.1c0-1-0.1-2-0.1-3.1c0-0.5-0.1-1-0.1-1.5c0-0.2,0-0.5,0-0.7c0-0.3-0.8-0.1,0.2-0.2c1.2-0.1,2.6-0.3,3.9-0.2
			c0.6,0.1,0.2-0.1,0.4,0.3c0.2,0.4,0.2,0.9,0.3,1.2c0.1,0.8,0.2,1.7,0.2,2.6c0,1,1.6,1,1.6,0c0-1.1-0.1-2.2-0.3-3.2
			c-0.1-0.7-0.2-1.7-0.7-2.2c-0.5-0.5-1.3-0.3-1.9-0.3c-1,0-2.1,0.1-3.1,0.1c-1.7,0.1-2.1,0.5-2.1,2.2c0.1,1.6,0.2,3.3,0.2,4.9
			C46.8,67.1,48.4,67.1,48.4,66.1L48.4,66.1z"/>
	</g>
</g>
<g>
	<g>
		<path d="M52.2,26.2c-10.8,2.3-21.1,3.5-31.6-0.7c-0.6-0.2-0.9,0.7-0.3,1c10.7,4.3,21.1,3,32.1,0.7C53.1,27,52.8,26.1,52.2,26.2
			L52.2,26.2z"/>
	</g>
</g>
<g>
	<g>
		<path d="M48.9,27.9c6.5-1.5,12.2-1.5,15.4,5.4c2,4.5,2.2,9.8,2.2,14.6c0.1,6.6-0.1,12.5-7.1,15.1C54.2,65,48.4,66,43,66.5
			C37.8,67,32.6,67,27.5,66.3c-7.3-1-10.7-5.1-12.1-12.1c-1.2-5.5-1.7-11.2-1.9-16.9c-0.1-3.1-0.6-7,1.7-9.4c1.7-1.8,5-2,7.3-0.6
			c0.6,0.3,1.1-0.5,0.5-0.9c-2.2-1.3-6.8-1.6-8.8,0.3c-1.9,1.9-1.7,6.1-1.7,8.6c0,4.6,0.5,9.2,1.1,13.7c0.7,5.2,1.5,11.8,5.9,15.5
			c5.5,4.5,16.2,3.6,22.6,3.1c6.7-0.5,15.5-1.4,21.2-5.3c4.9-3.3,4.3-10,4.2-15.2c-0.1-6-0.3-13.5-4.7-18.1c-3.8-4-9.3-3.2-14.1-2
			C48,27.1,48.2,28.1,48.9,27.9L48.9,27.9z"/>
	</g>
</g>
</svg>
