<?xml version="1.0" encoding="utf-8"?>
<!-- Generator: Adobe Illustrator 18.1.0, SVG Export Plug-In . SVG Version: 6.00 Build 0)  -->
<!DOCTYPE svg PUBLIC "-//W3C//DTD SVG 1.1//EN" "http://www.w3.org/Graphics/SVG/1.1/DTD/svg11.dtd">
<svg version="1.1" id="Layer_1" xmlns="http://www.w3.org/2000/svg" xmlns:xlink="http://www.w3.org/1999/xlink" x="0px" y="0px"
	 viewBox="281 371 50 50" enable-background="new 281 371 50 50" xml:space="preserve">
<g>
	<path id="Behance_2_" fill="#FFFFFF" d="M326.1,384.8h-12.5v-3.1h12.5V384.8z M305.3,397.6c0.8,1.3,1.2,2.7,1.2,4.6
		c0,1.8-0.4,3.5-1.4,5c-0.6,1-1.3,1.7-2.2,2.5c-1,0.8-2.2,1.3-3.5,1.5c-1.3,0.3-2.8,0.4-4.4,0.4h-14v-31h15c3.8,0.1,6.5,1.2,8.1,3.3
		c1,1.3,1.4,2.9,1.4,4.8s-0.5,3.4-1.4,4.5c-0.6,0.6-1.3,1.3-2.4,1.7C303.3,395.4,304.5,396.3,305.3,397.6z M288.2,392.7h6.6
		c1.3,0,2.5-0.3,3.3-0.8c0.8-0.5,1.3-1.4,1.3-2.7c0-1.5-0.6-2.4-1.7-2.9c-1-0.3-2.2-0.5-3.6-0.5h-5.8L288.2,392.7L288.2,392.7z
		 M300,401.7c0-1.6-0.6-2.7-2-3.3c-0.8-0.3-1.7-0.5-3.1-0.6h-6.7v8.3h6.6c1.3,0,2.4-0.2,3.2-0.6C299.3,404.9,300,403.6,300,401.7z
		 M330.8,396.7c0.1,1,0.2,2.5,0.2,4.4h-16.2c0.1,2.2,0.8,3.8,2.3,4.7c0.9,0.6,2,0.8,3.2,0.8c1.3,0,2.4-0.3,3.2-1.1
		c0.4-0.3,0.8-0.9,1.2-1.5h5.9c-0.1,1.3-0.8,2.7-2.2,4c-2,2.2-4.8,3.2-8.3,3.2c-2.9,0-5.5-0.9-7.9-2.7c-2.2-1.8-3.4-4.8-3.4-8.9
		c0-3.9,1.1-6.8,3.1-8.9c2-2,4.7-3.1,8-3.1c2,0,3.6,0.3,5.3,1.1c1.5,0.7,2.8,1.8,3.9,3.3C329.9,393.4,330.5,394.9,330.8,396.7z
		 M324.9,397.2c-0.1-1.5-0.6-2.7-1.5-3.5s-2.1-1.2-3.4-1.2c-1.5,0-2.7,0.4-3.5,1.3c-0.8,0.8-1.3,2-1.5,3.4H324.9z"/>
</g>
</svg>
