<?xml version="1.0" encoding="utf-8"?>
<!-- Generator: Adobe Illustrator 18.1.0, SVG Export Plug-In . SVG Version: 6.00 Build 0)  -->
<!DOCTYPE svg PUBLIC "-//W3C//DTD SVG 1.1//EN" "http://www.w3.org/Graphics/SVG/1.1/DTD/svg11.dtd">
<svg version="1.1" id="Layer_1" xmlns="http://www.w3.org/2000/svg" xmlns:xlink="http://www.w3.org/1999/xlink" x="0px" y="0px"
	 viewBox="270.3 365.3 50 50" enable-background="new 270.3 365.3 50 50" xml:space="preserve">
<g id="UMrDu4.tif">
	<g>
		<path fill="#FFFFFF" d="M295.2,365.4c6.2,0,12.4,0.1,18.7-0.1c3.6-0.1,6.2,2.7,6.1,6.1c-0.1,12.4,0,24.9,0,37.4
			c0,3.9-2.4,6.2-6.3,6.2c-12.4,0-24.9,0-37.2,0c-3.8,0-6.1-2.4-6.1-6.1c-0.1-12.5-0.1-25-0.1-37.4c0-3.2,1.5-5.2,4.1-5.9
			c0.7-0.2,1.4-0.2,2.1-0.2C282.8,365.4,289,365.4,295.2,365.4z M280.2,386.6c-1.4,0-2.7,0-4.1,0c0,0.4-0.1,0.8-0.1,1.1
			c0,6.4,0,12.8,0,19.1c0,1.8,0.6,2.4,2.5,2.4c11.1,0,22.1,0,33.1,0c1.8,0,2.5-0.7,2.5-2.5c0-6.4,0-12.8,0-19.1
			c0-0.3-0.1-0.7-0.1-1.1c-1.4,0-2.6,0-4,0c0.8,4.7,0.3,9-2.6,12.8c-2.9,3.8-6.7,6-11.6,6.2c-4.3,0.2-8.1-1-11.3-4.1
			C280.4,397.4,279.2,392.4,280.2,386.6z M304.7,390.4c0.3-4.6-3.8-9.4-8.4-9.7c-5.9-0.4-10.3,3.3-10.7,9.2c-0.3,5.3,4,9.3,8.5,9.8
			C300.5,400.3,304.8,395,304.7,390.4z M314.2,375.8L314.2,375.8c0-0.9,0-1.8,0-2.6c0-1.2-0.8-2-2-2c-1.8,0-3.5,0-5.4,0
			c-1.2,0-2.1,0.8-2.1,2c-0.1,1.9-0.1,3.7,0,5.6c0,1.1,0.8,2,2,2c1.9,0.1,3.7,0.1,5.6,0c1.1,0,1.9-0.9,1.9-2
			C314.3,377.6,314.2,376.7,314.2,375.8z"/>
	</g>
</g>
</svg>
