<?xml version="1.0" encoding="utf-8"?>
<!-- Generator: Adobe Illustrator 18.1.0, SVG Export Plug-In . SVG Version: 6.00 Build 0)  -->
<!DOCTYPE svg PUBLIC "-//W3C//DTD SVG 1.1//EN" "http://www.w3.org/Graphics/SVG/1.1/DTD/svg11.dtd">
<svg version="1.1" id="Layer_1" xmlns="http://www.w3.org/2000/svg" xmlns:xlink="http://www.w3.org/1999/xlink" x="0px" y="0px"
	 viewBox="281 371 50 50" enable-background="new 281 371 50 50" xml:space="preserve">
<g>
	<path id="LinkedIn_1_" fill="#FFFFFF" d="M330.7,401.3v18.3h-10.6v-17c0-4.2-1.5-7.2-5.4-7.2c-2.9,0-4.7,2-5.4,3.9
		c-0.3,0.7-0.3,1.6-0.3,2.6v17.8h-10.6c0,0,0.1-28.9,0-31.9H309v4.5l-0.1,0.1h0.1v-0.1c1.4-2.2,3.9-5.3,9.6-5.3
		C325.5,387,330.7,391.5,330.7,401.3z M287.3,372.3c-3.6,0-6,2.4-6,5.5c0,3.1,2.3,5.5,5.9,5.5h0.1c3.7,0,6-2.5,6-5.5
		C293.1,374.7,290.9,372.3,287.3,372.3z M281.9,419.6h10.6v-31.9h-10.6V419.6z"/>
</g>
</svg>
