<?xml version="1.0" encoding="utf-8"?>
<!-- Generator: Adobe Illustrator 18.1.0, SVG Export Plug-In . SVG Version: 6.00 Build 0)  -->
<!DOCTYPE svg PUBLIC "-//W3C//DTD SVG 1.1//EN" "http://www.w3.org/Graphics/SVG/1.1/DTD/svg11.dtd">
<svg version="1.1" id="Layer_1" xmlns="http://www.w3.org/2000/svg" xmlns:xlink="http://www.w3.org/1999/xlink" x="0px" y="0px"
	 viewBox="281 371 50 50" enable-background="new 281 371 50 50" xml:space="preserve">
<g>
	<path id="Twitter_3_" fill="#FFFFFF" d="M330.8,380.6c-1.8,0.8-3.8,1.3-5.9,1.6c2.1-1.2,3.7-3.3,4.5-5.6c-2,1.2-4.1,2-6.4,2.5
		c-1.9-2-4.5-3.2-7.4-3.2c-5.6,0-10.1,4.5-10.1,10.1c0,0.8,0.1,1.5,0.3,2.3c-8.5-0.4-15.9-4.5-21-10.7c-0.9,1.5-1.4,3.2-1.4,5.1
		c0,3.5,1.8,6.6,4.5,8.5c-1.7-0.1-3.2-0.5-4.6-1.2c0,0.1,0,0.1,0,0.1c0,4.9,3.5,9,8.2,10c-0.8,0.2-1.8,0.3-2.7,0.3
		c-0.6,0-1.2-0.1-1.9-0.2c1.3,4,5,7,9.5,7.1c-3.5,2.7-7.9,4.3-12.7,4.3c-0.8,0-1.6-0.1-2.5-0.1c4.4,3,9.8,4.6,15.5,4.6
		c18.7,0,28.9-15.5,28.9-28.9c0-0.4,0-0.9,0-1.3C327.6,384.5,329.4,382.7,330.8,380.6z"/>
</g>
</svg>
